<svg xmlns="http://www.w3.org/2000/svg" xmlns:xlink="http://www.w3.org/1999/xlink" width="1276" zoomAndPan="magnify" viewBox="0 0 956.88 959.999988" height="1280" preserveAspectRatio="xMidYMid meet" version="1.0"><defs><clipPath id="f519153de5"><path d="M 224 159.386719 L 744 159.386719 L 744 678 L 224 678 Z M 224 159.386719 " clip-rule="nonzero"/></clipPath><clipPath id="916a2293c2"><path d="M 767.03125 588.070312 L 956.164062 588.070312 L 956.164062 753.773438 L 767.03125 753.773438 Z M 767.03125 588.070312 " clip-rule="nonzero"/></clipPath><clipPath id="ae48aa6073"><path d="M 0.804688 537 L 231 537 L 231 778 L 0.804688 778 Z M 0.804688 537 " clip-rule="nonzero"/></clipPath><clipPath id="e2c0902eb6"><path d="M 291.445312 700 L 652.9375 700 L 652.9375 800.554688 L 291.445312 800.554688 Z M 291.445312 700 " clip-rule="nonzero"/></clipPath></defs><g clip-path="url(#f519153de5)"><path fill="#f9d15d" d="M 483.953125 159.402344 C 627.039062 159.402344 743.035156 275.375 743.035156 418.4375 C 743.035156 561.5 627.039062 677.472656 483.953125 677.472656 C 340.863281 677.472656 224.867188 561.5 224.867188 418.4375 C 224.867188 275.375 340.863281 159.402344 483.953125 159.402344 " fill-opacity="1" fill-rule="evenodd"/></g><g clip-path="url(#916a2293c2)"><path fill="#2a7962" d="M 906.183594 633.71875 C 906.003906 633.824219 900.179688 637.234375 890.546875 643.511719 C 894.042969 637.179688 900.199219 624.644531 900.785156 614.140625 C 901.601562 599.40625 899.078125 588.46875 899.078125 588.46875 C 899.078125 588.46875 884.128906 614.152344 887.855469 645.277344 C 880.859375 649.890625 872.183594 655.8125 862.390625 662.921875 C 864.566406 656.527344 868.839844 642.039062 867.375 630.964844 C 865.433594 616.339844 860.917969 606.058594 860.917969 606.058594 C 860.917969 606.058594 850.949219 634.257812 860.566406 664.25 C 851.613281 670.789062 841.773438 678.289062 831.480469 686.648438 C 833.609375 680.449219 838.074219 665.617188 836.582031 654.339844 C 834.640625 639.710938 830.128906 629.433594 830.128906 629.433594 C 830.128906 629.433594 820.085938 657.839844 829.878906 687.949219 C 822.960938 693.601562 815.84375 699.636719 808.664062 706.023438 C 809.320312 699.292969 810.183594 684.230469 806.246094 673.792969 C 801.023438 659.992188 794.289062 651.007812 794.289062 651.007812 C 794.289062 651.007812 791.015625 680.539062 807.023438 707.484375 C 799.285156 714.414062 791.476562 721.75 783.75 729.457031 C 784.410156 722.921875 785.390625 707.488281 781.367188 696.855469 C 776.148438 683.054688 769.414062 674.070312 769.414062 674.070312 C 769.414062 674.070312 766.121094 703.835938 782.335938 730.871094 C 777.261719 735.96875 772.230469 741.234375 767.277344 746.644531 L 770.398438 749.507812 C 775.121094 744.34375 779.917969 739.324219 784.757812 734.449219 C 809.816406 753.503906 839.722656 753.523438 839.722656 753.523438 C 839.722656 753.523438 831.539062 745.835938 818.390625 739.125 C 808.164062 733.902344 792.503906 733.199219 786.050781 733.148438 C 793.742188 725.441406 801.523438 718.113281 809.234375 711.1875 C 834.269531 730.128906 864.042969 730.144531 864.042969 730.144531 C 864.042969 730.144531 855.855469 722.460938 842.710938 715.746094 C 832.710938 710.640625 817.507812 709.855469 810.8125 709.773438 C 818.269531 703.121094 825.65625 696.855469 832.832031 691 C 857.917969 710.136719 887.890625 710.152344 887.890625 710.152344 C 887.890625 710.152344 879.707031 702.46875 866.5625 695.753906 C 856.398438 690.5625 840.851562 689.839844 834.332031 689.78125 C 844.5625 681.480469 854.332031 674.039062 863.21875 667.546875 C 888.335938 686.824219 918.464844 686.839844 918.464844 686.839844 C 918.464844 686.839844 910.277344 679.152344 897.132812 672.441406 C 886.863281 667.195312 871.101562 666.511719 864.707031 666.464844 C 874.980469 659.003906 884.019531 652.855469 891.171875 648.15625 C 918.851562 663.160156 948.410156 658.601562 948.410156 658.601562 C 948.410156 658.601562 939.144531 652.257812 925.128906 647.636719 C 915.003906 644.296875 900.839844 645.527344 893.757812 646.46875 C 899.898438 642.480469 904.359375 639.746094 906.632812 638.378906 C 911.539062 637.273438 918.859375 635.339844 926.207031 632.320312 C 939.007812 627.0625 956.164062 607.410156 956.164062 607.410156 C 931.996094 611.726562 914.523438 625.691406 906.183594 633.71875 " fill-opacity="1" fill-rule="nonzero"/></g><g clip-path="url(#ae48aa6073)"><path fill="#2a7962" d="M 61.601562 595.253906 C 61.816406 595.433594 68.601562 601.230469 79.667969 611.65625 C 76.605469 602.59375 71.519531 584.835938 73.21875 571.023438 C 75.601562 551.652344 81.441406 537.996094 81.441406 537.996094 C 81.441406 537.996094 94.898438 574.9375 82.761719 614.582031 C 90.789062 622.226562 100.703125 631.96875 111.789062 643.511719 C 110.457031 634.679688 108.277344 614.8125 112.777344 600.742188 C 118.726562 582.152344 127.007812 569.824219 127.007812 569.824219 C 127.007812 569.824219 133.390625 608.871094 113.855469 645.671875 C 123.984375 656.28125 135.035156 668.34375 146.480469 681.632812 C 145.160156 673.0625 142.808594 652.710938 147.394531 638.378906 C 153.34375 619.785156 161.625 607.457031 161.625 607.457031 C 161.625 607.457031 168.058594 646.792969 148.257812 683.707031 C 155.945312 692.679688 163.792969 702.203125 171.65625 712.199219 C 172.375 703.28125 174.769531 683.46875 182.347656 670.804688 C 192.371094 654.050781 203.238281 643.933594 203.238281 643.933594 C 203.238281 643.933594 200.589844 683.148438 173.445312 714.484375 C 181.902344 725.3125 190.351562 736.691406 198.605469 748.535156 C 199.273438 739.871094 201.617188 719.550781 209.335938 706.648438 C 219.359375 689.898438 230.226562 679.777344 230.226562 679.777344 C 230.226562 679.777344 227.558594 719.304688 200.109375 750.703125 C 205.523438 758.53125 210.847656 766.5625 216.027344 774.761719 L 211.296875 777.765625 C 206.355469 769.9375 201.285156 762.273438 196.125 754.796875 C 159.039062 773.746094 120.105469 766.769531 120.105469 766.769531 C 120.105469 766.769531 132.558594 758.683594 151.242188 753.019531 C 165.777344 748.609375 186.335938 751.363281 194.746094 752.800781 C 186.535156 740.96875 178.121094 729.609375 169.699219 718.789062 C 132.679688 737.59375 93.90625 730.648438 93.90625 730.648438 C 93.90625 730.648438 106.363281 722.558594 125.046875 716.890625 C 139.261719 712.585938 159.234375 715.121094 167.976562 716.578125 C 159.820312 706.171875 151.671875 696.285156 143.703125 686.984375 C 106.570312 706.03125 67.535156 699.039062 67.535156 699.039062 C 67.535156 699.039062 79.988281 690.949219 98.671875 685.285156 C 113.125 680.90625 133.53125 683.601562 142.035156 685.042969 C 130.65625 671.84375 119.683594 659.875 109.628906 649.34375 C 72.414062 668.566406 33.183594 661.535156 33.183594 661.535156 C 33.183594 661.535156 45.640625 653.445312 64.320312 647.777344 C 78.921875 643.355469 99.601562 646.148438 107.941406 647.582031 C 96.316406 635.46875 85.980469 625.34375 77.773438 617.558594 C 38.21875 630.613281 0.804688 617.765625 0.804688 617.765625 C 0.804688 617.765625 14.351562 611.675781 33.683594 608.9375 C 47.648438 606.957031 65.800781 611.875 74.800781 614.757812 C 67.746094 608.132812 62.570312 603.523438 59.933594 601.210938 C 53.800781 598.628906 44.71875 594.394531 35.859375 588.746094 C 20.425781 578.90625 2.695312 549.304688 2.695312 549.304688 C 33.140625 560.578125 52.621094 582.84375 61.601562 595.253906 " fill-opacity="1" fill-rule="nonzero"/></g><path fill="#d9b538" d="M 708.097656 776.875 C 728.292969 759.152344 755.898438 773.253906 764.851562 760.859375 C 773.804688 748.46875 757.242188 738.386719 732.816406 729.808594 C 708.386719 721.230469 736.664062 702.078125 757.050781 716.40625 C 777.4375 730.726562 808.484375 744.605469 805.210938 723.773438 C 801.933594 702.9375 759.480469 695.9375 760.714844 691.070312 C 761.945312 686.199219 776.070312 678.894531 787.25 687.949219 C 798.4375 697.003906 831.597656 710.171875 829.699219 689.324219 C 827.800781 668.476562 792.839844 663.09375 792.839844 663.09375 C 792.839844 663.09375 803.902344 641.371094 831.722656 644.105469 C 859.542969 646.839844 870.351562 610.359375 841.960938 608.519531 C 813.570312 606.675781 788.722656 638.558594 778.695312 636.535156 C 768.660156 634.511719 791.53125 598.839844 778.007812 598.351562 C 764.480469 597.863281 753.207031 616.425781 750.367188 638.511719 C 747.535156 660.597656 731.332031 658.390625 730.003906 641.816406 C 728.679688 625.238281 702.015625 605.003906 694.488281 619.679688 C 686.960938 634.363281 713.15625 661.21875 704.96875 679.875 C 696.785156 698.53125 696.964844 692.359375 686.152344 670.957031 C 675.332031 649.554688 642.246094 656.023438 652.753906 684.777344 C 662.089844 710.335938 659.105469 734.960938 654.867188 742.753906 L 708.097656 776.875 " fill-opacity="1" fill-rule="evenodd"/><path fill="#be8d1b" d="M 843.132812 624.082031 C 842.832031 624.164062 738.753906 652.917969 687.820312 743.214844 L 685.089844 741.667969 C 736.664062 650.234375 841.960938 621.148438 842.265625 621.058594 L 843.132812 624.082031 " fill-opacity="1" fill-rule="nonzero"/><path fill="#2a7962" d="M 673.375 418.84375 C 673.355469 418.910156 668.144531 437.472656 661.207031 447.316406 C 671.632812 443.4375 680.28125 431.808594 680.308594 431.769531 L 685.574219 431.769531 C 685.550781 431.804688 677.03125 443.644531 667.65625 449.09375 C 677.300781 447.273438 688.320312 441.621094 688.355469 441.597656 L 689.214844 444.980469 C 689.160156 445.015625 668.984375 457.914062 653.742188 452.910156 L 653.742188 452.90625 C 634.828125 447.078125 627.644531 426.425781 627.621094 426.367188 L 630.890625 423.546875 C 630.902344 423.585938 635.65625 435.867188 645.011719 443.292969 C 639.625 432.640625 639.449219 418.433594 639.449219 418.378906 L 643.914062 418.335938 C 643.914062 418.390625 644.101562 433.03125 649.550781 442.511719 C 649.410156 440.871094 649.371094 439.15625 649.421875 437.417969 C 649.683594 427.140625 653.027344 415.367188 653.652344 414.671875 L 657.382812 415.507812 C 656.9375 416.003906 654.117188 428.171875 653.875 437.539062 C 653.777344 441.46875 654.097656 445.167969 655.199219 447.710938 C 662.277344 441.792969 669.074219 417.6875 669.089844 417.617188 L 673.375 418.84375 " fill-opacity="1" fill-rule="nonzero"/><path fill="#ed5558" d="M 634.878906 403.363281 C 635.085938 402.941406 639.175781 396.785156 644.152344 402.746094 C 649.125 408.710938 644.753906 421.367188 641.839844 421.398438 C 638.921875 421.429688 630.410156 410.566406 634.878906 403.363281 Z M 670.460938 420.804688 C 670.460938 420.804688 663.976562 410.105469 668.914062 403.316406 C 673.839844 396.527344 681.011719 401.464844 679.125 409.378906 C 677.238281 417.292969 672.441406 423.257812 670.460938 420.804688 Z M 691.449219 416.5 C 691.449219 416.5 686.449219 413.402344 682.710938 421.097656 C 678.972656 428.785156 680.839844 434.671875 680.839844 434.671875 C 680.839844 434.671875 700.429688 428.453125 691.449219 416.5 Z M 686.105469 444.230469 C 686.105469 444.230469 688.210938 433.527344 697.753906 431.929688 C 707.292969 430.335938 697.644531 451.160156 686.105469 444.230469 Z M 631.0625 427.035156 C 630.410156 427.316406 633.734375 419.046875 628.707031 413.261719 C 623.6875 407.476562 618.710938 412.339844 620.691406 418.726562 C 622.679688 425.113281 627.75 427.945312 631.0625 427.035156 Z M 662.839844 400.980469 C 665.910156 406.902344 657.105469 419.332031 654.664062 417.992188 C 644.410156 412.367188 655.941406 387.660156 662.839844 400.980469 " fill-opacity="1" fill-rule="evenodd"/><path fill="#2a7962" d="M 656.59375 451.320312 C 656.542969 451.550781 630.121094 538.710938 585.308594 576.082031 L 582.445312 572.652344 C 626.140625 536.214844 652.210938 450.488281 652.273438 450.261719 L 656.59375 451.320312 " fill-opacity="1" fill-rule="nonzero"/><path fill="#2a7962" d="M 659.15625 473.375 C 659.125 473.433594 651 490.921875 642.582031 499.527344 C 653.484375 497.371094 663.890625 487.277344 663.929688 487.242188 L 668.390625 489.125 C 668.359375 489.152344 658.78125 498.4375 648.65625 502.3125 C 658.46875 502.0625 669.675781 497.796875 669.710938 497.78125 L 670.75 500.773438 C 670.6875 500.800781 648.554688 511.230469 634.3125 503.851562 L 634.3125 503.847656 C 616.578125 495.066406 612.800781 473.527344 612.789062 473.464844 L 617.175781 472.652344 C 617.179688 472.691406 619.191406 484.132812 627.238281 492.960938 C 623.628906 481.582031 625.730469 467.527344 625.742188 467.476562 L 630.15625 468.148438 C 630.152344 468.203125 627.976562 482.683594 631.84375 492.914062 C 631.96875 491.273438 632.203125 489.578125 632.527344 487.867188 C 634.4375 477.765625 639.632812 466.679688 640.359375 466.09375 L 643.160156 469.566406 C 642.644531 469.984375 638.644531 479.492188 636.910156 488.699219 C 636.179688 492.566406 635.902344 496.265625 636.582031 498.953125 C 644.519531 494.246094 655.09375 471.542969 655.125 471.472656 L 659.15625 473.375 " fill-opacity="1" fill-rule="nonzero"/><path fill="#ed5558" d="M 623.632812 451.921875 C 623.910156 451.542969 628.9375 446.113281 632.886719 452.800781 C 636.839844 459.484375 630.496094 471.277344 627.613281 470.84375 C 624.734375 470.40625 618.066406 458.316406 623.632812 451.921875 Z M 655.964844 474.839844 C 655.964844 474.839844 651.277344 463.242188 657.238281 457.328125 C 663.1875 451.417969 669.476562 457.445312 666.347656 464.953125 C 663.21875 472.460938 657.519531 477.578125 655.964844 474.839844 Z M 677.367188 473.953125 C 677.367188 473.953125 672.933594 470.097656 668.011719 477.09375 C 663.082031 484.082031 663.980469 490.191406 663.980469 490.191406 C 663.980469 490.191406 684.320312 487.195312 677.367188 473.953125 Z M 667.652344 500.472656 C 667.652344 500.472656 671.445312 490.246094 681.121094 490.199219 C 690.792969 490.152344 677.933594 509.160156 667.652344 500.472656 Z M 616.074219 474.675781 C 615.382812 474.851562 619.988281 467.222656 615.960938 460.703125 C 611.933594 454.1875 606.238281 458.191406 607.171875 464.8125 C 608.105469 471.4375 612.652344 475.039062 616.074219 474.675781 Z M 651.621094 454.054688 C 653.699219 460.386719 643.011719 471.25 640.8125 469.53125 C 631.601562 462.335938 646.941406 439.800781 651.621094 454.054688 " fill-opacity="1" fill-rule="evenodd"/><path fill="#2a7962" d="M 614.710938 518.335938 C 614.675781 518.394531 605.542969 535.382812 603.707031 547.277344 C 598.890625 537.25 601.253906 521.292969 601.257812 521.242188 L 596.726562 519.863281 C 596.722656 519.910156 594.863281 533.65625 597.828125 544.082031 C 592.144531 536.078125 589.027344 524.738281 589.015625 524.699219 L 584.789062 526.496094 C 584.800781 526.5625 590.75 549.511719 605.191406 556.484375 L 605.199219 556.484375 C 622.859375 565.410156 642.367188 555.523438 642.421875 555.496094 L 642.507812 551.007812 C 642.472656 551.03125 630.046875 556.765625 618.15625 555.621094 C 629.421875 551.6875 639.414062 541.582031 639.457031 541.539062 L 636.269531 538.410156 C 636.234375 538.449219 625.941406 548.867188 615.429688 551.902344 C 616.667969 550.824219 617.886719 549.617188 619.066406 548.332031 C 626.003906 540.75 631.769531 529.949219 631.800781 529.015625 L 628.242188 526.605469 C 628.214844 527.269531 622.097656 538.414062 615.769531 545.324219 C 613.113281 548.226562 610.3125 550.660156 607.757812 551.734375 C 606.765625 542.558594 618.609375 520.488281 618.644531 520.421875 L 614.710938 518.335938 " fill-opacity="1" fill-rule="nonzero"/><path fill="#ed5558" d="M 653.167969 533.902344 C 653.3125 533.453125 654.644531 526.183594 646.921875 527.023438 C 639.199219 527.867188 633.5625 540.011719 635.640625 542.058594 C 637.714844 544.105469 651.390625 542.191406 653.167969 533.902344 Z M 615.441406 521.765625 C 615.441406 521.765625 627.539062 518.566406 628.703125 510.257812 C 629.863281 501.945312 621.273438 500.527344 617.136719 507.53125 C 613 514.535156 612.316406 522.160156 615.441406 521.765625 Z M 603.320312 504.105469 C 603.320312 504.105469 609.066406 505.34375 606.417969 513.480469 C 603.777344 521.613281 598.347656 524.550781 598.347656 524.550781 C 598.347656 524.550781 588.558594 506.476562 603.320312 504.105469 Z M 587.917969 527.777344 C 587.917969 527.777344 593.832031 518.613281 588.070312 510.84375 C 582.308594 503.074219 574.800781 524.757812 587.917969 527.777344 Z M 639.488281 553.59375 C 639.757812 554.25 643.101562 545.988281 650.742188 545.308594 C 658.375 544.628906 658.578125 551.582031 652.714844 554.804688 C 646.855469 558.03125 641.242188 556.546875 639.488281 553.59375 Z M 634.6875 512.78125 C 628.371094 514.917969 626.085938 529.980469 628.777344 530.707031 C 640.050781 533.769531 648.910156 507.984375 634.6875 512.78125 " fill-opacity="1" fill-rule="evenodd"/><path fill="#2a7962" d="M 542.960938 689.449219 C 542.960938 689.449219 574.671875 701.96875 596.03125 704.867188 C 617.394531 707.761719 623.320312 700.085938 612.753906 688.839844 C 602.179688 677.597656 592.121094 673.777344 592.121094 673.777344 C 592.121094 673.777344 643.992188 687.835938 656.5 688.265625 C 669.011719 688.699219 667.070312 678.296875 650.109375 666.347656 C 633.152344 654.398438 625.164062 653.59375 625.164062 653.59375 C 625.164062 653.59375 695.511719 670.371094 705.675781 667.128906 C 715.832031 663.886719 699.117188 642.628906 685.429688 635.054688 C 671.738281 627.480469 671.738281 627.480469 671.738281 627.480469 C 671.738281 627.480469 722.753906 639.878906 739.621094 637.359375 C 756.488281 634.84375 746.539062 623.957031 730.039062 614.929688 C 713.554688 605.898438 703.960938 604.996094 703.960938 604.996094 C 703.960938 604.996094 769.808594 611.222656 780.679688 606.734375 C 791.5625 602.25 783.738281 593.421875 767.828125 585.390625 C 751.917969 577.363281 737 574.210938 737 574.210938 C 737 574.210938 780.632812 554.347656 798.535156 540 C 816.441406 525.652344 797.089844 521.273438 777.023438 523.597656 C 756.953125 525.917969 728.824219 539.328125 728.824219 539.328125 C 728.824219 539.328125 748.742188 512.890625 741.839844 504.761719 C 734.9375 496.632812 686.230469 547.363281 686.230469 547.363281 C 686.230469 547.363281 700.15625 508.355469 685.527344 511.007812 C 670.90625 513.660156 650.625 567.390625 650.625 567.390625 C 650.625 567.390625 660.972656 529.125 652.722656 527.34375 C 644.472656 525.5625 637.007812 537.320312 628.800781 556.109375 C 620.597656 574.898438 613.785156 597.144531 613.785156 597.144531 C 613.785156 597.144531 620.992188 554.996094 611.757812 550.902344 C 602.519531 546.8125 574.832031 619.542969 574.832031 619.542969 C 574.832031 619.542969 581.058594 585.53125 573.378906 582.335938 C 565.695312 579.140625 534.257812 660.648438 542.960938 689.449219 " fill-opacity="1" fill-rule="evenodd"/><path fill="#75a486" d="M 542.960938 689.449219 C 542.960938 689.449219 544.246094 689.957031 546.472656 690.792969 C 628.847656 610.703125 749.175781 555.980469 749.519531 555.820312 L 746.6875 549.597656 C 746.332031 549.757812 625.359375 604.78125 542.082031 685.5625 C 542.308594 686.941406 542.597656 688.246094 542.960938 689.449219 " fill-opacity="1" fill-rule="evenodd"/><path fill="#2a7962" d="M 370.839844 444.617188 L 342.300781 436.652344 L 341.269531 440.394531 L 373.496094 449.390625 C 376.0625 454.09375 378.5625 458.988281 380.917969 464 C 375.480469 462.527344 365 460.257812 350.609375 459.769531 L 350.492188 463.648438 C 368.5 464.265625 380.0625 467.695312 383.046875 468.679688 C 386.214844 475.832031 389.03125 483.1875 391.234375 490.5625 L 394.964844 489.453125 C 392.230469 480.328125 388.59375 471.234375 384.507812 462.511719 C 383.605469 460.554688 396.949219 443.800781 396.988281 443.753906 L 393.957031 441.324219 C 393.929688 441.359375 386.03125 451.363281 382.496094 458.324219 C 380.414062 454.078125 378.242188 449.941406 376.03125 445.945312 L 386.121094 422.304688 L 382.546875 420.78125 L 373.628906 441.675781 C 369.296875 434.128906 364.90625 427.171875 360.855469 421.101562 C 367.3125 413.234375 368.011719 400.507812 368.011719 400.46875 L 364.132812 400.257812 C 364.132812 400.289062 363.554688 410.808594 358.566406 417.710938 C 349.816406 404.90625 343.15625 396.820312 343.113281 396.765625 L 340.097656 399.214844 C 340.140625 399.265625 345.964844 406.335938 353.847656 417.699219 C 347.003906 415.925781 335.3125 413.148438 332.144531 414.011719 L 333.164062 417.753906 C 336.28125 416.90625 353.566406 421.609375 357.203125 422.621094 C 361.507812 429.035156 366.222656 436.492188 370.839844 444.617188 " fill-opacity="1" fill-rule="nonzero"/><path fill="#ed5558" d="M 342.875 438.519531 C 342.796875 438.804688 343.742188 436.101562 340.042969 432.585938 C 336.347656 429.074219 327.902344 428.25 324.386719 434.914062 C 320.871094 441.578125 327.488281 448.015625 335.113281 446.554688 C 342.738281 445.09375 342.875 438.519531 342.875 438.519531 Z M 333.359375 415.773438 C 333.359375 415.773438 332.785156 409.21875 325.117188 408.03125 C 317.449219 406.84375 313.429688 412.046875 313.703125 417.617188 C 313.976562 423.1875 320.734375 428.753906 328.585938 423.640625 C 336.4375 418.53125 333.359375 415.773438 333.359375 415.773438 Z M 342.238281 398.773438 C 342.238281 398.773438 349.40625 392.96875 347.121094 384.207031 C 344.839844 375.445312 331.328125 373.707031 325.574219 382.105469 C 319.824219 390.503906 324.664062 402.464844 342.238281 398.773438 Z M 394.878906 443.296875 C 394.878906 443.296875 398.925781 447.605469 404.496094 443.589844 C 410.070312 439.570312 404.589844 427.292969 396.140625 431.355469 C 387.699219 435.417969 394.878906 443.296875 394.878906 443.296875 Z M 365.960938 401.648438 C 365.960938 401.648438 376.375 402.464844 377.472656 394.25 C 378.570312 386.03125 371.261719 382.46875 364.6875 386.578125 C 358.117188 390.6875 358.296875 398.261719 365.960938 401.648438 Z M 383.835938 422.703125 C 383.835938 422.703125 393.996094 424.828125 394.089844 415.792969 C 394.179688 406.753906 386.417969 404.746094 381.671875 408.578125 C 376.925781 412.410156 375.460938 419.988281 383.835938 422.703125 Z M 352.636719 461.792969 C 352.636719 461.792969 353.09375 455.683594 345.605469 454.953125 C 338.121094 454.222656 336.753906 462.074219 339.675781 467.914062 C 342.59375 473.757812 353.1875 470.105469 352.636719 461.792969 " fill-opacity="1" fill-rule="evenodd"/><path fill="#2a7962" d="M 360.796875 680.015625 C 360.796875 680.015625 327.695312 671.84375 308.605469 661.832031 C 289.519531 651.816406 289.132812 642.128906 304.265625 639.085938 C 319.398438 636.046875 329.808594 638.757812 329.808594 638.757812 C 329.808594 638.757812 279.390625 620.171875 268.941406 613.273438 C 258.492188 606.378906 266.101562 599.027344 286.851562 599.113281 C 307.601562 599.195312 314.578125 603.171875 314.578125 603.171875 C 314.578125 603.171875 247.515625 576.089844 241.113281 567.5625 C 234.710938 559.035156 260.652344 551.390625 276.199219 553.148438 C 291.746094 554.902344 291.746094 554.902344 291.746094 554.902344 C 291.746094 554.902344 242.988281 535.460938 230.699219 523.636719 C 218.410156 511.816406 232.824219 508.707031 251.5 510.902344 C 270.175781 513.09375 278.515625 517.914062 278.515625 517.914062 C 278.515625 517.914062 221.242188 484.847656 214.976562 474.886719 C 208.710938 464.929688 220.199219 462.265625 237.820312 464.9375 C 255.441406 467.609375 269.425781 473.683594 269.425781 473.683594 C 269.425781 473.683594 245.375 432.21875 239.097656 410.152344 C 232.824219 388.085938 251.125 395.726562 266.136719 409.246094 C 281.144531 422.765625 296.304688 449.988281 296.304688 449.988281 C 296.304688 449.988281 295.394531 416.90625 305.730469 414.277344 C 316.066406 411.648438 326.367188 481.214844 326.367188 481.214844 C 326.367188 481.214844 337.621094 441.351562 348.003906 451.984375 C 358.390625 462.617188 343.78125 518.160156 343.78125 518.160156 C 343.78125 518.160156 357.519531 480.980469 365.28125 484.304688 C 373.035156 487.628906 372.304688 501.542969 368.105469 521.605469 C 363.90625 541.671875 356.558594 563.75 356.558594 563.75 C 356.558594 563.75 375.117188 525.222656 385.015625 527.238281 C 394.910156 529.25 375.332031 604.574219 375.332031 604.574219 C 375.332031 604.574219 389.964844 573.242188 398.078125 575.089844 C 406.191406 576.933594 384.582031 661.578125 360.796875 680.015625 " fill-opacity="1" fill-rule="evenodd"/><path fill="#75a486" d="M 360.796875 680.015625 C 360.796875 680.015625 359.453125 679.679688 357.15625 679.070312 C 336.429688 566.078125 270.070312 451.769531 269.878906 451.441406 L 275.796875 448.011719 C 275.992188 448.34375 342.707031 563.273438 363.765625 677.355469 C 362.78125 678.34375 361.792969 679.242188 360.796875 680.015625 " fill-opacity="1" fill-rule="evenodd"/><path fill="#d9b538" d="M 333.390625 714.3125 C 327.984375 713.328125 295.058594 653.882812 289.164062 600.820312 C 283.265625 547.761719 245.429688 539.898438 248.378906 585.097656 C 251.324219 630.300781 277.304688 649.78125 261.121094 654.535156 C 244.9375 659.285156 226.757812 541.371094 194.324219 532.527344 C 161.890625 523.6875 173.195312 584.609375 201.695312 632.753906 C 230.195312 680.90625 255.75 685.324219 233.632812 687.785156 C 211.523438 690.238281 185.476562 626.371094 166.804688 628.335938 C 148.132812 630.300781 139.78125 664.199219 179.582031 707.925781 C 219.382812 751.652344 290.144531 763.933594 307.34375 763.933594 C 324.542969 763.933594 333.390625 714.3125 333.390625 714.3125 " fill-opacity="1" fill-rule="evenodd"/><path fill="#1d254a" d="M 464.125 652.042969 C 464.125 652.042969 500.257812 633.917969 536.132812 652.042969 C 572.003906 670.167969 570.109375 678.820312 610.125 671.75 C 650.132812 664.683594 634.40625 696.382812 674.214844 715.277344 C 714.019531 734.175781 738.585938 721.375 777.902344 737.222656 C 817.207031 753.070312 807.875 776.238281 737.609375 785.988281 C 667.332031 795.746094 564.878906 788.382812 470.039062 791.433594 C 375.199219 794.480469 326.546875 790.15625 281.832031 789.550781 C 237.117188 788.941406 180.847656 795.132812 181.832031 767.703125 C 182.816406 740.273438 206.894531 721.375 253.085938 714.058594 C 299.277344 706.746094 309.597656 708.570312 321.390625 681.140625 C 333.183594 653.710938 347.433594 634.203125 373.96875 637.859375 C 400.503906 641.519531 464.125 652.042969 464.125 652.042969 " fill-opacity="1" fill-rule="evenodd"/><path fill="#1d254a" d="M 502.039062 273.890625 C 502.039062 273.890625 508.007812 273.824219 518.390625 283.605469 C 528.753906 293.371094 536.492188 310.445312 537.832031 333.585938 C 538.511719 344.910156 537 360.523438 536.023438 375.5 C 536.859375 389.390625 538.164062 403.507812 540.164062 412.09375 C 542.789062 423.34375 550.199219 430.785156 555.730469 436.34375 C 560.964844 441.609375 564.632812 445.292969 561.503906 449.199219 L 560.339844 448.300781 C 562.671875 445.390625 559.382812 442.082031 554.667969 437.355469 C 549 431.675781 541.433594 424.066406 538.71875 412.417969 C 537.277344 406.277344 536.214844 397.339844 535.398438 387.671875 C 535.050781 398.566406 535.46875 408.292969 537.832031 414.671875 C 544.21875 431.6875 552.894531 433.285156 555.070312 442.058594 C 557.242188 450.832031 493.710938 453.757812 485.464844 433.285156 C 477.203125 412.808594 506.789062 373.726562 510.300781 342.886719 C 513.832031 312.046875 505.414062 302.734375 505.414062 302.734375 C 505.414062 302.734375 500.042969 290.550781 502.039062 273.890625 " fill-opacity="1" fill-rule="evenodd"/><path fill="#e54e41" d="M 389.761719 694.714844 C 356.839844 694.023438 317.601562 670.359375 305.191406 672.589844 C 282.925781 676.585938 258.066406 683.320312 259.453125 715.0625 C 260.328125 735.308594 269.453125 754.773438 295.65625 768.710938 C 290.980469 754.695312 288.367188 734.773438 301.207031 719.949219 C 322.375 695.511719 331.695312 697.640625 357.933594 708.703125 C 374.800781 715.8125 418.097656 732.523438 446.125 743.511719 C 447.96875 742.660156 450.019531 741.851562 452.28125 741.105469 C 467.015625 736.28125 549.191406 720.183594 568.132812 715.558594 C 587.089844 710.929688 610.273438 695.757812 636.15625 685.6875 C 636.15625 685.6875 678.507812 695.945312 678.039062 723.640625 C 677.792969 738.421875 672.347656 748.546875 666.796875 755.519531 C 677.289062 750.324219 684.921875 743.933594 688.710938 736.5 C 699.304688 715.742188 703.183594 680.523438 659.578125 672.589844 C 615.976562 664.65625 596.898438 683.199219 580.566406 689.570312 C 564.21875 695.949219 559.503906 692.820312 559.503906 692.820312 C 559.503906 692.820312 540.285156 689.9375 518.769531 690.171875 C 497.257812 690.417969 464.125 689.570312 464.125 689.570312 L 463.082031 691.617188 C 437.652344 692.113281 404.066406 695.011719 389.761719 694.714844 " fill-opacity="1" fill-rule="evenodd"/><path fill="#f79581" d="M 559.367188 523.273438 C 559.378906 523.3125 581.90625 600.578125 584.671875 611.640625 C 587.4375 622.703125 654.867188 669.46875 659.578125 672.589844 C 664.292969 675.71875 681.546875 683.652344 687.527344 681.855469 C 693.515625 680.070312 690.761719 681.855469 694.433594 681.855469 C 698.117188 681.855469 703.183594 680.523438 703.183594 680.523438 C 703.183594 680.523438 707.097656 683.535156 711.464844 680.523438 C 715.847656 677.519531 715.617188 672.589844 715.617188 672.589844 C 715.617188 672.589844 718.589844 674.035156 721.808594 672.589844 C 725.042969 671.152344 731.476562 651.671875 731.375 648.066406 C 731.253906 644.460938 724.925781 635.925781 718.140625 630.988281 C 711.355469 626.058594 708.246094 626.542969 708.246094 626.542969 C 708.246094 626.542969 705.253906 623.78125 703.980469 625.34375 C 702.714844 626.898438 702.382812 636.882812 702.382812 636.882812 L 679.597656 648.066406 C 679.597656 648.066406 625.753906 593.960938 621.609375 588.917969 C 617.457031 583.867188 601.367188 476.140625 593.3125 459.789062 C 585.261719 443.4375 571.675781 439.109375 555.105469 436.949219 C 552.742188 436.640625 550.40625 436.332031 548.113281 436.007812 C 549.121094 465.15625 551.261719 473.269531 552.617188 502.507812 C 556.722656 516.71875 556.566406 515.46875 559.367188 523.273438 Z M 574.882812 691.339844 L 575.609375 691.339844 C 575.609375 691.339844 571.007812 679.464844 568.460938 672.441406 C 570.796875 678.933594 574.355469 689.734375 574.882812 691.339844 Z M 389.761719 694.714844 Z M 417.820312 435.84375 C 415.148438 436.222656 412.425781 436.585938 409.664062 436.949219 C 393.09375 439.109375 379.523438 443.4375 371.46875 459.789062 C 363.414062 476.140625 347.308594 583.867188 343.164062 588.917969 C 339.019531 593.960938 285.179688 648.066406 285.179688 648.066406 L 262.394531 636.882812 C 263.824219 637.578125 265.839844 624.019531 256.527344 626.542969 C 256.527344 626.542969 253.421875 626.058594 246.636719 630.988281 C 239.847656 635.925781 233.519531 644.460938 233.402344 648.066406 C 233.289062 651.671875 239.726562 671.152344 242.953125 672.589844 C 246.175781 674.035156 249.160156 672.589844 249.160156 672.589844 C 249.160156 672.589844 248.929688 677.519531 253.304688 680.523438 C 257.675781 683.535156 261.585938 680.523438 261.585938 680.523438 C 261.585938 680.523438 266.65625 681.855469 270.328125 681.855469 C 274.019531 681.855469 271.257812 680.070312 277.234375 681.855469 C 283.222656 683.652344 300.480469 675.71875 305.191406 672.589844 C 309.910156 669.46875 377.335938 622.703125 380.09375 611.640625 C 382.773438 600.921875 404.019531 528.039062 405.347656 523.496094 L 405.0625 524.453125 L 412.214844 496.097656 L 416.273438 436.066406 Z M 461.429688 399.679688 C 461.429688 399.679688 461.570312 411.207031 457.480469 419.613281 C 451.113281 424.082031 443.515625 425.351562 443.515625 425.351562 C 443.515625 425.351562 445.21875 426.617188 448.003906 428.460938 C 442.707031 430.925781 436.375 432.621094 429.394531 433.960938 C 431.511719 433.554688 433.566406 433.121094 435.550781 432.640625 C 435.183594 436.097656 434.226562 445.164062 433.878906 449.367188 C 433.390625 455.476562 432.957031 462.015625 432.714844 467.890625 C 432.488281 473.765625 432.453125 478.960938 432.800781 482.390625 C 433.636719 490.65625 440.574219 495.671875 450.488281 498.332031 C 460.421875 501.003906 473.308594 501.335938 486.074219 500.230469 C 498.820312 499.132812 508.960938 497.382812 518.300781 494.335938 C 527.640625 491.300781 533.574219 487.761719 533.398438 484.609375 L 530.527344 432.945312 C 523.898438 431.417969 518 429.441406 513.222656 426.605469 C 503.101562 420.597656 500.300781 399.679688 500.300781 399.679688 C 499.257812 388.25 499.050781 378.855469 499.050781 378.855469 C 499.050781 378.855469 476.734375 386.738281 466.386719 374.308594 C 466.386719 374.308594 467.8125 387.9375 466.839844 399.679688 L 461.429688 399.679688 " fill-opacity="1" fill-rule="evenodd"/><path fill="#b55b1e" d="M 496.648438 455.085938 C 496.664062 455.070312 502.472656 449.515625 510.570312 447.492188 L 511.019531 449.292969 C 503.398438 451.195312 497.933594 456.421875 497.914062 456.4375 Z M 471.160156 455.085938 C 471.144531 455.070312 465.335938 449.515625 457.234375 447.492188 L 456.785156 449.292969 C 464.410156 451.195312 469.875 456.421875 469.890625 456.4375 L 471.160156 455.085938 " fill-opacity="1" fill-rule="evenodd"/><path fill="#f1d8ee" d="M 435.550781 432.640625 C 429.652344 434.066406 423.125 435.109375 416.273438 436.066406 L 412.214844 496.097656 L 405.0625 524.453125 L 405.414062 523.273438 C 405.414062 523.273438 405.414062 546.835938 408.40625 556.691406 C 411.390625 566.554688 410.246094 566.792969 411.390625 577.609375 C 412.546875 588.433594 415.535156 598.050781 415.300781 602.378906 C 415.074219 606.707031 411.621094 614.402344 412.777344 620.890625 C 413.925781 627.386719 413.234375 633.398438 410.015625 639.644531 C 406.789062 645.898438 402.417969 655.511719 402.417969 655.511719 C 402.417969 655.511719 398.964844 665.140625 396.441406 672.113281 C 393.90625 679.085938 389.761719 694.714844 389.761719 694.714844 C 442.628906 700.097656 555.3125 700.097656 574.949219 691.542969 C 574.949219 691.542969 570.863281 679.085938 568.339844 672.113281 C 565.800781 665.140625 562.355469 655.511719 562.355469 655.511719 C 562.355469 655.511719 557.972656 645.898438 554.757812 639.644531 C 551.539062 633.398438 550.84375 627.386719 551.992188 620.890625 C 553.15625 614.402344 549.695312 606.707031 549.46875 602.378906 C 549.242188 598.050781 552.214844 588.433594 553.382812 577.609375 C 554.53125 566.792969 553.382812 566.554688 556.355469 556.691406 C 559.367188 546.835938 559.367188 523.273438 559.367188 523.273438 C 556.566406 515.46875 556.722656 516.71875 552.617188 502.507812 C 551.261719 473.269531 549.121094 465.15625 548.113281 436.003906 C 541.902344 435.144531 535.972656 434.195312 530.527344 432.941406 L 533.398438 484.609375 C 533.574219 487.761719 527.640625 491.300781 518.300781 494.335938 C 508.960938 497.382812 498.820312 499.132812 486.074219 500.230469 C 473.308594 501.335938 460.421875 501.003906 450.488281 498.332031 C 440.574219 495.671875 433.636719 490.65625 432.800781 482.390625 C 432.453125 478.960938 432.488281 473.765625 432.714844 467.890625 C 432.957031 462.015625 433.390625 455.476562 433.878906 449.367188 C 434.226562 445.164062 435.183594 436.097656 435.550781 432.640625 " fill-opacity="1" fill-rule="evenodd"/><path fill="#f2856f" d="M 667.230469 755.308594 C 672.777344 748.335938 678.792969 737.417969 679.042969 722.636719 C 679.511719 694.945312 636.707031 684.644531 636.707031 684.644531 C 595.296875 691.542969 599.890625 707.25 568.132812 714.945312 C 536.417969 722.414062 466.921875 735.464844 452.160156 740.429688 C 437.445312 745.257812 431.582031 753.234375 431.582031 753.234375 C 431.582031 753.234375 459.0625 778.046875 494.109375 777.367188 C 534.84375 776.558594 631.441406 773.027344 667.230469 755.308594 " fill-opacity="1" fill-rule="evenodd"/><g clip-path="url(#e2c0902eb6)"><path fill="#f79581" d="M 295.65625 768.710938 C 310.53125 776.621094 330.902344 782.753906 358.398438 786.234375 C 434.332031 795.851562 507.503906 797.78125 524.53125 799.703125 C 541.554688 801.621094 618.410156 799.703125 629.230469 799.703125 C 640.027344 799.703125 651.316406 794.414062 652.222656 788.402344 C 653.144531 782.394531 652.222656 779.746094 652.222656 779.746094 C 652.222656 779.746094 648.085938 769.878906 644.640625 767.238281 C 641.183594 764.589844 570.078125 774.695312 534.652344 768.6875 C 499.207031 762.671875 472.75 753.292969 472.75 753.292969 C 472.75 753.292969 385.085938 719.152344 358.855469 708.089844 C 332.621094 697.027344 321.578125 694.714844 300.410156 719.152344 C 287.566406 733.972656 290.980469 754.695312 295.65625 768.710938 " fill-opacity="1" fill-rule="evenodd"/></g><path fill="#e3745d" d="M 520.808594 333.441406 C 520.808594 333.441406 524.546875 330.054688 527.730469 332.046875 C 530.910156 334.042969 530.753906 345.675781 525.152344 351.65625 C 519.570312 357.640625 517.085938 354.578125 517.085938 354.578125 C 517.085938 354.578125 519.570312 345.277344 520.808594 333.441406 " fill-opacity="1" fill-rule="evenodd"/><path fill="#e3745d" d="M 466.386719 374.308594 C 466.386719 374.308594 467.726562 387.195312 466.90625 398.703125 C 474.753906 404.246094 484.40625 406.039062 495.398438 401.574219 C 497.117188 400.878906 498.734375 399.976562 500.230469 398.929688 C 499.238281 387.84375 499.050781 378.855469 499.050781 378.855469 C 499.050781 378.855469 476.734375 386.738281 466.386719 374.308594 " fill-opacity="1" fill-rule="evenodd"/><path fill="#f79581" d="M 523.066406 327.613281 C 523.066406 327.613281 521.847656 375.597656 497.292969 385.574219 C 472.734375 395.539062 454.835938 374.273438 448.992188 349.808594 C 443.164062 325.351562 460.941406 309.265625 472.335938 303.679688 C 483.726562 298.101562 497.136719 293.3125 499.152344 291.1875 C 501.167969 289.070312 500.75 289.707031 502.214844 288.195312 C 502.214844 288.195312 523.066406 306.601562 523.066406 327.613281 " fill-opacity="1" fill-rule="evenodd"/><path fill="#a85720" d="M 482.367188 328.226562 C 482.367188 328.25 483.585938 338.449219 477.550781 342.597656 C 469.761719 347.964844 482.925781 354.816406 482.960938 354.835938 L 483.882812 353.167969 C 483.867188 353.152344 473.480469 347.734375 478.664062 344.15625 C 485.640625 339.347656 484.300781 328.074219 484.28125 328.039062 L 482.367188 328.226562 " fill-opacity="1" fill-rule="evenodd"/><path fill="#d75945" d="M 471.1875 361.167969 L 469.691406 360.835938 C 470.472656 368.285156 480.613281 374.019531 488.632812 370.898438 C 493.34375 369.070312 496.039062 364.289062 497.65625 360.429688 C 491.027344 362.257812 477.65625 362.09375 471.1875 361.167969 " fill-opacity="1" fill-rule="nonzero"/><path fill="#1d254a" d="M 432.296875 308.761719 C 421.101562 342.519531 427.53125 358.097656 422.769531 376.609375 C 423.355469 370.640625 423.644531 364.042969 423.492188 356.695312 C 423.023438 334.5625 427.449219 319.035156 432.296875 308.761719 Z M 420.382812 383.871094 C 413.847656 394.136719 406.535156 409.695312 409.773438 424.4375 C 409.996094 422.375 410.414062 420.394531 411 418.574219 C 412.488281 407.28125 416.324219 394.710938 420.382812 383.871094 Z M 409.597656 429.105469 C 403.058594 411.355469 413.226562 391.71875 420.847656 380.488281 C 421.714844 373.550781 422.191406 365.691406 422.003906 356.730469 C 421.375 326.492188 429.808594 308.320312 436.191406 298.984375 C 455.480469 261.382812 518.425781 257.964844 502.996094 286.9375 L 502.996094 286.925781 L 502.960938 287.003906 C 502.875 287.15625 502.804688 287.300781 502.71875 287.453125 C 502.320312 288.132812 501.363281 289.460938 499.1875 291.316406 C 495.9375 294.109375 483.726562 298.101562 472.335938 303.679688 C 460.941406 309.265625 443.164062 325.351562 448.992188 349.808594 C 452 362.417969 458.226562 374.183594 466.90625 381.253906 L 466.90625 381.328125 L 466.925781 381.433594 C 468.4375 412.492188 478.054688 447.160156 442.890625 457.816406 C 435.425781 460.074219 427.429688 457.417969 416.035156 445.988281 C 411.757812 441.691406 409.792969 435.339844 409.597656 429.105469 " fill-opacity="1" fill-rule="evenodd"/><path fill="#ffffff" d="M 473.5 363.414062 C 482.507812 364.953125 489.570312 364.042969 493.222656 363.34375 C 488.511719 371.960938 477.550781 369.953125 473.5 363.414062 " fill-opacity="1" fill-rule="nonzero"/><path fill="#596c98" d="M 493.273438 286.105469 C 493.152344 286.109375 454.261719 288.679688 443.984375 319.613281 C 438.089844 337.378906 441.984375 352.429688 445.933594 367.675781 C 448.90625 379.136719 451.898438 390.710938 450.835938 403.648438 C 449.914062 414.898438 447.707031 423.574219 444.628906 429.703125 C 442.628906 433.691406 440.246094 436.617188 437.582031 438.488281 C 434.90625 440.382812 431.949219 441.203125 428.835938 440.953125 C 426.886719 440.800781 424.878906 440.230469 422.839844 439.242188 L 423.28125 438.378906 C 425.203125 439.304688 427.089844 439.839844 428.902344 439.984375 C 431.792969 440.214844 434.523438 439.457031 437.011719 437.699219 C 439.53125 435.921875 441.808594 433.113281 443.742188 429.277344 C 446.765625 423.25 448.925781 414.703125 449.847656 403.574219 C 450.890625 390.785156 447.933594 379.296875 444.976562 367.910156 C 440.992188 352.53125 437.0625 337.34375 443.046875 319.316406 C 453.515625 287.753906 493.082031 285.140625 493.1875 285.136719 Z M 417.675781 413.4375 C 417.738281 413.421875 436.976562 405.308594 429.808594 362.613281 L 430.785156 362.453125 C 438.070312 405.894531 418.140625 414.304688 418.082031 414.332031 Z M 482.023438 278.421875 C 481.917969 278.433594 447.5 281.179688 436.472656 319.59375 C 430.886719 339.042969 434.574219 358.089844 437.757812 374.558594 C 440.941406 390.902344 443.617188 404.738281 436.402344 414.179688 L 435.601562 413.589844 C 442.558594 404.5 439.914062 390.851562 436.800781 374.746094 C 433.582031 358.167969 429.878906 339.003906 435.515625 319.332031 C 446.730469 280.261719 481.8125 277.464844 481.917969 277.453125 L 482.023438 278.421875 " fill-opacity="1" fill-rule="nonzero"/><path fill="#1d254a" d="M 510.945312 322.320312 C 510.90625 322.308594 500.429688 316.714844 490.789062 322.089844 L 492.832031 325.023438 C 500.445312 320.777344 508.996094 325.320312 509.019531 325.335938 L 510.945312 322.320312 " fill-opacity="1" fill-rule="evenodd"/><path fill="#1d254a" d="M 456.417969 322.320312 C 456.457031 322.308594 467.039062 316.714844 476.761719 322.089844 L 474.679688 325.023438 C 467.003906 320.777344 458.382812 325.320312 458.359375 325.335938 L 456.417969 322.320312 " fill-opacity="1" fill-rule="evenodd"/><path fill="#b55b1e" d="M 252.402344 649.929688 C 251.578125 647.878906 249.3125 642.972656 246.277344 642.460938 C 245.023438 642.257812 243.992188 642.429688 243.207031 642.855469 C 242.777344 643.085938 242.421875 643.390625 242.167969 643.734375 C 241.914062 644.085938 241.742188 644.488281 241.675781 644.910156 C 241.566406 645.574219 241.683594 646.3125 242.074219 647.046875 C 243.804688 650.242188 249.933594 672.308594 249.953125 672.378906 L 248.378906 672.8125 C 248.359375 672.742188 242.289062 650.863281 240.636719 647.820312 C 240.070312 646.75 239.898438 645.648438 240.058594 644.648438 C 240.179688 643.964844 240.445312 643.332031 240.851562 642.777344 C 241.25 642.222656 241.785156 641.757812 242.421875 641.417969 C 243.515625 640.832031 244.917969 640.582031 246.542969 640.855469 C 247.527344 641.019531 248.4375 641.511719 249.253906 642.183594 C 251.03125 640.898438 256.78125 636.417969 257.214844 632.121094 C 257.628906 628.066406 254.933594 629.335938 254.929688 629.335938 L 254.289062 627.828125 C 254.304688 627.828125 259.539062 625.394531 258.839844 632.285156 C 258.355469 637.0625 252.5625 641.761719 250.425781 643.347656 C 252.300781 645.488281 253.554688 648.40625 254.042969 649.664062 C 254.867188 649.621094 255.667969 649.699219 256.296875 649.800781 C 257.359375 649.980469 258.738281 651.855469 260.097656 654.273438 C 262.359375 658.300781 264.792969 664.015625 265.109375 664.875 C 265.335938 665.507812 268.367188 667.945312 270.933594 669.9375 C 268.960938 666.988281 266.792969 663.824219 265.292969 661.808594 C 263.484375 659.367188 263.660156 657.917969 264.851562 657.035156 C 266.066406 656.136719 268.390625 656.144531 270.472656 656.160156 L 271.179688 656.160156 C 273.800781 656.160156 276.539062 659.996094 279.140625 663.660156 C 280.699219 665.84375 282.210938 667.960938 283.488281 668.992188 C 286.371094 671.324219 287.585938 670.023438 287.59375 670.023438 L 288.800781 671.109375 C 288.800781 671.117188 286.539062 673.558594 282.457031 670.265625 C 281.011719 669.09375 279.4375 666.882812 277.816406 664.605469 C 275.449219 661.28125 272.964844 657.796875 271.179688 657.796875 L 270.472656 657.785156 C 268.644531 657.777344 266.605469 657.765625 265.824219 658.347656 C 265.414062 658.652344 265.515625 659.367188 266.605469 660.835938 C 270.101562 665.539062 277.160156 676.386719 277.175781 676.421875 L 275.804688 677.308594 C 275.800781 677.296875 274.914062 675.9375 273.621094 673.976562 L 273.605469 674 C 273.578125 673.980469 264.136719 666.976562 263.578125 665.4375 C 263.269531 664.597656 260.898438 659.035156 258.667969 655.0625 C 257.53125 653.046875 256.507812 651.492188 256.03125 651.417969 C 255.183594 651.269531 253.984375 651.195312 252.996094 651.457031 C 252.605469 651.558594 252.25 651.730469 251.992188 651.960938 C 251.753906 652.179688 251.585938 652.480469 251.519531 652.878906 C 251.449219 653.296875 251.484375 653.824219 251.660156 654.488281 C 253.054688 659.640625 255.371094 664.316406 257.53125 668.695312 C 259.527344 672.742188 261.410156 676.542969 262.375 680.324219 L 260.800781 680.726562 C 259.875 677.128906 258.03125 673.394531 256.070312 669.414062 C 253.863281 664.960938 251.519531 660.207031 250.085938 654.910156 C 249.839844 654.011719 249.796875 653.253906 249.910156 652.613281 C 250.039062 651.824219 250.394531 651.222656 250.886719 650.761719 C 251.320312 650.371094 251.839844 650.105469 252.402344 649.929688 Z M 262.902344 649.84375 C 262.929688 649.867188 271.570312 657.292969 282.542969 653.253906 L 283.113281 654.785156 C 271.238281 659.152344 261.875 651.109375 261.839844 651.082031 L 262.902344 649.84375 " fill-opacity="1" fill-rule="evenodd"/><path fill="#b55b1e" d="M 711.792969 649.359375 C 712.609375 647.308594 714.867188 642.394531 717.910156 641.882812 C 719.148438 641.679688 720.210938 641.851562 720.992188 642.273438 C 721.40625 642.503906 721.773438 642.8125 722.019531 643.160156 C 722.277344 643.507812 722.433594 643.90625 722.523438 644.335938 C 722.625 645.003906 722.507812 645.738281 722.101562 646.464844 C 720.386719 649.664062 714.261719 671.738281 714.242188 671.796875 L 715.808594 672.234375 C 715.828125 672.175781 721.898438 650.292969 723.550781 647.242188 C 724.121094 646.175781 724.292969 645.082031 724.121094 644.070312 C 724.019531 643.390625 723.742188 642.761719 723.339844 642.207031 C 722.9375 641.652344 722.402344 641.1875 721.753906 640.835938 C 720.679688 640.253906 719.269531 640.003906 717.632812 640.277344 C 716.664062 640.4375 715.753906 640.929688 714.9375 641.609375 C 713.148438 640.320312 707.410156 635.847656 706.972656 631.550781 C 706.554688 627.496094 709.253906 628.753906 709.253906 628.765625 L 709.894531 627.257812 C 709.878906 627.25 704.640625 624.828125 705.355469 631.703125 C 705.84375 636.492188 711.636719 641.195312 713.757812 642.765625 C 711.875 644.910156 710.628906 647.828125 710.140625 649.085938 C 709.324219 649.042969 708.519531 649.121094 707.875 649.230469 C 706.832031 649.398438 705.445312 651.28125 704.089844 653.695312 C 701.824219 657.734375 699.390625 663.441406 699.074219 664.304688 C 698.851562 664.925781 695.828125 667.367188 693.25 669.355469 C 695.230469 666.414062 697.394531 663.253906 698.886719 661.230469 C 700.710938 658.789062 700.539062 657.34375 699.339844 656.457031 C 698.117188 655.558594 695.808594 655.570312 693.707031 655.582031 L 693.007812 655.582031 C 690.378906 655.582031 687.652344 659.417969 685.042969 663.082031 C 683.492188 665.265625 681.964844 667.394531 680.710938 668.414062 C 677.804688 670.753906 676.585938 669.449219 676.585938 669.441406 L 675.390625 670.539062 C 675.390625 670.546875 677.648438 672.980469 681.71875 669.691406 C 683.160156 668.523438 684.746094 666.304688 686.378906 664.027344 C 688.746094 660.703125 691.230469 657.222656 693.007812 657.222656 L 693.726562 657.214844 C 695.550781 657.199219 697.578125 657.191406 698.363281 657.765625 C 698.78125 658.074219 698.679688 658.789062 697.578125 660.257812 C 694.082031 664.960938 687.023438 675.8125 687.003906 675.84375 L 688.378906 676.730469 C 688.378906 676.722656 689.269531 675.359375 690.554688 673.394531 L 690.589844 673.433594 C 690.609375 673.40625 700.054688 666.398438 700.605469 664.859375 C 700.917969 664.015625 703.285156 658.457031 705.527344 654.492188 C 706.660156 652.472656 707.667969 650.925781 708.152344 650.839844 C 709.007812 650.703125 710.1875 650.617188 711.179688 650.878906 C 711.582031 650.992188 711.949219 651.152344 712.191406 651.394531 C 712.433594 651.605469 712.609375 651.898438 712.675781 652.300781 C 712.75 652.714844 712.695312 653.253906 712.527344 653.90625 C 711.132812 659.070312 708.816406 663.746094 706.660156 668.125 C 704.65625 672.164062 702.777344 675.972656 701.804688 679.75 L 703.390625 680.148438 C 704.3125 676.550781 706.15625 672.816406 708.121094 668.847656 C 710.316406 664.390625 712.664062 659.640625 714.105469 654.332031 C 714.347656 653.441406 714.382812 652.671875 714.277344 652.035156 C 714.140625 651.246094 713.792969 650.644531 713.304688 650.183594 C 712.867188 649.792969 712.34375 649.527344 711.792969 649.359375 Z M 701.285156 649.273438 C 701.265625 649.292969 692.625 656.722656 681.636719 652.671875 L 681.078125 654.214844 C 692.957031 658.585938 702.308594 650.53125 702.347656 650.515625 L 701.285156 649.273438 " fill-opacity="1" fill-rule="evenodd"/><path fill="#b55b1e" d="M 352.835938 590.746094 C 352.859375 590.746094 361.492188 590.875 371.207031 601.09375 L 370.023438 602.226562 C 360.777344 592.488281 352.828125 592.378906 352.800781 592.378906 L 352.835938 590.746094 " fill-opacity="1" fill-rule="evenodd"/><path fill="#b55b1e" d="M 611.890625 590.746094 C 611.851562 590.746094 603.230469 590.875 593.507812 601.09375 L 594.6875 602.226562 C 603.9375 592.488281 611.890625 592.378906 611.925781 592.378906 L 611.890625 590.746094 " fill-opacity="1" fill-rule="evenodd"/><path fill="#c33c2f" d="M 494.28125 725.164062 C 494.40625 725.105469 535.605469 703.949219 572.027344 704.792969 L 571.992188 706.96875 C 536.09375 706.140625 495.378906 727.042969 495.257812 727.101562 Z M 477.308594 726.195312 C 477.414062 726.101562 508.789062 695.648438 558.320312 699.222656 L 558.164062 701.398438 C 509.589844 697.894531 478.90625 727.671875 478.820312 727.757812 Z M 424.570312 703.105469 C 424.640625 703.105469 446.417969 703.300781 457.375 720.453125 L 455.550781 721.617188 C 445.21875 705.472656 424.589844 705.285156 424.53125 705.285156 Z M 393.691406 707.503906 C 393.792969 707.503906 428.46875 706.832031 457.742188 731.515625 L 456.335938 733.183594 C 427.6875 709.015625 393.828125 709.671875 393.726562 709.671875 L 393.691406 707.503906 " fill-opacity="1" fill-rule="nonzero"/><path fill="#e1bae1" d="M 408.867188 558.253906 C 411.273438 566.605469 410.308594 567.394531 411.390625 577.609375 C 412.171875 584.972656 413.8125 591.777344 414.707031 596.742188 C 416.960938 597.140625 419.5625 597.089844 422.574219 596.488281 C 450.992188 590.746094 463.464844 590.746094 492.316406 591.5625 C 513.363281 592.15625 535.136719 602.515625 549.75 604.464844 C 549.605469 603.703125 549.503906 603.007812 549.46875 602.378906 C 549.242188 598.050781 552.214844 588.433594 553.382812 577.609375 C 554.023438 571.496094 553.941406 568.765625 554.285156 565.761719 C 546.6875 567.53125 536.339844 568.289062 523.34375 565.53125 C 492.824219 559.0625 494.40625 558.253906 472.054688 558.253906 L 408.867188 558.253906 " fill-opacity="1" fill-rule="nonzero"/><path fill="#b687c8" d="M 545.519531 640.898438 C 545.363281 640.957031 492.925781 660.226562 443.304688 646.6875 L 443.742188 645.113281 C 492.839844 658.515625 544.804688 639.417969 544.964844 639.367188 Z M 431.898438 601.46875 C 432.035156 601.515625 480.371094 621.375 533.972656 608.558594 L 534.355469 610.148438 C 480.230469 623.085938 431.429688 603.03125 431.289062 602.984375 Z M 418.023438 669.910156 C 418.140625 669.960938 456.574219 688.8125 534.078125 679.339844 L 534.269531 680.964844 C 456.28125 690.496094 417.4375 671.441406 417.328125 671.390625 L 418.023438 669.910156 " fill-opacity="1" fill-rule="nonzero"/><path fill="#1e3048" d="M 491.996094 331.570312 C 492.019531 331.585938 499.917969 337.621094 509.882812 331.515625 L 510.828125 333.0625 C 499.804688 339.8125 490.921875 333.027344 490.898438 333.007812 L 491.996094 331.570312 " fill-opacity="1" fill-rule="nonzero"/><path fill="#1e3048" d="M 475.175781 331.570312 C 475.152344 331.585938 467.253906 337.621094 457.289062 331.515625 L 456.347656 333.0625 C 467.367188 339.8125 476.25 333.027344 476.273438 333.007812 L 475.175781 331.570312 " fill-opacity="1" fill-rule="nonzero"/><path fill="#fad5d8" d="M 597.300781 398.503906 C 597.300781 398.503906 600.300781 403.144531 608.214844 399.890625 C 616.125 396.640625 611.945312 388.886719 610.058594 387.265625 C 608.171875 385.640625 605.855469 385.023438 605.855469 385.023438 C 605.855469 385.023438 618.199219 377.433594 610.175781 370.015625 C 602.15625 362.597656 593.824219 371.335938 593.824219 371.335938 C 593.824219 371.335938 586.703125 359.917969 576.550781 367.691406 C 566.394531 375.464844 579.589844 384.5 579.589844 384.5 C 579.589844 384.5 571.878906 389.121094 576.34375 399.074219 C 580.808594 409.03125 595.761719 405.773438 597.300781 398.503906 " fill-opacity="1" fill-rule="evenodd"/><path fill="#f29dbc" d="M 587.835938 384.78125 C 586.707031 379.121094 594.695312 379.167969 595.96875 382.789062 C 598.617188 390.300781 589.058594 390.898438 587.835938 384.78125 " fill-opacity="1" fill-rule="evenodd"/><path fill="#ffffff" d="M 582.617188 397.148438 C 582.617188 397.148438 581.082031 397.339844 581.523438 396.296875 C 581.960938 395.253906 587.292969 390.117188 587.613281 390.121094 C 587.929688 390.125 588.59375 390.941406 587.558594 391.667969 C 586.527344 392.390625 582.617188 397.148438 582.617188 397.148438 Z M 578.628906 392.445312 C 578.628906 392.445312 584.964844 389.695312 585.351562 388.996094 C 585.734375 388.300781 583.949219 388.703125 581.820312 389.777344 C 579.695312 390.851562 575.847656 392.222656 578.628906 392.445312 Z M 591.175781 393.109375 C 591.019531 393.390625 587.953125 399.933594 587.011719 400.160156 C 586.074219 400.390625 586.992188 399.039062 587.878906 397.511719 C 588.765625 395.988281 590.3125 392.28125 591 392.265625 C 591.6875 392.246094 591.175781 393.109375 591.175781 393.109375 " fill-opacity="1" fill-rule="evenodd"/><path fill="#ffffff" d="M 604.136719 373.339844 C 604.136719 373.339844 605.667969 373.148438 605.230469 374.191406 C 604.792969 375.234375 599.460938 380.375 599.140625 380.371094 C 598.824219 380.363281 598.164062 379.546875 599.195312 378.820312 C 600.226562 378.097656 604.136719 373.339844 604.136719 373.339844 Z M 608.125 378.042969 C 608.125 378.042969 601.789062 380.792969 601.40625 381.492188 C 601.015625 382.1875 602.804688 381.785156 604.929688 380.710938 C 607.0625 379.636719 610.902344 378.261719 608.125 378.042969 Z M 595.578125 377.378906 C 595.734375 377.101562 598.796875 370.558594 599.738281 370.328125 C 600.679688 370.097656 599.761719 371.453125 598.875 372.976562 C 597.988281 374.5 596.4375 378.207031 595.753906 378.222656 C 595.070312 378.242188 595.578125 377.378906 595.578125 377.378906 " fill-opacity="1" fill-rule="evenodd"/><path fill="#ffffff" d="M 605.109375 392.617188 C 605.109375 392.617188 605.691406 393.871094 604.683594 393.785156 C 603.667969 393.695312 597.8125 390.554688 597.730469 390.28125 C 597.648438 390.007812 598.160156 389.21875 599.0625 389.902344 C 599.964844 390.585938 605.109375 392.617188 605.109375 392.617188 Z M 602.183594 397.316406 C 602.183594 397.316406 598.09375 392.660156 597.390625 392.523438 C 596.691406 392.386719 597.527344 393.800781 599.027344 395.324219 C 600.53125 396.84375 602.761719 399.753906 602.183594 397.316406 Z M 599.304688 386.417969 C 599.585938 386.472656 606.015625 387.289062 606.472656 388.035156 C 606.929688 388.773438 605.519531 388.355469 603.96875 388.019531 C 602.425781 387.683594 598.832031 387.378906 598.628906 386.796875 C 598.425781 386.21875 599.304688 386.417969 599.304688 386.417969 " fill-opacity="1" fill-rule="evenodd"/><path fill="#ffffff" d="M 580.175781 372.71875 C 580.175781 372.71875 578.710938 372.710938 579.246094 373.644531 C 579.777344 374.578125 585.394531 378.808594 585.691406 378.769531 C 585.992188 378.726562 586.523438 377.882812 585.464844 377.316406 C 584.410156 376.753906 580.175781 372.71875 580.175781 372.71875 Z M 576.957031 377.609375 C 576.957031 377.609375 583.246094 379.472656 583.691406 380.085938 C 584.136719 380.699219 582.402344 380.523438 580.273438 379.757812 C 578.148438 378.992188 574.359375 378.136719 576.957031 377.609375 Z M 588.707031 375.539062 C 588.53125 375.296875 584.890625 369.480469 583.976562 369.371094 C 583.0625 369.265625 584.089844 370.4375 585.097656 371.769531 C 586.109375 373.105469 587.996094 376.421875 588.640625 376.359375 C 589.289062 376.296875 588.707031 375.539062 588.707031 375.539062 " fill-opacity="1" fill-rule="evenodd"/><path fill="#f1d8ee" d="M 746.722656 420.746094 C 746.722656 420.746094 742.035156 411.105469 730.121094 416.0625 C 718.199219 421.015625 720.609375 431.589844 722.085938 434.265625 C 723.558594 436.949219 726.234375 437.214844 726.234375 437.214844 C 726.234375 437.214844 718.066406 444.84375 725.832031 450.867188 C 733.601562 456.894531 740.832031 447.523438 740.832031 447.523438 C 740.832031 447.523438 741.769531 457.964844 754.625 452.34375 C 767.476562 446.71875 756.5 437.882812 756.5 437.882812 C 756.5 437.882812 763.597656 436.945312 761.988281 426.773438 C 760.378906 416.59375 749.53125 416.59375 746.722656 420.746094 " fill-opacity="1" fill-rule="evenodd"/><path fill="#f29dbc" d="M 745.460938 430.84375 C 751.148438 434.277344 745.851562 438.691406 742.710938 439.277344 C 732.066406 441.273438 735.308594 424.71875 745.460938 430.84375 " fill-opacity="1" fill-rule="evenodd"/><path fill="#f1d8ee" d="M 829.078125 521.460938 C 829.078125 521.460938 821.804688 527.011719 827.960938 536.148438 C 834.125 545.285156 842.566406 541.480469 844.5625 539.796875 C 846.554688 538.109375 846.328125 535.824219 846.328125 535.824219 C 846.328125 535.824219 854.097656 541.371094 857.824219 533.855469 C 861.5625 526.335938 852.492188 521.871094 852.492188 521.871094 C 852.492188 521.871094 861.074219 519.324219 854.199219 509.515625 C 847.316406 499.707031 841.773438 510.386719 841.773438 510.386719 C 841.773438 510.386719 839.792969 504.605469 831.550781 507.671875 C 823.304688 510.734375 825.136719 519.8125 829.078125 521.460938 " fill-opacity="1" fill-rule="evenodd"/><path fill="#f29dbc" d="M 837.75 520.8125 C 839.660156 515.472656 844.25 519.160156 845.277344 521.6875 C 848.742188 530.261719 834.332031 530.34375 837.75 520.8125 " fill-opacity="1" fill-rule="evenodd"/><path fill="#f1d8ee" d="M 386.382812 291.890625 C 386.382812 291.890625 381.699219 282.253906 369.777344 287.207031 C 357.859375 292.160156 360.269531 302.734375 361.742188 305.414062 C 363.214844 308.09375 365.894531 308.359375 365.894531 308.359375 C 365.894531 308.359375 357.726562 315.992188 365.492188 322.015625 C 373.261719 328.039062 380.488281 318.667969 380.488281 318.667969 C 380.488281 318.667969 381.429688 329.113281 394.285156 323.488281 C 407.136719 317.863281 396.160156 309.03125 396.160156 309.03125 C 396.160156 309.03125 403.253906 308.09375 401.648438 297.917969 C 400.039062 287.742188 389.195312 287.742188 386.382812 291.890625 " fill-opacity="1" fill-rule="evenodd"/><path fill="#f29dbc" d="M 385.121094 301.992188 C 390.808594 305.421875 385.515625 309.835938 382.375 310.425781 C 371.726562 312.417969 374.96875 295.867188 385.121094 301.992188 " fill-opacity="1" fill-rule="evenodd"/><path fill="#f1d8ee" d="M 114.070312 505.964844 C 114.070312 505.964844 107.964844 510.625 113.132812 518.292969 C 118.304688 525.964844 125.394531 522.773438 127.070312 521.355469 C 128.742188 519.941406 128.546875 518.019531 128.546875 518.019531 C 128.546875 518.019531 135.070312 522.679688 138.203125 516.367188 C 141.335938 510.058594 133.726562 506.308594 133.726562 506.308594 C 133.726562 506.308594 140.929688 504.167969 135.15625 495.933594 C 129.382812 487.699219 124.730469 496.667969 124.730469 496.667969 C 124.730469 496.667969 123.066406 491.8125 116.140625 494.386719 C 109.21875 496.957031 110.757812 504.574219 114.070312 505.964844 " fill-opacity="1" fill-rule="evenodd"/><path fill="#f29dbc" d="M 121.347656 505.417969 C 122.953125 500.9375 126.804688 504.03125 127.664062 506.152344 C 130.574219 513.347656 118.484375 513.417969 121.347656 505.417969 " fill-opacity="1" fill-rule="evenodd"/><path fill="#fad5d8" d="M 282.078125 374.183594 C 282.078125 374.183594 287.585938 372.894531 287.183594 364.148438 C 286.78125 355.40625 277.867188 356.753906 275.648438 358.011719 C 273.433594 359.269531 272.039062 361.289062 272.039062 361.289062 C 272.039062 361.289062 268.984375 346.773438 259.066406 351.941406 C 249.144531 357.113281 254.691406 368.15625 254.691406 368.15625 C 254.691406 368.15625 241.230469 371.074219 245.21875 383.539062 C 249.203125 396.007812 262.46875 386.414062 262.46875 386.414062 C 262.46875 386.414062 264.257812 395.441406 275.398438 394.574219 C 286.535156 393.707031 288.554688 378.175781 282.078125 374.183594 " fill-opacity="1" fill-rule="evenodd"/><path fill="#f29dbc" d="M 265.585938 378.5625 C 259.738281 377.699219 262.542969 370.019531 266.472656 370.039062 C 274.628906 370.082031 271.902344 379.5 265.585938 378.5625 " fill-opacity="1" fill-rule="evenodd"/><path fill="#ffffff" d="M 275.707031 387.863281 C 275.707031 387.863281 275.363281 389.40625 274.507812 388.625 C 273.652344 387.839844 270.542969 380.929688 270.65625 380.625 C 270.769531 380.320312 271.785156 379.964844 272.125 381.207031 C 272.46875 382.457031 275.707031 387.863281 275.707031 387.863281 Z M 269.796875 390.082031 C 269.796875 390.082031 269.332031 383.027344 268.792969 382.417969 C 268.253906 381.804688 268.027344 383.667969 268.328125 386.085938 C 268.628906 388.503906 268.621094 392.6875 269.796875 390.082031 Z M 274.769531 378.222656 C 274.984375 378.46875 280.230469 383.679688 280.128906 384.664062 C 280.023438 385.652344 279.035156 384.296875 277.875 382.917969 C 276.710938 381.539062 273.671875 378.765625 273.894531 378.097656 C 274.109375 377.433594 274.769531 378.222656 274.769531 378.222656 " fill-opacity="1" fill-rule="evenodd"/><path fill="#ffffff" d="M 260.183594 358.910156 C 260.183594 358.910156 260.527344 357.367188 261.382812 358.152344 C 262.238281 358.933594 265.351562 365.84375 265.234375 366.148438 C 265.121094 366.453125 264.105469 366.808594 263.761719 365.5625 C 263.421875 364.320312 260.183594 358.910156 260.183594 358.910156 Z M 266.09375 356.691406 C 266.09375 356.691406 266.5625 363.742188 267.097656 364.355469 C 267.636719 364.96875 267.863281 363.109375 267.566406 360.6875 C 267.265625 358.269531 267.269531 354.085938 266.09375 356.691406 Z M 261.125 368.550781 C 260.90625 368.304688 255.660156 363.09375 255.761719 362.105469 C 255.867188 361.121094 256.855469 362.476562 258.019531 363.855469 C 259.179688 365.234375 262.21875 368.007812 262 368.671875 C 261.78125 369.339844 261.125 368.550781 261.125 368.550781 " fill-opacity="1" fill-rule="evenodd"/><path fill="#ffffff" d="M 279.101562 364.628906 C 279.101562 364.628906 280.511719 364.5 280.078125 365.441406 C 279.644531 366.386719 274.597656 370.945312 274.304688 370.933594 C 274.011719 370.917969 273.425781 370.148438 274.398438 369.515625 C 275.367188 368.878906 279.101562 364.628906 279.101562 364.628906 Z M 282.621094 369.066406 C 282.621094 369.066406 276.722656 371.402344 276.347656 372.03125 C 275.972656 372.660156 277.625 372.34375 279.613281 371.421875 C 281.59375 370.5 285.167969 369.351562 282.621094 369.066406 Z M 271.121094 368.082031 C 271.269531 367.828125 274.28125 361.914062 275.152344 361.730469 C 276.023438 361.550781 275.136719 362.765625 274.277344 364.136719 C 273.417969 365.511719 271.886719 368.867188 271.257812 368.863281 C 270.628906 368.859375 271.121094 368.082031 271.121094 368.082031 " fill-opacity="1" fill-rule="evenodd"/><path fill="#ffffff" d="M 251.316406 381.78125 C 251.316406 381.78125 250.804688 383.191406 251.886719 383 C 252.96875 382.808594 258.988281 378.855469 259.050781 378.554688 C 259.117188 378.25 258.484375 377.445312 257.574219 378.273438 C 256.667969 379.097656 251.316406 381.78125 251.316406 381.78125 Z M 254.917969 386.570312 C 254.917969 386.570312 258.886719 381.15625 259.632812 380.9375 C 260.375 380.722656 259.609375 382.328125 258.136719 384.113281 C 256.660156 385.902344 254.53125 389.253906 254.917969 386.570312 Z M 256.980469 374.535156 C 256.683594 374.621094 249.820312 376.121094 249.40625 376.964844 C 248.980469 377.808594 250.46875 377.226562 252.097656 376.714844 C 253.738281 376.199219 257.582031 375.527344 257.746094 374.882812 C 257.910156 374.238281 256.980469 374.535156 256.980469 374.535156 " fill-opacity="1" fill-rule="evenodd"/><path fill="#fad5d8" d="M 180.429688 431.757812 C 180.429688 431.757812 185.941406 430.464844 185.535156 421.722656 C 185.132812 412.980469 176.21875 414.324219 174.003906 415.582031 C 171.785156 416.84375 170.390625 418.859375 170.390625 418.859375 C 170.390625 418.859375 167.339844 404.34375 157.417969 409.515625 C 147.496094 414.683594 153.042969 425.730469 153.042969 425.730469 C 153.042969 425.730469 139.582031 428.644531 143.570312 441.113281 C 147.558594 453.578125 160.824219 443.988281 160.824219 443.988281 C 160.824219 443.988281 162.613281 453.015625 173.75 452.148438 C 184.886719 451.277344 186.90625 435.746094 180.429688 431.757812 " fill-opacity="1" fill-rule="evenodd"/><path fill="#f29dbc" d="M 163.9375 436.136719 C 158.089844 435.273438 160.894531 427.59375 164.828125 427.613281 C 172.980469 427.65625 170.257812 437.070312 163.9375 436.136719 " fill-opacity="1" fill-rule="evenodd"/><path fill="#ffffff" d="M 174.058594 445.4375 C 174.058594 445.4375 173.714844 446.976562 172.859375 446.195312 C 172.007812 445.414062 168.890625 438.503906 169.007812 438.199219 C 169.125 437.890625 170.136719 437.535156 170.480469 438.78125 C 170.820312 440.027344 174.058594 445.4375 174.058594 445.4375 Z M 168.148438 447.65625 C 168.148438 447.65625 167.6875 440.601562 167.144531 439.988281 C 166.605469 439.378906 166.378906 441.238281 166.679688 443.660156 C 166.976562 446.078125 166.976562 450.257812 168.148438 447.65625 Z M 173.117188 435.796875 C 173.335938 436.042969 178.585938 441.253906 178.480469 442.242188 C 178.375 443.226562 177.386719 441.871094 176.226562 440.492188 C 175.0625 439.109375 172.023438 436.339844 172.242188 435.671875 C 172.464844 435.007812 173.117188 435.796875 173.117188 435.796875 " fill-opacity="1" fill-rule="evenodd"/><path fill="#ffffff" d="M 158.539062 416.484375 C 158.539062 416.484375 158.878906 414.941406 159.738281 415.722656 C 160.589844 416.503906 163.703125 423.414062 163.589844 423.722656 C 163.472656 424.023438 162.457031 424.382812 162.113281 423.136719 C 161.773438 421.890625 158.539062 416.484375 158.539062 416.484375 Z M 164.445312 414.265625 C 164.445312 414.265625 164.910156 421.320312 165.449219 421.929688 C 165.988281 422.542969 166.21875 420.679688 165.917969 418.261719 C 165.617188 415.84375 165.621094 411.660156 164.445312 414.265625 Z M 159.476562 426.125 C 159.261719 425.878906 154.011719 420.664062 154.117188 419.679688 C 154.21875 418.695312 155.207031 420.046875 156.371094 421.429688 C 157.535156 422.808594 160.570312 425.582031 160.355469 426.246094 C 160.132812 426.914062 159.476562 426.125 159.476562 426.125 " fill-opacity="1" fill-rule="evenodd"/><path fill="#ffffff" d="M 177.453125 422.199219 C 177.453125 422.199219 178.867188 422.070312 178.429688 423.015625 C 177.996094 423.960938 172.949219 428.519531 172.65625 428.507812 C 172.363281 428.492188 171.777344 427.722656 172.75 427.089844 C 173.722656 426.453125 177.453125 422.199219 177.453125 422.199219 Z M 180.972656 426.636719 C 180.972656 426.636719 175.074219 428.976562 174.699219 429.605469 C 174.324219 430.234375 175.976562 429.917969 177.960938 428.996094 C 179.945312 428.074219 183.523438 426.925781 180.972656 426.636719 Z M 169.472656 425.65625 C 169.625 425.402344 172.632812 419.484375 173.503906 419.304688 C 174.375 419.121094 173.488281 420.339844 172.628906 421.710938 C 171.769531 423.082031 170.238281 426.441406 169.609375 426.4375 C 168.980469 426.429688 169.472656 425.65625 169.472656 425.65625 " fill-opacity="1" fill-rule="evenodd"/><path fill="#ffffff" d="M 149.667969 439.355469 C 149.667969 439.355469 149.15625 440.765625 150.242188 440.570312 C 151.324219 440.378906 157.339844 436.429688 157.40625 436.128906 C 157.46875 435.824219 156.835938 435.023438 155.925781 435.84375 C 155.015625 436.667969 149.667969 439.355469 149.667969 439.355469 Z M 153.273438 444.140625 C 153.273438 444.140625 157.238281 438.726562 157.980469 438.511719 C 158.726562 438.296875 157.960938 439.90625 156.488281 441.6875 C 155.015625 443.472656 152.886719 446.824219 153.273438 444.140625 Z M 155.332031 432.109375 C 155.039062 432.195312 148.171875 433.695312 147.753906 434.539062 C 147.335938 435.382812 148.816406 434.800781 150.453125 434.285156 C 152.089844 433.773438 155.9375 433.101562 156.097656 432.453125 C 156.261719 431.808594 155.332031 432.109375 155.332031 432.109375 " fill-opacity="1" fill-rule="evenodd"/><path fill="#f1d8ee" d="M 657.964844 336.503906 C 657.964844 336.503906 654.867188 330.125 646.976562 333.402344 C 639.09375 336.683594 640.683594 343.679688 641.660156 345.453125 C 642.632812 347.222656 644.40625 347.402344 644.40625 347.402344 C 644.40625 347.402344 639 352.453125 644.140625 356.4375 C 649.28125 360.425781 654.066406 354.222656 654.066406 354.222656 C 654.066406 354.222656 654.6875 361.132812 663.195312 357.414062 C 671.703125 353.691406 664.433594 347.847656 664.433594 347.847656 C 664.433594 347.847656 669.132812 347.222656 668.066406 340.492188 C 667.003906 333.757812 659.824219 333.757812 657.964844 336.503906 " fill-opacity="1" fill-rule="evenodd"/><path fill="#f29dbc" d="M 657.128906 343.1875 C 660.894531 345.457031 657.386719 348.378906 655.308594 348.769531 C 648.265625 350.089844 650.410156 339.132812 657.128906 343.1875 " fill-opacity="1" fill-rule="evenodd"/></svg>