<svg xmlns="http://www.w3.org/2000/svg" xmlns:xlink="http://www.w3.org/1999/xlink" width="1366" zoomAndPan="magnify" viewBox="0 0 1024.5 576" height="768" preserveAspectRatio="xMidYMid meet" version="1.0"><defs><clipPath id="7272477cac"><path d="M 219 0.140625 L 807 0.140625 L 807 437 L 219 437 Z M 219 0.140625 " clip-rule="nonzero"/></clipPath><clipPath id="0655a96834"><path d="M 422.222656 372.175781 L 566.988281 372.175781 L 566.988281 575.828125 L 422.222656 575.828125 Z M 422.222656 372.175781 " clip-rule="nonzero"/></clipPath></defs><g clip-path="url(#7272477cac)"><path fill="#dae3f5" d="M 803.554688 230.679688 C 803.417969 229.65625 803.28125 228.644531 803.144531 227.632812 C 790.019531 132.5625 733.453125 41.863281 638.570312 16.089844 C 599.007812 5.339844 556.886719 0.648438 516.019531 0.441406 C 453.128906 0.125 374.828125 9.210938 321.746094 45.589844 C 274.515625 77.960938 246.507812 125.5625 229.632812 181.007812 C 214.71875 230.019531 217.136719 292.476562 227.089844 342.933594 C 235.175781 383.921875 278.269531 410.535156 313.617188 423.0625 C 320.796875 425.609375 328.070312 427.855469 335.382812 429.953125 C 335.230469 431.847656 336.300781 433.734375 338.640625 433.488281 C 346.96875 432.613281 354.890625 433.828125 362.53125 436.265625 C 362.039062 429.707031 363.480469 422.996094 366.898438 417.429688 C 368.074219 415.507812 371.011719 412.128906 371.582031 411.367188 C 372.257812 410.464844 372.550781 408.753906 371.988281 410.652344 C 372.25 409.773438 372.457031 408.851562 372.613281 407.9375 C 372.566406 407.910156 372.664062 406.46875 372.671875 406.136719 C 372.707031 404.820312 372.726562 403.503906 372.707031 402.183594 C 372.664062 399.484375 372.484375 396.785156 372.257812 394.097656 C 372.152344 392.847656 372.035156 391.597656 371.90625 390.351562 C 371.183594 388.558594 370.773438 386.566406 370.773438 384.371094 L 370.773438 379.636719 C 370.773438 371.683594 376.558594 364.847656 383.929688 363.433594 C 388.210938 362.304688 393.011719 362.835938 396.617188 364.929688 C 396.957031 365.128906 399.390625 364.234375 399.4375 364.214844 C 399.25 364.304688 400.527344 363.445312 400.855469 363.300781 C 401.109375 363.050781 401.355469 362.804688 401.597656 362.542969 C 401.582031 362.488281 401.839844 362.058594 402.371094 361.238281 C 403.136719 359.816406 403.835938 358.363281 404.527344 356.898438 C 408.625 348.195312 413.695312 340.984375 419.972656 333.78125 C 422.625 330.734375 424.515625 328.816406 426.273438 325.566406 C 426.738281 324.707031 427.339844 321.933594 427.476562 322.613281 C 427.464844 321.628906 427.429688 320.648438 427.398438 319.671875 C 427.007812 307.46875 429.847656 298.140625 441.582031 293.230469 C 446.90625 291.003906 452.871094 293.363281 456.902344 297.476562 C 463.261719 298.15625 468.652344 302.949219 470.832031 309.480469 C 472.824219 315.457031 475.203125 321.273438 477.625 327.070312 C 482.066406 319.933594 488.648438 314.132812 496.371094 309.726562 C 510.53125 301.644531 527.171875 298.507812 543.21875 300.25 C 560.277344 302.101562 575.164062 310.148438 588.804688 320.496094 C 614.691406 340.128906 645.59375 364.082031 654.519531 397.527344 C 655.105469 399.730469 657.066406 400.359375 658.726562 399.886719 C 682.976562 402.714844 708.351562 404.507812 732.640625 401.332031 C 753.179688 398.65625 770.214844 389.261719 781.785156 371.246094 C 806.707031 332.4375 809.460938 275.390625 803.554688 230.679688 " fill-opacity="1" fill-rule="nonzero"/></g><path fill="#59242e" d="M 384.949219 377.152344 C 384.394531 375.585938 383.167969 372.125 381.148438 371.964844 C 379.175781 371.8125 379.039062 374.464844 379.191406 375.792969 C 379.539062 378.726562 381.597656 383.832031 384.09375 383.808594 C 384.617188 383.800781 385.703125 379.285156 384.949219 377.152344 " fill-opacity="1" fill-rule="nonzero"/><path fill="#a34c3c" d="M 532.019531 217.210938 C 530.457031 198.597656 530.566406 176.640625 522.746094 165.980469 C 522.199219 165.238281 495.621094 156.097656 484.703125 160.683594 C 473.292969 165.472656 464.710938 170.46875 462.285156 182.242188 C 458.648438 199.882812 459.097656 221.773438 455.691406 238.5625 C 454.039062 246.722656 451.292969 254.617188 449.683594 262.773438 C 448.253906 270.046875 448.601562 277.339844 449.175781 284.671875 C 447.496094 284.671875 447.523438 287.3125 449.253906 287.40625 C 457.867188 287.890625 466.199219 285.035156 474.878906 285.597656 C 483.351562 286.140625 491.113281 289.585938 499.472656 290.625 C 511.128906 292.074219 530.195312 291.882812 538.289062 281.761719 C 538.890625 281.601562 539.425781 281.195312 539.515625 280.46875 C 542.195312 259.0625 533.796875 238.363281 532.019531 217.210938 " fill-opacity="1" fill-rule="nonzero"/><path fill="#fa9b75" d="M 524.28125 254.9375 C 518.050781 250.25 511.359375 247.082031 510.304688 238.648438 C 509.429688 231.625 510.296875 223.917969 510.292969 216.828125 C 510.292969 216.109375 509.832031 215.699219 509.289062 215.566406 C 509.199219 215.460938 509.101562 215.363281 508.972656 215.277344 C 508.628906 215.050781 508.28125 214.824219 507.9375 214.59375 C 507.71875 214.292969 507.378906 214.078125 506.890625 214.078125 C 506.484375 214.078125 506.183594 214.230469 505.964844 214.457031 C 505.925781 214.449219 505.898438 214.4375 505.859375 214.433594 C 497.996094 213.722656 490.425781 214.8125 483.085938 217.714844 C 482.457031 217.964844 482.183594 218.511719 482.171875 219.058594 C 481.753906 219.238281 481.453125 219.621094 481.53125 220.238281 C 482.308594 226.453125 484.023438 234.816406 482.109375 240.921875 C 479.578125 248.980469 469.046875 251.683594 461.882812 253.542969 C 460.917969 253.792969 460.746094 254.734375 461.070312 255.4375 C 461.042969 255.886719 461.214844 256.347656 461.691406 256.664062 C 470.707031 262.65625 484.847656 263.273438 495.386719 263.824219 C 503.597656 264.253906 517.496094 266.144531 523.34375 258.6875 C 523.625 258.335938 523.699219 257.941406 523.644531 257.574219 C 524.710938 257.546875 525.421875 255.796875 524.28125 254.9375 " fill-opacity="1" fill-rule="nonzero"/><path fill="#fa9b75" d="M 517.695312 176.679688 C 515.910156 169.738281 511.390625 163.367188 505.324219 159.515625 C 495.527344 153.296875 479.703125 157.0625 475.15625 165.929688 C 473.085938 169.964844 471.820312 174.394531 471.203125 178.863281 C 470.125 186.664062 470.925781 194.84375 472.328125 202.691406 C 473.539062 209.476562 474.066406 218.4375 479.703125 223.234375 C 485.394531 228.078125 500.429688 228.320312 506.976562 225.453125 C 514.136719 222.316406 515.679688 213.191406 516.683594 206.332031 C 518.117188 196.507812 520.226562 186.515625 517.695312 176.679688 " fill-opacity="1" fill-rule="nonzero"/><path fill="#59242e" d="M 591.152344 334.265625 C 588.988281 329.027344 585.972656 324.078125 583.777344 318.878906 C 580.25 310.535156 574.253906 296.917969 570.65625 288.449219 C 567.40625 280.808594 564.769531 272.824219 559.667969 266.199219 C 558.320312 264.449219 555.105469 262.9375 554.886719 263.253906 C 554.753906 262.808594 554.179688 262.488281 553.753906 262.921875 C 544.320312 272.53125 539.410156 286.175781 540.949219 299.605469 C 541.796875 307.015625 544.664062 313.960938 547.816406 320.65625 C 551.390625 328.242188 557.699219 340.566406 562.007812 347.765625 C 571.578125 363.75 598.875 363.585938 593.046875 339.9375 C 592.570312 337.996094 591.914062 336.113281 591.152344 334.265625 " fill-opacity="1" fill-rule="nonzero"/><path fill="#59242e" d="M 566.347656 282.464844 C 564.613281 273.683594 561.050781 264.648438 552.640625 260.328125 C 546.226562 257.03125 538.34375 256.519531 531.4375 254.660156 C 527.320312 253.550781 522.507812 252.574219 518.757812 250.46875 C 512.929688 247.195312 511.96875 241.816406 510.984375 235.675781 C 510.917969 235.261719 510.78125 233.359375 509.988281 233.5625 C 497.578125 236.746094 482.824219 232.980469 482.585938 234.570312 C 481.386719 242.441406 478.746094 245.007812 476.691406 246.570312 C 472.128906 250.042969 466.195312 251.402344 460.839844 253.140625 C 454.210938 255.296875 447.292969 257.132812 441.050781 260.304688 C 428.816406 266.519531 421.183594 292.53125 421.96875 292.597656 C 421.363281 292.917969 430.265625 301.851562 437.660156 307.347656 C 440.472656 309.433594 442.128906 312.710938 442.253906 316.210938 C 442.898438 333.804688 449.558594 348.03125 452.019531 369.449219 C 452.113281 370.285156 452.519531 381.191406 452.507812 381.503906 C 452.386719 384.6875 456.3125 385.152344 458.6875 385.652344 C 463.4375 386.644531 468.230469 387.441406 473.046875 388.042969 C 484.070312 389.421875 495.222656 389.753906 506.3125 389.046875 C 511.375 388.722656 516.421875 388.183594 521.4375 387.425781 C 524.023438 387.039062 526.597656 386.59375 529.164062 386.089844 C 531.558594 385.617188 534.589844 385.375 536.792969 384.320312 C 539.632812 382.96875 539.058594 369.574219 539.035156 365.714844 C 539.027344 364.796875 539.132812 363.890625 539.34375 362.996094 C 540.765625 356.957031 542.578125 347.242188 543.570312 341.371094 C 545.359375 330.785156 545.925781 323.550781 546.453125 312.84375 C 546.460938 312.714844 568.121094 296.59375 568.144531 296.1875 C 568.402344 291.855469 567.179688 286.699219 566.347656 282.464844 " fill-opacity="1" fill-rule="nonzero"/><g clip-path="url(#0655a96834)"><path fill="#fadccb" d="M 491.753906 574.203125 C 492.289062 573.050781 492.550781 571.589844 492.820312 569.683594 C 496.1875 546.007812 491.980469 521.1875 497.074219 497.949219 C 497.425781 503.320312 497.683594 508.691406 497.925781 514.058594 C 498.789062 533.121094 499.4375 552.179688 502.347656 571.0625 C 502.394531 571.878906 502.46875 572.699219 502.585938 573.566406 C 502.609375 573.738281 502.65625 573.890625 502.714844 574.035156 C 504.34375 574.042969 505.972656 574.054688 507.597656 574.101562 C 518.046875 574.375 528.378906 575.664062 538.851562 575.265625 C 547.308594 574.941406 558.277344 575.042969 565.082031 572.890625 C 566.027344 572.59375 566.667969 571.710938 566.671875 570.722656 C 567.0625 509.40625 560.082031 438.25 541.023438 385.820312 C 540.84375 382.066406 540.515625 378.328125 540.039062 374.59375 C 539.953125 373.9375 539.496094 373.53125 538.972656 373.367188 C 538.714844 372.640625 537.871094 372.035156 536.9375 372.453125 C 523.777344 378.355469 509.398438 378.179688 495.230469 377.929688 C 481.101562 377.679688 467.03125 377.152344 453.316406 373.503906 C 452.265625 373.222656 451.589844 374.082031 451.59375 374.90625 C 451.230469 375.117188 450.9375 375.457031 450.871094 375.960938 C 450.371094 379.65625 450.054688 383.363281 449.894531 387.085938 C 449.660156 387.242188 449.480469 387.464844 449.355469 387.800781 C 431.164062 436.417969 420.730469 518.992188 422.820312 572.222656 C 422.855469 573.171875 423.566406 573.964844 424.503906 574.109375 C 446.832031 577.511719 469.277344 574.929688 491.753906 574.203125 " fill-opacity="1" fill-rule="nonzero"/></g><path fill="#2b0303" d="M 452.742188 388.753906 C 481.050781 396.570312 510.992188 396.941406 539.488281 389.832031 C 540.140625 389.667969 539.867188 388.65625 539.210938 388.820312 C 510.890625 395.886719 481.152344 395.511719 453.019531 387.746094 C 452.371094 387.566406 452.09375 388.574219 452.742188 388.753906 " fill-opacity="1" fill-rule="nonzero"/><path fill="#2b0303" d="M 487.558594 457.730469 C 490.21875 463.78125 494.441406 468.148438 494.742188 475.097656 C 495.050781 482.191406 495.082031 489.308594 495.25 496.40625 C 495.269531 497.078125 496.316406 497.082031 496.296875 496.40625 C 496.113281 488.640625 496.46875 480.644531 495.660156 472.917969 C 495.035156 466.917969 490.8125 462.542969 488.464844 457.199219 C 488.195312 456.582031 487.292969 457.117188 487.558594 457.730469 " fill-opacity="1" fill-rule="nonzero"/><path fill="#fa9b75" d="M 611.117188 230.847656 C 611.152344 229.757812 610.0625 229.25 609.285156 229.488281 C 609.042969 229.128906 608.648438 228.855469 608.097656 228.886719 C 601.753906 229.226562 596.273438 227.964844 590.097656 226.980469 C 587.363281 226.546875 584.925781 227.15625 584.628906 230.210938 C 584.585938 230.636719 584.722656 230.972656 584.953125 231.226562 C 585.425781 234.8125 586.488281 247.867188 579.445312 244.226562 C 578.339844 243.785156 577.660156 238.695312 576.402344 237.449219 C 574.882812 235.945312 572.199219 234.953125 570.722656 237.183594 C 568.785156 240.105469 571.824219 246.875 572.964844 249.683594 C 574.878906 254.410156 576.667969 258.792969 579.707031 262.585938 C 580.1875 263.183594 580.554688 263.878906 580.667969 264.636719 C 581.300781 268.84375 579.363281 282.507812 578.394531 289.332031 C 578.355469 289.601562 578.347656 289.847656 578.378906 290.082031 C 578.335938 290.949219 578.746094 291.851562 579.78125 292.214844 C 584.75 293.96875 597.480469 293.792969 597.734375 292.316406 C 599.003906 284.929688 600.363281 270.707031 601.402344 265.53125 C 601.53125 264.890625 601.753906 264.273438 602.078125 263.703125 C 605.773438 257.175781 610.867188 239.222656 611.117188 230.847656 " fill-opacity="1" fill-rule="nonzero"/><path fill="#2b0303" d="M 457.777344 397.707031 C 453.148438 406.152344 449.121094 414.882812 445.691406 423.878906 C 445.449219 424.511719 446.460938 424.78125 446.699219 424.160156 C 450.097656 415.242188 454.097656 406.601562 458.679688 398.234375 C 459.007812 397.640625 458.101562 397.113281 457.777344 397.707031 " fill-opacity="1" fill-rule="nonzero"/><path fill="#2b0303" d="M 546.757812 435.925781 C 548.714844 479.894531 547.816406 523.949219 544.074219 567.800781 C 544.015625 568.46875 545.066406 568.464844 545.121094 567.800781 C 548.867188 523.949219 549.761719 479.894531 547.804688 435.925781 C 547.773438 435.257812 546.726562 435.25 546.757812 435.925781 " fill-opacity="1" fill-rule="nonzero"/><path fill="#2b0303" d="M 436.179688 462.066406 C 433.273438 498.210938 433.671875 534.546875 437.378906 570.613281 C 437.445312 571.28125 438.496094 571.285156 438.425781 570.613281 C 434.722656 534.546875 434.320312 498.210938 437.226562 462.066406 C 437.28125 461.394531 436.230469 461.398438 436.179688 462.066406 " fill-opacity="1" fill-rule="nonzero"/><path fill="#59242e" d="M 441.792969 259.941406 C 432.09375 265.03125 428.070312 275.289062 423.816406 284.714844 C 417.96875 297.667969 412.058594 310.59375 406.46875 323.648438 C 401.257812 335.800781 395.636719 347.859375 390.820312 360.175781 C 387.738281 368.054688 392.398438 373.539062 399.980469 376.535156 C 422.691406 385.515625 434.738281 345.097656 441.125 330.855469 C 445.992188 320.011719 447.851562 311.742188 448.304688 299.65625 C 448.753906 287.652344 442.078125 259.789062 441.792969 259.941406 " fill-opacity="1" fill-rule="nonzero"/><path fill="#59242e" d="M 599.109375 276.527344 C 593.542969 278.222656 586.039062 279.835938 580.78125 277.359375 C 579.980469 276.980469 579.042969 277.398438 578.859375 278.265625 C 577.8125 283.257812 574.921875 297.003906 574.542969 298.878906 C 572.507812 308.914062 570.257812 321.964844 570.09375 332.230469 C 569.90625 343.539062 575.394531 352.847656 587.472656 355.230469 C 587.839844 355.710938 589.453125 356.226562 590.070312 355.722656 C 601.914062 345.96875 600.542969 288.347656 600.660156 283.820312 C 600.703125 282.324219 601.75 275.722656 599.109375 276.527344 " fill-opacity="1" fill-rule="nonzero"/><path fill="#2b0303" d="M 573.171875 304.398438 C 570.839844 313.917969 569.394531 323.582031 568.839844 333.367188 C 568.804688 334.042969 569.851562 334.039062 569.890625 333.367188 C 570.4375 323.675781 571.871094 314.105469 574.183594 304.675781 C 574.34375 304.019531 573.332031 303.742188 573.171875 304.398438 " fill-opacity="1" fill-rule="nonzero"/><path fill="#2b0303" d="M 447.519531 291.078125 C 445.113281 300.285156 443.929688 309.664062 443.976562 319.179688 C 443.980469 319.851562 445.027344 319.855469 445.023438 319.179688 C 444.976562 309.761719 446.148438 300.46875 448.53125 291.359375 C 448.699219 290.707031 447.691406 290.429688 447.519531 291.078125 " fill-opacity="1" fill-rule="nonzero"/><path fill="#fe9f7a" d="M 396.230469 358.679688 C 394.457031 356.648438 391.875 354.910156 389.453125 356.207031 C 380.132812 361.203125 364.726562 363.265625 362.648438 366.246094 C 360.246094 369.695312 361.457031 376.1875 361.800781 379.957031 C 361.800781 379.957031 380.121094 379.957031 393.496094 373.863281 C 396.433594 372.53125 398.183594 371.324219 398.871094 368.289062 C 399.546875 365.3125 398.214844 360.949219 396.230469 358.679688 " fill-opacity="1" fill-rule="nonzero"/><path fill="#a34c3c" d="M 513.625 185.703125 C 512.847656 185.242188 512.019531 184.90625 511.371094 184.722656 C 508.3125 183.863281 504.355469 184.339844 501.984375 186.585938 C 499.746094 188.703125 500.632812 192.171875 504.011719 191.667969 C 505.183594 191.496094 506.222656 190.972656 507.429688 190.914062 C 508.628906 190.855469 509.777344 191.125 510.96875 191.226562 C 512.425781 191.355469 514.339844 191.367188 515.351562 190.105469 C 516.789062 188.3125 515.34375 186.710938 513.625 185.703125 " fill-opacity="1" fill-rule="nonzero"/><path fill="#a34c3c" d="M 475.964844 190.8125 C 477.316406 191.699219 479.132812 191.105469 480.480469 190.535156 C 481.582031 190.070312 482.589844 189.464844 483.753906 189.152344 C 484.917969 188.835938 486.066406 189.011719 487.234375 188.816406 C 490.605469 188.257812 490.386719 184.6875 487.601562 183.359375 C 484.660156 181.949219 480.746094 182.710938 478.101562 184.472656 C 477.539062 184.84375 476.851562 185.417969 476.257812 186.09375 C 474.929688 187.582031 474.046875 189.546875 475.964844 190.8125 " fill-opacity="1" fill-rule="nonzero"/><path fill="#2b0303" d="M 487.023438 338.089844 C 489.84375 346.832031 493.660156 355.144531 498.460938 362.976562 C 498.816406 363.550781 499.722656 363.027344 499.367188 362.449219 C 494.613281 354.695312 490.824219 346.46875 488.035156 337.808594 C 487.828125 337.171875 486.816406 337.445312 487.023438 338.089844 " fill-opacity="1" fill-rule="nonzero"/><path fill="#59242e" d="M 400.699219 336.839844 C 396.269531 346.980469 387.125 353.242188 378.574219 358.472656 C 374.894531 360.722656 380.027344 369.304688 380.832031 371.222656 C 382.4375 375.058594 383.335938 379.25 383.695312 383.386719 C 383.839844 385.042969 396.316406 384.25 404.707031 380.78125 C 411.210938 378.089844 420.855469 374.136719 428.734375 358.867188 C 434.609375 347.472656 401.125 335.871094 400.699219 336.839844 " fill-opacity="1" fill-rule="nonzero"/><path fill="#a34c3c" d="M 534.753906 276.777344 C 534.1875 266.789062 532.921875 256.789062 532 246.828125 C 531.984375 246.664062 531.953125 246.511719 531.910156 246.371094 C 531.519531 240.003906 531.03125 233.640625 530.660156 227.285156 C 529.691406 210.5625 529.574219 192.199219 527.214844 175.605469 C 525.957031 166.75 521.859375 160.523438 514.46875 155.863281 C 501.070312 147.40625 481.59375 150.214844 470.589844 161.410156 C 461.921875 170.222656 461.824219 183.609375 461.003906 195.128906 C 459.8125 211.925781 458.589844 227.769531 456.6875 244.503906 C 455.96875 250.84375 448.925781 290.753906 461.679688 288.21875 C 463.105469 287.9375 464.347656 287.105469 465.8125 286.984375 C 467.414062 286.851562 469.082031 287.511719 470.703125 287.5 C 472.21875 287.488281 473.34375 287.632812 474.675781 286.683594 C 476.820312 285.148438 476.734375 282.433594 476.402344 280.109375 C 475.417969 273.171875 474.359375 266.945312 474.902344 260.097656 C 475.140625 258.140625 475.371094 256.1875 475.535156 254.242188 C 476.476562 243.082031 476.6875 231.875 476.757812 220.679688 C 476.785156 216.433594 476.542969 212.195312 476.242188 207.960938 C 475.773438 201.34375 476.128906 194.691406 476.707031 188.105469 C 476.777344 187.308594 476.984375 186.527344 477.40625 185.851562 C 479.488281 182.535156 484.355469 180.710938 486.953125 177.972656 C 489.539062 175.242188 491.675781 172.148438 493.15625 168.714844 C 493.558594 167.78125 494.902344 167.835938 495.273438 168.777344 C 498.691406 177.449219 505.953125 182.175781 514.0625 187.484375 C 514.53125 187.789062 514.839844 188.304688 514.878906 188.863281 C 515.648438 200.019531 515.0625 211.3125 514.066406 222.539062 C 512.425781 241.0625 510.683594 259.410156 510.644531 277.980469 C 510.644531 278.148438 510.589844 278.304688 510.515625 278.453125 C 510.386719 278.707031 510.300781 278.996094 510.289062 279.335938 C 510.160156 282.875 509.632812 288.414062 513.882812 289.691406 C 516.777344 290.558594 520.296875 289.558594 523.351562 290.085938 C 525.628906 290.480469 528.121094 291.605469 530.425781 290.703125 C 535.5 288.710938 534.988281 280.976562 534.753906 276.777344 " fill-opacity="1" fill-rule="nonzero"/><path fill="#631f1f" d="M 513.78125 218.640625 C 514.496094 225.992188 512.734375 233.292969 513.472656 240.640625 C 513.542969 241.304688 514.589844 241.3125 514.523438 240.640625 C 513.78125 233.292969 515.546875 225.992188 514.832031 218.640625 C 514.765625 217.976562 513.71875 217.972656 513.78125 218.640625 " fill-opacity="1" fill-rule="nonzero"/><path fill="#631f1f" d="M 530.917969 228.195312 C 532.113281 236.171875 531.746094 244.28125 531.679688 252.320312 C 531.675781 252.992188 532.722656 252.996094 532.726562 252.320312 C 532.796875 244.179688 533.140625 235.992188 531.925781 227.917969 C 531.828125 227.25 530.816406 227.535156 530.917969 228.195312 " fill-opacity="1" fill-rule="nonzero"/><path fill="#631f1f" d="M 475.546875 222.101562 C 475.882812 229.734375 475.785156 237.363281 475.253906 244.984375 C 475.207031 245.660156 476.253906 245.65625 476.300781 244.984375 C 476.835938 237.363281 476.933594 229.734375 476.59375 222.101562 C 476.566406 221.429688 475.515625 221.425781 475.546875 222.101562 " fill-opacity="1" fill-rule="nonzero"/><path fill="#631f1f" d="M 464.542969 272.46875 C 464.171875 276.742188 464.328125 280.964844 464.996094 285.203125 C 465.101562 285.867188 466.109375 285.585938 466.003906 284.925781 C 465.355469 280.78125 465.226562 276.644531 465.59375 272.46875 C 465.652344 271.796875 464.601562 271.800781 464.542969 272.46875 " fill-opacity="1" fill-rule="nonzero"/><path fill="#631f1f" d="M 456.089844 240.957031 C 455.371094 245.265625 454.730469 249.582031 454.160156 253.910156 C 454.074219 254.578125 455.121094 254.570312 455.207031 253.910156 C 455.765625 249.675781 456.394531 245.449219 457.097656 241.234375 C 457.207031 240.578125 456.199219 240.292969 456.089844 240.957031 " fill-opacity="1" fill-rule="nonzero"/><path fill="#631f1f" d="M 508.875 171.460938 C 511.859375 176.464844 512.664062 182.085938 513.359375 187.773438 C 513.4375 188.433594 514.488281 188.441406 514.40625 187.773438 C 513.691406 181.917969 512.847656 176.082031 509.78125 170.929688 C 509.433594 170.355469 508.53125 170.878906 508.875 171.460938 " fill-opacity="1" fill-rule="nonzero"/><path fill="#631f1f" d="M 480.078125 172.984375 C 477.617188 177.019531 476.230469 181.433594 475.921875 186.148438 C 475.878906 186.820312 476.925781 186.816406 476.96875 186.148438 C 477.269531 181.605469 478.609375 177.402344 480.984375 173.511719 C 481.335938 172.9375 480.429688 172.410156 480.078125 172.984375 " fill-opacity="1" fill-rule="nonzero"/><path fill="#631f1f" d="M 522.359375 267.875 C 523.070312 275.273438 522.429688 282.566406 520.429688 289.726562 C 520.246094 290.375 521.257812 290.652344 521.441406 290.003906 C 523.46875 282.753906 524.128906 275.375 523.40625 267.875 C 523.34375 267.210938 522.292969 267.203125 522.359375 267.875 " fill-opacity="1" fill-rule="nonzero"/><path fill="#2b0303" d="M 548.601562 399.132812 C 553.109375 406.222656 556.917969 413.675781 559.980469 421.496094 C 560.226562 422.117188 561.238281 421.847656 560.992188 421.21875 C 557.894531 413.3125 554.0625 405.769531 549.507812 398.601562 C 549.144531 398.039062 548.238281 398.5625 548.601562 399.132812 " fill-opacity="1" fill-rule="nonzero"/><path fill="#2b0303" d="M 560.070312 292.28125 C 561.398438 298.121094 562.15625 304.019531 562.351562 310.003906 C 562.375 310.675781 563.421875 310.679688 563.402344 310.003906 C 563.203125 303.917969 562.429688 297.941406 561.078125 292.003906 C 560.929688 291.347656 559.921875 291.625 560.070312 292.28125 " fill-opacity="1" fill-rule="nonzero"/><path fill="#ffb459" d="M 608.953125 268.4375 C 606.945312 266.0625 604.109375 265.722656 601.09375 265.601562 C 596.234375 265.402344 592.035156 265.351562 587.175781 265.488281 C 582.8125 265.609375 576.257812 265.175781 571.867188 267.546875 C 571.628906 267.675781 571.261719 270.941406 573.398438 271.804688 C 576.839844 273.191406 581.828125 272.730469 585.457031 272.941406 C 590.667969 273.242188 595.878906 273.542969 601.085938 273.84375 C 603.074219 273.957031 608.84375 275.441406 610.300781 273.542969 C 611.367188 272.148438 609.863281 269.511719 608.953125 268.4375 " fill-opacity="1" fill-rule="nonzero"/><path fill="#db9642" d="M 631.808594 362.148438 C 630.242188 347.90625 628.976562 333.597656 626.832031 319.421875 C 625.800781 312.589844 624.484375 305.789062 622.578125 299.125 C 621.65625 295.902344 620.59375 292.71875 619.371094 289.589844 C 618.542969 287.484375 617.773438 284.914062 615.90625 283.398438 C 613.894531 281.761719 617.234375 277.222656 614.734375 276.976562 C 610.609375 276.5625 601.90625 275.246094 597.761719 275.050781 C 589.054688 274.636719 578.300781 274.558594 569.601562 275.082031 C 569.464844 275.023438 569.558594 280.761719 569.386719 280.804688 C 568.816406 280.953125 568.246094 281.101562 567.679688 281.246094 C 564.570312 281.683594 562.839844 283.886719 561.792969 286.527344 C 559.9375 291.207031 559.816406 296.722656 559.097656 301.644531 C 557.445312 312.90625 555.84375 324.179688 554.285156 335.453125 C 551.03125 359.003906 547.976562 382.578125 545.121094 406.179688 C 543.515625 419.4375 541.976562 432.707031 540.5 445.980469 C 540.410156 446.761719 541.542969 446.839844 541.859375 446.230469 C 541.917969 446.230469 541.976562 446.222656 542.042969 446.21875 C 573.726562 445.59375 605.78125 445.59375 639.28125 449.222656 C 639.71875 449.269531 641.746094 452.480469 641.699219 452.0625 C 638.40625 422.089844 635.105469 392.121094 631.808594 362.148438 " fill-opacity="1" fill-rule="nonzero"/><path fill="#ffb459" d="M 543.679688 283.515625 C 543.085938 280.664062 541.4375 278.652344 538.1875 279.054688 C 538.0625 279.070312 537.96875 279.121094 537.863281 279.160156 C 537.265625 278.945312 537.773438 276.800781 537.234375 277.359375 C 526.277344 288.652344 521.304688 309.191406 516.890625 324.886719 C 511.679688 343.417969 491.832031 432.246094 493.09375 434.0625 C 499.296875 443.003906 516.871094 443.914062 525.25 442.714844 C 526.667969 442.515625 526.515625 440.898438 525.535156 440.292969 C 528.921875 409.695312 533.410156 379.226562 537.273438 348.683594 C 539.183594 333.59375 540.933594 318.488281 542.300781 303.34375 C 542.847656 297.296875 544.910156 289.453125 543.679688 283.515625 " fill-opacity="1" fill-rule="nonzero"/><path fill="#ffb459" d="M 638.910156 306.550781 C 640.277344 321.691406 642.027344 336.800781 643.9375 351.890625 C 647.800781 382.429688 652.289062 412.902344 655.675781 443.496094 C 654.695312 444.105469 654.539062 445.722656 655.957031 445.921875 C 664.339844 447.117188 681.914062 446.210938 688.117188 437.269531 C 689.378906 435.453125 669.527344 346.625 664.316406 328.089844 C 659.90625 312.398438 657.453125 291.113281 644.261719 276.976562 C 643.730469 276.40625 643.945312 282.148438 643.347656 282.363281 C 643.242188 282.328125 643.148438 282.273438 643.023438 282.257812 C 639.773438 281.855469 638.121094 283.867188 637.53125 286.71875 C 636.300781 292.65625 638.363281 300.5 638.910156 306.550781 " fill-opacity="1" fill-rule="nonzero"/><path fill="#59242e" d="M 645.171875 280.351562 C 645.113281 280.167969 645.023438 279.984375 644.882812 279.796875 C 638.359375 271.246094 621.707031 270.953125 609.832031 270.710938 C 604.679688 270.605469 599.53125 270.449219 594.378906 270.328125 C 594.609375 263.855469 594.792969 257.382812 594.894531 250.90625 C 594.96875 245.738281 596.261719 238.78125 593.710938 233.921875 C 589.699219 226.28125 582.886719 230.238281 579.023438 235.234375 C 579.257812 235.332031 579.476562 235.460938 579.671875 235.648438 C 580.148438 236.121094 580.5625 236.617188 580.957031 237.125 C 581.886719 235.660156 583.039062 234.328125 584.453125 233.160156 C 591.175781 230.765625 592.601562 237.375 592.105469 241.480469 C 592.765625 244.757812 592.039062 248.914062 591.984375 252.253906 C 591.878906 258.261719 591.703125 264.265625 591.496094 270.273438 C 586.742188 270.179688 581.988281 270.117188 577.230469 270.179688 C 570.4375 270.265625 563.246094 269.703125 556.433594 271.066406 C 553.085938 271.734375 549.636719 272.8125 547.019531 274.996094 C 545.484375 276.273438 540.683594 284.074219 546.464844 281.796875 C 561.703125 275.785156 629.664062 278.9375 634.285156 282.097656 C 639.089844 285.386719 647.648438 283.480469 645.171875 280.351562 " fill-opacity="1" fill-rule="nonzero"/><path fill="#ffb459" d="M 573.128906 268.570312 C 562.632812 268.484375 547.265625 268.800781 539.132812 275.082031 C 535.5625 277.839844 524.707031 301.074219 524.707031 301.074219 C 526.496094 305.613281 529.285156 312.277344 531.460938 316.667969 C 532.042969 317.84375 532.632812 319.035156 532.871094 320.3125 C 533.199219 322.074219 532.683594 323.855469 532.492188 325.636719 C 528.132812 366.566406 522.921875 407.5625 518.414062 445.59375 C 517.945312 449.535156 517.976562 457.125 519.253906 460.898438 C 520.558594 464.757812 542.066406 466.054688 552.585938 462.457031 C 555.949219 461.3125 556.753906 457.167969 557.210938 453.800781 C 565.886719 389.292969 567.753906 333.363281 573.726562 268.578125 C 573.527344 268.574219 573.328125 268.574219 573.128906 268.570312 " fill-opacity="1" fill-rule="nonzero"/><path fill="#ffb459" d="M 608.035156 268.578125 C 614.007812 333.363281 615.875 389.292969 624.550781 453.800781 C 625.007812 457.167969 625.8125 461.3125 629.175781 462.457031 C 639.691406 466.054688 661.207031 464.757812 662.507812 460.898438 C 663.785156 457.125 663.816406 449.535156 663.347656 445.59375 C 658.835938 407.5625 653.625 366.566406 649.269531 325.636719 C 649.078125 323.855469 648.5625 322.074219 648.890625 320.3125 C 649.128906 319.035156 649.71875 317.84375 650.300781 316.667969 C 652.476562 312.277344 655.265625 305.613281 657.054688 301.074219 C 657.054688 301.074219 646.199219 277.839844 642.628906 275.082031 C 634.496094 268.800781 619.132812 268.484375 608.632812 268.570312 C 608.433594 268.574219 608.234375 268.574219 608.035156 268.578125 " fill-opacity="1" fill-rule="nonzero"/><path fill="#ffb459" d="M 574.132812 266.824219 C 573.878906 266.792969 573.613281 266.800781 573.332031 266.917969 C 569.285156 268.589844 567.132812 269.90625 564.515625 273.34375 C 561.539062 277.257812 559.066406 281.492188 557.121094 285.953125 C 556.320312 287.785156 554.363281 291.011719 556.25 292.882812 C 556.46875 293.097656 556.742188 293.28125 557.046875 293.445312 C 555.320312 293.835938 553.632812 294.433594 552.910156 295.683594 C 551.304688 298.464844 556.65625 320.75 557.289062 323.511719 C 560.074219 335.722656 560.875 348.621094 566.894531 360.984375 C 569.117188 365.550781 570.792969 321.175781 571.15625 313.285156 C 571.84375 298.238281 572.394531 283.101562 576.207031 268.410156 C 576.539062 267.132812 575.085938 266.40625 574.132812 266.824219 " fill-opacity="1" fill-rule="nonzero"/><path fill="#2b0303" d="M 566.894531 361.511719 C 566.6875 361.511719 566.492188 361.390625 566.410156 361.1875 C 556.789062 337.871094 550.683594 298.5 552.453125 295.421875 C 553.136719 294.242188 554.5 293.609375 555.839844 293.214844 C 554.003906 291.332031 555.367188 288.449219 556.273438 286.535156 C 556.40625 286.25 556.535156 285.984375 556.640625 285.742188 C 558.621094 281.203125 561.128906 276.925781 564.097656 273.027344 C 566.816406 269.457031 569.082031 268.105469 573.132812 266.433594 C 573.460938 266.296875 573.808594 266.257812 574.195312 266.304688 C 574.484375 266.339844 574.6875 266.601562 574.652344 266.886719 C 574.617188 267.175781 574.367188 267.378906 574.070312 267.34375 C 573.855469 267.316406 573.691406 267.335938 573.53125 267.402344 C 569.585938 269.03125 567.519531 270.261719 564.933594 273.660156 C 562.015625 277.496094 559.546875 281.699219 557.597656 286.160156 C 557.492188 286.414062 557.359375 286.6875 557.21875 286.984375 C 556.386719 288.742188 555.246094 291.152344 556.617188 292.511719 C 556.777344 292.667969 556.992188 292.820312 557.300781 292.984375 C 557.492188 293.089844 557.597656 293.300781 557.566406 293.519531 C 557.535156 293.734375 557.375 293.910156 557.164062 293.957031 C 555.855469 294.25 554.035156 294.777344 553.363281 295.945312 C 551.914062 298.460938 557.652344 337.21875 567.378906 360.789062 C 567.488281 361.054688 567.363281 361.359375 567.09375 361.472656 C 567.03125 361.5 566.964844 361.511719 566.894531 361.511719 " fill-opacity="1" fill-rule="nonzero"/><path fill="#ffb459" d="M 605.828125 268.410156 C 609.640625 283.101562 610.191406 298.238281 610.882812 313.285156 C 611.242188 321.175781 612.917969 365.550781 615.140625 360.984375 C 621.160156 348.621094 621.960938 335.722656 624.746094 323.511719 C 625.378906 320.75 630.730469 298.464844 629.125 295.683594 C 628.40625 294.433594 626.714844 293.835938 624.988281 293.445312 C 625.292969 293.28125 625.570312 293.097656 625.785156 292.882812 C 627.675781 291.011719 625.714844 287.785156 624.914062 285.953125 C 622.972656 281.492188 620.5 277.257812 617.523438 273.34375 C 614.90625 269.90625 612.75 268.589844 608.703125 266.917969 C 608.425781 266.800781 608.15625 266.792969 607.902344 266.824219 C 606.953125 266.40625 605.496094 267.132812 605.828125 268.410156 " fill-opacity="1" fill-rule="nonzero"/><path fill="#2b0303" d="M 615.140625 361.511719 C 615.0625 361.511719 614.980469 361.492188 614.90625 361.453125 C 614.648438 361.324219 614.542969 361.007812 614.671875 360.75 C 625.960938 338.328125 630.105469 298.429688 628.675781 295.945312 C 628 294.777344 626.183594 294.25 624.875 293.957031 C 624.660156 293.910156 624.5 293.734375 624.472656 293.519531 C 624.4375 293.300781 624.542969 293.089844 624.738281 292.984375 C 625.046875 292.820312 625.261719 292.667969 625.414062 292.511719 C 626.789062 291.152344 625.652344 288.742188 624.816406 286.984375 C 624.675781 286.6875 624.542969 286.414062 624.4375 286.160156 C 622.488281 281.699219 620.023438 277.496094 617.105469 273.660156 C 614.515625 270.261719 612.453125 269.03125 608.503906 267.402344 C 608.34375 267.332031 608.179688 267.316406 607.96875 267.34375 C 607.664062 267.375 607.417969 267.175781 607.382812 266.886719 C 607.351562 266.601562 607.550781 266.339844 607.835938 266.304688 C 608.226562 266.257812 608.578125 266.296875 608.902344 266.433594 C 612.957031 268.105469 615.222656 269.457031 617.9375 273.027344 C 620.90625 276.925781 623.414062 281.203125 625.398438 285.742188 C 625.503906 285.984375 625.628906 286.25 625.765625 286.535156 C 626.671875 288.449219 628.035156 291.332031 626.195312 293.214844 C 627.535156 293.609375 628.902344 294.242188 629.582031 295.421875 C 631.382812 298.550781 626.503906 339.578125 615.609375 361.222656 C 615.515625 361.40625 615.332031 361.511719 615.140625 361.511719 " fill-opacity="1" fill-rule="nonzero"/><path fill="#2b0303" d="M 532.140625 289.164062 C 531.179688 301.1875 533.105469 313.203125 532.085938 325.234375 C 531.015625 337.878906 529.085938 350.484375 527.523438 363.070312 C 524.394531 388.25 521.261719 413.425781 518.132812 438.601562 C 518.050781 439.269531 519.097656 439.265625 519.183594 438.601562 C 522.3125 413.425781 525.441406 388.25 528.570312 363.070312 C 530.105469 350.703125 531.957031 338.328125 533.070312 325.914062 C 534.171875 313.652344 532.207031 301.414062 533.1875 289.164062 C 533.242188 288.496094 532.195312 288.496094 532.140625 289.164062 " fill-opacity="1" fill-rule="nonzero"/><path fill="#2b0303" d="M 646.324219 291.847656 C 643.585938 304.03125 644.40625 316.480469 645.378906 328.824219 C 646.394531 341.785156 647.6875 354.722656 649.253906 367.632812 C 652.375 393.289062 656.585938 418.804688 661.824219 444.113281 C 661.960938 444.773438 662.96875 444.492188 662.832031 443.832031 C 657.613281 418.617188 653.410156 393.195312 650.304688 367.632812 C 648.792969 355.179688 647.535156 342.691406 646.53125 330.1875 C 645.515625 317.496094 644.515625 304.664062 647.335938 292.128906 C 647.480469 291.46875 646.476562 291.191406 646.324219 291.847656 " fill-opacity="1" fill-rule="nonzero"/><path fill="#2b0303" d="M 624.332031 293.253906 C 623.191406 293.441406 622.054688 293.632812 620.914062 293.824219 C 620.25 293.933594 620.53125 294.945312 621.191406 294.835938 C 622.332031 294.644531 623.472656 294.453125 624.609375 294.265625 C 625.277344 294.152344 624.992188 293.140625 624.332031 293.253906 " fill-opacity="1" fill-rule="nonzero"/><path fill="#2b0303" d="M 557.742188 294.109375 C 559.308594 294.730469 560.878906 295.351562 562.445312 295.972656 C 563.070312 296.222656 563.34375 295.210938 562.722656 294.960938 C 561.15625 294.339844 559.589844 293.71875 558.019531 293.097656 C 557.394531 292.847656 557.121094 293.863281 557.742188 294.109375 " fill-opacity="1" fill-rule="nonzero"/><path fill="#2b0303" d="M 544.6875 388.066406 C 539.542969 392.636719 533.78125 396.261719 527.46875 398.992188 C 526.851562 399.257812 527.382812 400.160156 528 399.894531 C 534.394531 397.132812 540.222656 393.433594 545.429688 388.808594 C 545.933594 388.359375 545.191406 387.617188 544.6875 388.066406 " fill-opacity="1" fill-rule="nonzero"/><path fill="#2b0303" d="M 635.589844 388.875 C 640.664062 393.320312 645.738281 397.765625 650.808594 402.210938 C 651.316406 402.65625 652.058594 401.917969 651.550781 401.46875 C 646.476562 397.023438 641.402344 392.578125 636.328125 388.132812 C 635.824219 387.691406 635.082031 388.429688 635.589844 388.875 " fill-opacity="1" fill-rule="nonzero"/><path fill="#2b0303" d="M 329.070312 512.355469 C 333.207031 518.859375 336.695312 525.695312 339.511719 532.875 C 339.757812 533.496094 340.769531 533.222656 340.523438 532.59375 C 337.675781 525.332031 334.160156 518.414062 329.976562 511.824219 C 329.617188 511.257812 328.707031 511.78125 329.070312 512.355469 " fill-opacity="1" fill-rule="nonzero"/><path fill="#2b0303" d="M 339.59375 414.253906 C 340.8125 419.613281 341.507812 425.019531 341.6875 430.515625 C 341.710938 431.183594 342.757812 431.183594 342.738281 430.515625 C 342.550781 424.917969 341.84375 419.429688 340.605469 413.976562 C 340.457031 413.320312 339.445312 413.59375 339.59375 414.253906 " fill-opacity="1" fill-rule="nonzero"/><path fill="#cb5f4d" d="M 384.511719 392.355469 C 382.671875 390.171875 380.0625 389.859375 377.300781 389.746094 C 372.835938 389.5625 368.980469 389.519531 364.515625 389.644531 C 360.515625 389.753906 354.496094 389.359375 350.46875 391.535156 C 350.246094 391.652344 349.910156 394.652344 351.875 395.445312 C 355.03125 396.714844 359.609375 396.292969 362.941406 396.488281 C 367.726562 396.765625 372.507812 397.039062 377.289062 397.316406 C 379.117188 397.421875 384.410156 398.785156 385.746094 397.042969 C 386.730469 395.757812 385.34375 393.339844 384.511719 392.355469 " fill-opacity="1" fill-rule="nonzero"/><path fill="#ad4736" d="M 405.492188 478.378906 C 404.054688 465.308594 402.890625 452.171875 400.925781 439.15625 C 399.980469 432.886719 398.769531 426.640625 397.019531 420.523438 C 396.171875 417.566406 395.199219 414.640625 394.074219 411.773438 C 393.320312 409.839844 392.609375 407.476562 390.894531 406.085938 C 389.046875 404.582031 392.113281 400.417969 389.820312 400.191406 C 386.03125 399.8125 378.042969 398.601562 374.238281 398.425781 C 366.246094 398.046875 356.371094 397.972656 348.386719 398.453125 C 348.261719 398.398438 348.347656 403.664062 348.191406 403.707031 C 347.667969 403.84375 347.144531 403.976562 346.621094 404.113281 C 343.769531 404.511719 342.179688 406.535156 341.21875 408.957031 C 339.515625 413.257812 339.40625 418.320312 338.742188 422.835938 C 337.230469 433.175781 335.757812 443.523438 334.328125 453.875 C 331.339844 475.492188 328.535156 497.136719 325.914062 518.800781 C 324.441406 530.976562 323.027344 543.152344 321.667969 555.335938 C 321.589844 556.054688 322.628906 556.125 322.921875 555.5625 C 322.976562 555.5625 323.023438 555.558594 323.085938 555.558594 C 352.171875 554.984375 381.597656 554.984375 412.355469 558.316406 C 412.753906 558.359375 414.613281 561.304688 414.574219 560.917969 C 411.546875 533.40625 408.519531 505.894531 405.492188 478.378906 " fill-opacity="1" fill-rule="nonzero"/><path fill="#cb5f4d" d="M 324.589844 406.191406 C 324.046875 403.574219 322.53125 401.730469 319.546875 402.101562 C 319.433594 402.117188 319.347656 402.164062 319.25 402.195312 C 318.699219 402 319.167969 400.027344 318.671875 400.542969 C 308.617188 410.910156 304.050781 429.765625 300 444.175781 C 295.214844 461.1875 276.992188 542.730469 278.152344 544.402344 C 283.847656 552.605469 299.980469 553.441406 307.671875 552.34375 C 308.972656 552.160156 308.832031 550.675781 307.933594 550.117188 C 311.042969 522.027344 315.160156 494.058594 318.710938 466.019531 C 320.460938 452.167969 322.070312 438.300781 323.324219 424.398438 C 323.828125 418.84375 325.71875 411.644531 324.589844 406.191406 " fill-opacity="1" fill-rule="nonzero"/><path fill="#cb5f4d" d="M 412.011719 427.339844 C 413.265625 441.242188 414.875 455.109375 416.628906 468.960938 C 420.175781 497 424.292969 524.96875 427.40625 553.058594 C 426.503906 553.617188 426.363281 555.097656 427.664062 555.285156 C 435.355469 556.382812 451.492188 555.550781 457.1875 547.34375 C 458.34375 545.671875 440.121094 464.128906 435.339844 447.117188 C 431.285156 432.707031 429.035156 413.167969 416.925781 400.191406 C 416.441406 399.667969 416.636719 404.941406 416.085938 405.136719 C 415.988281 405.105469 415.902344 405.058594 415.789062 405.042969 C 412.804688 404.671875 411.289062 406.519531 410.746094 409.136719 C 409.617188 414.585938 411.511719 421.785156 412.011719 427.339844 " fill-opacity="1" fill-rule="nonzero"/><path fill="#59242e" d="M 417.761719 403.292969 C 417.707031 403.121094 417.625 402.953125 417.496094 402.78125 C 411.507812 394.929688 396.21875 394.660156 385.320312 394.4375 C 380.589844 394.34375 375.863281 394.199219 371.132812 394.089844 C 371.34375 388.148438 371.511719 382.207031 371.601562 376.257812 C 371.675781 371.515625 372.859375 365.128906 370.515625 360.667969 C 366.835938 353.652344 360.582031 357.285156 357.035156 361.871094 C 357.25 361.960938 357.453125 362.078125 357.628906 362.253906 C 358.066406 362.683594 358.449219 363.140625 358.8125 363.609375 C 359.667969 362.261719 360.722656 361.042969 362.019531 359.96875 C 368.191406 357.769531 369.5 363.835938 369.042969 367.605469 C 369.652344 370.613281 368.984375 374.429688 368.933594 377.496094 C 368.839844 383.011719 368.679688 388.523438 368.484375 394.039062 C 364.121094 393.949219 359.757812 393.894531 355.390625 393.949219 C 349.15625 394.03125 342.550781 393.511719 336.296875 394.765625 C 333.222656 395.378906 330.058594 396.371094 327.65625 398.371094 C 326.246094 399.546875 321.839844 406.710938 327.148438 404.617188 C 341.136719 399.101562 403.523438 401.992188 407.765625 404.890625 C 412.179688 407.910156 420.03125 406.164062 417.761719 403.292969 " fill-opacity="1" fill-rule="nonzero"/><path fill="#cb5f4d" d="M 351.625 392.476562 C 341.988281 392.394531 327.878906 392.6875 320.417969 398.453125 C 317.136719 400.984375 307.171875 422.316406 307.171875 422.316406 C 308.816406 426.480469 311.375 432.601562 313.375 436.625 C 313.90625 437.707031 314.449219 438.800781 314.667969 439.976562 C 314.96875 441.59375 314.496094 443.226562 314.320312 444.859375 C 310.320312 482.4375 305.535156 520.074219 301.394531 554.984375 C 300.96875 558.601562 300.996094 565.570312 302.167969 569.039062 C 303.363281 572.574219 323.109375 573.765625 332.769531 570.46875 C 335.851562 569.414062 336.59375 565.613281 337.007812 562.519531 C 344.976562 503.296875 346.691406 451.957031 352.171875 392.480469 C 351.992188 392.480469 351.804688 392.476562 351.625 392.476562 " fill-opacity="1" fill-rule="nonzero"/><path fill="#cb5f4d" d="M 383.667969 392.480469 C 389.152344 451.957031 390.867188 503.296875 398.832031 562.519531 C 399.25 565.613281 399.988281 569.414062 403.074219 570.46875 C 412.734375 573.765625 432.480469 572.574219 433.675781 569.039062 C 434.847656 565.570312 434.875 558.601562 434.445312 554.984375 C 430.304688 520.074219 425.523438 482.4375 421.519531 444.859375 C 421.347656 443.226562 420.875 441.59375 421.175781 439.976562 C 421.394531 438.800781 421.933594 437.707031 422.46875 436.625 C 424.464844 432.601562 427.027344 426.480469 428.667969 422.316406 C 428.667969 422.316406 418.707031 400.984375 415.425781 398.453125 C 407.960938 392.6875 393.855469 392.394531 384.21875 392.476562 C 384.035156 392.476562 383.851562 392.480469 383.667969 392.480469 " fill-opacity="1" fill-rule="nonzero"/><path fill="#cb5f4d" d="M 352.546875 390.871094 C 352.3125 390.84375 352.070312 390.847656 351.8125 390.957031 C 348.097656 392.492188 346.117188 393.699219 343.714844 396.859375 C 340.984375 400.445312 338.714844 404.335938 336.929688 408.429688 C 336.195312 410.113281 334.394531 413.078125 336.128906 414.796875 C 336.328125 414.988281 336.585938 415.160156 336.863281 415.308594 C 335.277344 415.664062 333.726562 416.214844 333.0625 417.367188 C 331.59375 419.921875 336.503906 440.378906 337.082031 442.910156 C 339.640625 454.121094 340.375 465.960938 345.902344 477.316406 C 347.941406 481.503906 349.480469 440.765625 349.8125 433.527344 C 350.445312 419.710938 350.949219 405.8125 354.453125 392.328125 C 354.757812 391.15625 353.417969 390.488281 352.546875 390.871094 " fill-opacity="1" fill-rule="nonzero"/><path fill="#2b0303" d="M 345.902344 477.835938 C 345.695312 477.835938 345.5 477.714844 345.417969 477.511719 C 336.582031 456.097656 330.980469 419.933594 332.609375 417.105469 C 333.230469 416.027344 334.457031 415.441406 335.675781 415.074219 C 334.039062 413.328125 335.285156 410.699219 336.109375 408.953125 C 336.234375 408.6875 336.351562 408.445312 336.449219 408.21875 C 338.265625 404.054688 340.574219 400.125 343.296875 396.542969 C 345.800781 393.253906 347.886719 392.015625 351.613281 390.476562 C 351.917969 390.34375 352.242188 390.300781 352.613281 390.351562 C 352.898438 390.386719 353.101562 390.648438 353.066406 390.933594 C 353.03125 391.222656 352.785156 391.425781 352.484375 391.394531 C 352.296875 391.367188 352.152344 391.382812 352.011719 391.441406 C 348.394531 392.933594 346.5 394.0625 344.132812 397.175781 C 341.457031 400.695312 339.195312 404.550781 337.40625 408.640625 C 337.308594 408.871094 337.1875 409.128906 337.058594 409.398438 C 336.300781 411 335.261719 413.195312 336.5 414.421875 C 336.640625 414.5625 336.835938 414.699219 337.117188 414.851562 C 337.304688 414.957031 337.414062 415.171875 337.378906 415.382812 C 337.351562 415.597656 337.191406 415.773438 336.976562 415.820312 C 335.785156 416.089844 334.128906 416.570312 333.515625 417.628906 C 332.1875 419.933594 337.460938 455.484375 346.386719 477.117188 C 346.496094 477.382812 346.371094 477.691406 346.101562 477.800781 C 346.039062 477.828125 345.96875 477.835938 345.902344 477.835938 " fill-opacity="1" fill-rule="nonzero"/><path fill="#cb5f4d" d="M 381.644531 392.328125 C 385.144531 405.8125 385.648438 419.710938 386.28125 433.527344 C 386.613281 440.765625 388.152344 481.503906 390.191406 477.316406 C 395.71875 465.960938 396.453125 454.121094 399.011719 442.910156 C 399.589844 440.378906 404.503906 419.921875 403.03125 417.367188 C 402.371094 416.214844 400.820312 415.664062 399.234375 415.308594 C 399.511719 415.160156 399.765625 414.988281 399.964844 414.796875 C 401.699219 413.078125 399.902344 410.113281 399.167969 408.429688 C 397.378906 404.335938 395.109375 400.445312 392.378906 396.859375 C 389.976562 393.699219 387.996094 392.492188 384.285156 390.957031 C 384.027344 390.847656 383.78125 390.84375 383.546875 390.871094 C 382.675781 390.488281 381.339844 391.15625 381.644531 392.328125 " fill-opacity="1" fill-rule="nonzero"/><path fill="#2b0303" d="M 390.191406 477.835938 C 390.113281 477.835938 390.03125 477.820312 389.957031 477.78125 C 389.699219 477.652344 389.59375 477.335938 389.722656 477.082031 C 400.078125 456.503906 403.890625 419.90625 402.578125 417.628906 C 401.96875 416.570312 400.3125 416.089844 399.117188 415.820312 C 398.90625 415.773438 398.746094 415.597656 398.714844 415.382812 C 398.683594 415.171875 398.789062 414.957031 398.980469 414.851562 C 399.257812 414.699219 399.453125 414.5625 399.597656 414.421875 C 400.832031 413.199219 399.796875 411 399.035156 409.398438 C 398.910156 409.128906 398.785156 408.871094 398.6875 408.640625 C 396.902344 404.550781 394.640625 400.695312 391.960938 397.175781 C 389.589844 394.0625 387.695312 392.933594 384.082031 391.441406 C 383.945312 391.386719 383.800781 391.371094 383.613281 391.394531 C 383.304688 391.425781 383.0625 391.222656 383.027344 390.933594 C 382.992188 390.648438 383.195312 390.386719 383.484375 390.351562 C 383.847656 390.304688 384.175781 390.34375 384.484375 390.476562 C 388.207031 392.015625 390.292969 393.253906 392.796875 396.539062 C 395.523438 400.125 397.828125 404.054688 399.648438 408.21875 C 399.742188 408.445312 399.859375 408.6875 399.984375 408.953125 C 400.8125 410.699219 402.054688 413.328125 400.421875 415.074219 C 401.636719 415.441406 402.867188 416.027344 403.488281 417.105469 C 405.140625 419.980469 400.667969 457.671875 390.660156 477.550781 C 390.570312 477.734375 390.382812 477.835938 390.191406 477.835938 " fill-opacity="1" fill-rule="nonzero"/><path fill="#2b0303" d="M 313.953125 411.382812 C 313.066406 422.59375 314.847656 433.789062 313.855469 445.011719 C 312.847656 456.480469 311.121094 467.914062 309.699219 479.339844 C 306.832031 502.414062 303.964844 525.492188 301.097656 548.566406 C 301.011719 549.234375 302.0625 549.226562 302.144531 548.566406 C 305.011719 525.492188 307.878906 502.414062 310.75 479.339844 C 312.167969 467.914062 313.890625 456.480469 314.90625 445.011719 C 315.898438 433.789062 314.117188 422.59375 315.003906 411.382812 C 315.054688 410.710938 314.007812 410.714844 313.953125 411.382812 " fill-opacity="1" fill-rule="nonzero"/><path fill="#2b0303" d="M 418.78125 413.832031 C 416.253906 425.097656 417.023438 436.59375 417.921875 448.007812 C 418.851562 459.8125 420.03125 471.597656 421.460938 483.351562 C 424.324219 506.929688 428.191406 530.375 433.007812 553.636719 C 433.144531 554.292969 434.15625 554.015625 434.019531 553.355469 C 429.222656 530.191406 425.355469 506.839844 422.507812 483.351562 C 421.136719 472.046875 419.992188 460.71875 419.078125 449.367188 C 418.132812 437.609375 417.183594 425.730469 419.789062 414.113281 C 419.9375 413.453125 418.925781 413.175781 418.78125 413.832031 " fill-opacity="1" fill-rule="nonzero"/><path fill="#2b0303" d="M 398.617188 415.09375 C 397.574219 415.265625 396.523438 415.441406 395.480469 415.617188 C 394.816406 415.730469 395.097656 416.738281 395.757812 416.628906 C 396.804688 416.453125 397.851562 416.277344 398.898438 416.101562 C 399.558594 415.992188 399.277344 414.984375 398.617188 415.09375 " fill-opacity="1" fill-rule="nonzero"/><path fill="#2b0303" d="M 337.488281 415.960938 C 338.925781 416.53125 340.367188 417.101562 341.804688 417.671875 C 342.433594 417.921875 342.707031 416.90625 342.085938 416.660156 C 340.644531 416.089844 339.207031 415.519531 337.765625 414.949219 C 337.140625 414.699219 336.867188 415.714844 337.488281 415.960938 " fill-opacity="1" fill-rule="nonzero"/><path fill="#2b0303" d="M 325.484375 502.144531 C 320.765625 506.335938 315.480469 509.664062 309.6875 512.164062 C 309.070312 512.433594 309.601562 513.335938 310.214844 513.070312 C 316.09375 510.527344 321.441406 507.132812 326.226562 502.882812 C 326.730469 502.433594 325.988281 501.695312 325.484375 502.144531 " fill-opacity="1" fill-rule="nonzero"/><path fill="#2b0303" d="M 408.933594 502.945312 C 413.589844 507.023438 418.25 511.105469 422.90625 515.1875 C 423.410156 515.632812 424.15625 514.894531 423.648438 514.449219 C 418.988281 510.367188 414.332031 506.289062 409.675781 502.207031 C 409.167969 501.761719 408.425781 502.5 408.933594 502.945312 " fill-opacity="1" fill-rule="nonzero"/><path fill="#fa9b75" d="M 611.761719 231.367188 C 611.925781 228.949219 609.894531 226.941406 606.453125 228.167969 C 606.347656 228.046875 606.230469 227.933594 606.074219 227.84375 C 604.082031 226.75 602.363281 226.683594 600.925781 227.289062 C 600.878906 227.195312 600.839844 227.097656 600.757812 227.003906 C 598.796875 224.777344 596.203125 220.832031 593.0625 224.050781 C 592.605469 224.523438 592.199219 225.070312 591.832031 225.660156 C 590.953125 223.113281 589.945312 220.316406 586.980469 220.886719 C 583.144531 221.621094 579.78125 226.34375 578.125 229.535156 C 577.003906 231.699219 574.585938 236.78125 578.074219 238.085938 C 579.652344 238.675781 581.136719 237.710938 582.421875 236.863281 C 583.878906 235.902344 587.476562 231.660156 589.679688 231.671875 C 589.234375 234.136719 589.152344 236.660156 589.355469 238.707031 C 589.617188 241.355469 590.585938 245.566406 593.914062 242.878906 C 594.257812 242.597656 594.851562 241.59375 595.550781 240.273438 C 595.601562 240.753906 595.671875 241.214844 595.769531 241.636719 C 596.40625 244.273438 598.789062 244.636719 600.5625 242.632812 C 601.125 242 601.578125 241.304688 601.976562 240.582031 C 602.34375 242.398438 603.304688 244.003906 605.554688 242.984375 C 606.839844 242.398438 607.332031 240.976562 607.886719 239.773438 C 608.433594 238.574219 611.554688 234.5 611.761719 231.367188 " fill-opacity="1" fill-rule="nonzero"/><path fill="#fe9f7a" d="M 379.394531 359.429688 C 379.128906 359.09375 378.855469 358.773438 378.574219 358.472656 C 375.085938 354.675781 369.75 348.121094 363.90625 349.089844 C 361.335938 349.515625 359.695312 351.328125 358.609375 353.644531 C 358.136719 354.644531 357.132812 355.246094 356.035156 355.390625 C 354.316406 355.617188 351.8125 356.621094 351.292969 356.90625 C 348.703125 358.335938 348.195312 360.722656 348.457031 363.550781 C 348.46875 363.691406 348.507812 363.824219 348.523438 363.964844 C 344.238281 364.316406 341.847656 368.691406 342.703125 372.835938 C 342.59375 372.871094 342.492188 372.929688 342.398438 373.046875 C 339.761719 376.171875 341.644531 380.175781 345.019531 381.664062 C 349.605469 383.691406 355.011719 382.542969 359.886719 380.949219 C 361.328125 380.476562 362.859375 380.40625 364.363281 380.628906 C 368.035156 381.164062 371.808594 380.578125 375.375 379.683594 C 376.128906 379.492188 383.878906 377.695312 383.964844 377.117188 C 384.671875 372.433594 382.375 363.15625 379.394531 359.429688 " fill-opacity="1" fill-rule="nonzero"/><path fill="#2b0303" d="M 383.207031 378.425781 C 383.148438 379.519531 383.046875 380.609375 382.90625 381.695312 C 382.789062 382.585938 384.1875 382.574219 384.304688 381.695312 C 384.441406 380.609375 384.542969 379.519531 384.605469 378.425781 C 384.652344 377.527344 383.257812 377.535156 383.207031 378.425781 " fill-opacity="1" fill-rule="nonzero"/><path fill="#2b0303" d="M 398.316406 347.480469 C 403.4375 344.140625 409.378906 343.289062 415.230469 345.070312 C 415.878906 345.265625 416.15625 344.253906 415.511719 344.058594 C 409.421875 342.207031 403.117188 343.097656 397.789062 346.574219 C 397.226562 346.941406 397.75 347.851562 398.316406 347.480469 " fill-opacity="1" fill-rule="nonzero"/><path fill="#170301" d="M 509.195312 193.042969 C 505.089844 191.226562 503.613281 199.140625 506.234375 200.972656 C 508.5 202.558594 510.148438 200.070312 510.625 198.5 C 511.082031 196.976562 511.210938 193.933594 509.195312 193.042969 " fill-opacity="1" fill-rule="nonzero"/><path fill="#170301" d="M 484.515625 192.964844 C 480.296875 191.433594 479.371094 199.433594 482.109375 201.082031 C 484.476562 202.507812 485.953125 199.914062 486.316406 198.3125 C 486.671875 196.761719 486.589844 193.714844 484.515625 192.964844 " fill-opacity="1" fill-rule="nonzero"/><path fill="#c45547" d="M 508.195312 224.09375 C 504.089844 226.773438 499.878906 227.605469 495.023438 227.582031 C 491.003906 227.558594 486.949219 227.453125 483.554688 225.035156 C 483.003906 224.640625 482.480469 225.550781 483.027344 225.9375 C 486.578125 228.472656 490.796875 228.605469 495.023438 228.628906 C 500.042969 228.652344 504.480469 227.773438 508.722656 224.996094 C 509.285156 224.628906 508.761719 223.722656 508.195312 224.09375 " fill-opacity="1" fill-rule="nonzero"/><path fill="#c45547" d="M 492.417969 199.761719 C 491.585938 201.066406 490.6875 202.605469 491.121094 204.210938 C 491.535156 205.761719 492.988281 207.125 494.152344 208.132812 C 494.660156 208.570312 495.40625 207.832031 494.894531 207.386719 C 494.011719 206.628906 493.113281 205.777344 492.515625 204.761719 C 491.582031 203.175781 492.453125 201.65625 493.320312 200.292969 C 493.683594 199.722656 492.777344 199.199219 492.417969 199.761719 " fill-opacity="1" fill-rule="nonzero"/><path fill="#c45547" d="M 497.738281 206.808594 C 498.347656 206.503906 499.003906 206.5 499.613281 206.800781 C 500.214844 207.097656 500.746094 206.195312 500.140625 205.898438 C 499.179688 205.417969 498.167969 205.417969 497.210938 205.902344 C 496.609375 206.207031 497.136719 207.109375 497.738281 206.808594 " fill-opacity="1" fill-rule="nonzero"/><path fill="#c45547" d="M 588.492188 234.460938 C 588.480469 236.671875 588.582031 238.902344 588.917969 241.09375 C 589.144531 242.527344 589.53125 243.730469 590.746094 244.589844 C 591.296875 244.980469 591.820312 244.074219 591.273438 243.683594 C 589.808594 242.644531 589.84375 240.402344 589.703125 238.796875 C 589.578125 237.355469 589.53125 235.910156 589.539062 234.460938 C 589.542969 233.785156 588.496094 233.785156 588.492188 234.460938 " fill-opacity="1" fill-rule="nonzero"/><path fill="#c45547" d="M 586.3125 232.941406 C 586.082031 233.171875 585.855469 233.398438 585.625 233.625 C 585.148438 234.105469 585.886719 234.847656 586.367188 234.367188 C 586.59375 234.140625 586.824219 233.910156 587.050781 233.679688 C 587.53125 233.203125 586.789062 232.464844 586.3125 232.941406 " fill-opacity="1" fill-rule="nonzero"/><path fill="#c45547" d="M 598.777344 228.890625 C 596.421875 232.773438 594.808594 238.027344 595.628906 242.628906 C 596.523438 247.660156 600.042969 243.570312 601.738281 241.320312 C 602.148438 240.78125 601.234375 240.257812 600.835938 240.789062 C 599.996094 241.902344 597.734375 245.644531 596.761719 242.984375 C 596.382812 241.949219 596.484375 240.488281 596.53125 239.398438 C 596.679688 235.957031 597.917969 232.328125 599.683594 229.421875 C 600.035156 228.84375 599.128906 228.316406 598.777344 228.890625 " fill-opacity="1" fill-rule="nonzero"/><path fill="#c45547" d="M 604.695312 230.699219 C 603.074219 233.464844 599.109375 240.027344 601.714844 243.292969 C 604.4375 246.707031 607.902344 241.003906 609.070312 239.039062 C 609.417969 238.460938 608.515625 237.933594 608.167969 238.511719 C 607.527344 239.578125 606.902344 240.671875 606.097656 241.621094 C 605.667969 242.117188 604.855469 243.058594 604.160156 243.160156 C 601.910156 243.496094 601.992188 241.183594 602.113281 239.972656 C 602.429688 236.863281 604.046875 233.878906 605.601562 231.230469 C 605.941406 230.648438 605.035156 230.117188 604.695312 230.699219 " fill-opacity="1" fill-rule="nonzero"/><path fill="#cf6446" d="M 502.351562 210.074219 C 498.6875 211.496094 494.910156 212.453125 490.957031 211.855469 C 490.152344 211.734375 489.789062 212.855469 490.4375 213.125 C 490.476562 213.347656 490.617188 213.554688 490.898438 213.640625 C 495.179688 214.902344 498.675781 214.933594 503.023438 211.222656 C 503.535156 210.785156 502.980469 209.832031 502.351562 210.074219 " fill-opacity="1" fill-rule="nonzero"/><path fill="#c45547" d="M 349.386719 365.796875 C 350.109375 370.726562 352.246094 380.699219 359.140625 379.621094 C 359.804688 379.515625 359.523438 378.507812 358.863281 378.609375 C 352.863281 379.550781 351.015625 369.714844 350.398438 365.519531 C 350.300781 364.851562 349.289062 365.136719 349.386719 365.796875 " fill-opacity="1" fill-rule="nonzero"/><path fill="#c45547" d="M 343.9375 374.125 C 344.425781 377.886719 347.300781 380.980469 351.082031 381.578125 C 351.742188 381.679688 352.023438 380.675781 351.359375 380.566406 C 348.082031 380.050781 345.417969 377.449219 344.984375 374.125 C 344.898438 373.464844 343.851562 373.457031 343.9375 374.125 " fill-opacity="1" fill-rule="nonzero"/><path fill="#c45547" d="M 358.785156 357.644531 C 358.777344 364.242188 359.449219 373.433594 364.546875 378.238281 C 365.039062 378.703125 365.78125 377.964844 365.289062 377.5 C 360.507812 372.988281 359.824219 363.800781 359.832031 357.644531 C 359.832031 356.972656 358.785156 356.96875 358.785156 357.644531 " fill-opacity="1" fill-rule="nonzero"/><path fill="#c45547" d="M 377.421875 365.574219 C 373.785156 366.441406 369.621094 368.539062 369.671875 372.863281 C 369.71875 376.667969 373.5 377.839844 376.648438 378.144531 C 377.320312 378.207031 377.316406 377.160156 376.648438 377.097656 C 373.757812 376.8125 370.125 375.628906 370.824219 371.964844 C 371.457031 368.636719 374.746094 367.285156 377.699219 366.585938 C 378.355469 366.429688 378.078125 365.417969 377.421875 365.574219 " fill-opacity="1" fill-rule="nonzero"/><path fill="#c45547" d="M 375.15625 365.777344 C 373.699219 363.988281 372.53125 362.019531 371.628906 359.894531 C 371.363281 359.277344 370.460938 359.808594 370.722656 360.421875 C 371.664062 362.632812 372.902344 364.65625 374.414062 366.519531 C 374.839844 367.042969 375.578125 366.296875 375.15625 365.777344 " fill-opacity="1" fill-rule="nonzero"/><path fill="#c45547" d="M 371.597656 363.367188 C 371.742188 364.589844 371.886719 365.808594 372.03125 367.03125 C 372.109375 367.695312 373.15625 367.703125 373.078125 367.03125 C 372.933594 365.808594 372.792969 364.589844 372.644531 363.367188 C 372.570312 362.707031 371.519531 362.695312 371.597656 363.367188 " fill-opacity="1" fill-rule="nonzero"/><path fill="#2b0303" d="M 482.738281 246.582031 C 490.871094 249.804688 500.847656 249.515625 508.8125 245.941406 C 509.628906 245.574219 508.921875 244.367188 508.105469 244.734375 C 500.480469 248.15625 490.871094 248.308594 483.109375 245.238281 C 482.273438 244.90625 481.910156 246.257812 482.738281 246.582031 " fill-opacity="1" fill-rule="nonzero"/><path fill="#ffffff" d="M 299.894531 162.421875 C 299.714844 162.136719 299.4375 161.898438 299.039062 161.792969 C 292.039062 159.917969 284.648438 162.765625 278.871094 166.65625 C 276.5 168.253906 272.480469 170.78125 271.195312 173.429688 C 269.5 176.917969 272.203125 181.164062 273.730469 184.140625 C 275.546875 187.667969 278.25 195.453125 282.527344 196.800781 C 286.617188 198.09375 292.679688 195.753906 296.34375 194.097656 C 301.582031 191.738281 306.023438 188.144531 309.652344 183.714844 C 309.773438 183.5625 309.851562 183.414062 309.898438 183.257812 C 310.140625 183.007812 310.269531 182.648438 310.1875 182.191406 C 309.4375 178 302.457031 164.40625 299.894531 162.421875 " fill-opacity="1" fill-rule="nonzero"/><path fill="#cb5f4d" d="M 275.019531 186.875 C 280.765625 188.035156 287.195312 186.550781 292.445312 184.328125 C 298.230469 181.882812 304.320312 177.582031 305.472656 171 C 303.378906 167.015625 301.128906 163.378906 299.894531 162.421875 C 299.714844 162.136719 299.4375 161.898438 299.039062 161.792969 C 292.039062 159.917969 284.648438 162.765625 278.871094 166.65625 C 276.5 168.253906 272.480469 170.78125 271.195312 173.429688 C 269.5 176.917969 272.203125 181.164062 273.730469 184.140625 C 274.117188 184.890625 274.546875 185.835938 275.019531 186.875 " fill-opacity="1" fill-rule="nonzero"/><path fill="#2b0303" d="M 298.582031 163.4375 C 297.820312 168.382812 292.722656 170.746094 288.726562 172.890625 C 283.941406 175.453125 278.882812 177.226562 273.398438 176.25 C 272.742188 176.132812 272.457031 177.140625 273.121094 177.261719 C 278.898438 178.292969 284.195312 176.5 289.253906 173.792969 C 293.523438 171.507812 298.777344 169 299.59375 163.71875 C 299.695312 163.058594 298.683594 162.773438 298.582031 163.4375 " fill-opacity="1" fill-rule="nonzero"/><path fill="#59242e" d="M 345.921875 142.65625 C 345.214844 140.796875 342.167969 142.804688 340.605469 142.992188 C 336.011719 143.535156 331.691406 144.328125 327.089844 143.511719 C 324.746094 143.089844 320.570312 142.839844 321.09375 142.65625 C 320.886719 148.390625 321.78125 158.515625 325.65625 159.46875 C 329.167969 160.328125 336.71875 159.734375 340.335938 159.433594 C 343.171875 159.195312 344.15625 157.855469 344.851562 154.933594 C 345.316406 152.980469 345.660156 150.996094 345.882812 149 C 346.046875 147.519531 346.460938 144.066406 345.921875 142.65625 " fill-opacity="1" fill-rule="nonzero"/><path fill="#de9f87" d="M 349.609375 86.152344 C 349.585938 85.332031 349.171875 84.765625 348.617188 84.453125 C 344.703125 79.289062 315.980469 80.664062 315.980469 87.550781 C 315.980469 99.335938 316.546875 111.113281 317.210938 122.878906 C 317.683594 131.246094 316.976562 141.175781 321.175781 148.75 C 321.25 149.042969 321.40625 149.308594 321.628906 149.527344 C 322.195312 150.332031 341.71875 154.75 345.972656 148.1875 C 348.035156 145.003906 348.15625 129.984375 348.78125 122.464844 C 349.785156 110.378906 350.007812 98.265625 349.609375 86.152344 " fill-opacity="1" fill-rule="nonzero"/><path fill="#ffffff" d="M 339.226562 96.121094 C 337.128906 94.234375 334.316406 93.144531 331.273438 93.582031 C 323.007812 94.777344 319.914062 104.488281 325.421875 110.492188 C 329.117188 114.515625 336.96875 114.003906 340.519531 110.097656 C 344.496094 105.71875 343.0625 99.578125 339.226562 96.121094 " fill-opacity="1" fill-rule="nonzero"/><path fill="#2b0303" d="M 322.214844 146.101562 C 328.894531 149.433594 336.285156 148.816406 343.203125 146.527344 C 343.839844 146.316406 343.566406 145.300781 342.921875 145.515625 C 336.28125 147.714844 329.183594 148.410156 322.742188 145.195312 C 322.140625 144.894531 321.609375 145.796875 322.214844 146.101562 " fill-opacity="1" fill-rule="nonzero"/><path fill="#59242e" d="M 364.742188 159.574219 C 364.679688 157.652344 361.265625 158.53125 359.78125 158.207031 C 355.40625 157.257812 351.207031 156.628906 347.261719 154.429688 C 345.25 153.308594 341.515625 151.769531 342.050781 151.761719 C 340.054688 156.945312 337.6875 166.480469 340.925781 168.5625 C 343.867188 170.457031 350.957031 172.292969 354.355469 173.152344 C 357.023438 173.828125 358.34375 172.910156 359.902344 170.460938 C 360.941406 168.824219 361.878906 167.117188 362.710938 165.359375 C 363.328125 164.058594 364.792969 161.03125 364.742188 159.574219 " fill-opacity="1" fill-rule="nonzero"/><path fill="#bcc4e0" d="M 386.375 109.925781 C 386.605469 109.167969 386.40625 108.523438 385.996094 108.0625 C 384.046875 102.113281 356.1875 93.84375 354.019531 100.140625 C 350.3125 110.914062 347.097656 121.613281 344 132.578125 C 341.796875 140.375 338.75 149.117188 340.207031 157.363281 C 340.183594 157.652344 340.242188 157.9375 340.375 158.210938 C 340.640625 159.128906 357.09375 169.304688 363.046875 164.644531 C 365.933594 162.386719 371.699219 148.550781 374.636719 141.871094 C 379.355469 131.140625 382.925781 121.125 386.375 109.925781 " fill-opacity="1" fill-rule="nonzero"/><path fill="#ffffff" d="M 373.269531 114.929688 C 371.945312 112.546875 369.714844 110.667969 366.796875 110.113281 C 358.871094 108.601562 352.980469 116.503906 356.128906 123.726562 C 358.242188 128.566406 365.578125 130.570312 370.050781 128.113281 C 375.066406 125.363281 375.6875 119.300781 373.269531 114.929688 " fill-opacity="1" fill-rule="nonzero"/><path fill="#2b0303" d="M 342.003906 155.304688 C 347.0625 160.453125 354.03125 162.191406 361.070312 162.277344 C 361.746094 162.285156 361.746094 161.238281 361.070312 161.226562 C 354.300781 161.148438 347.617188 159.527344 342.746094 154.5625 C 342.269531 154.082031 341.53125 154.824219 342.003906 155.304688 " fill-opacity="1" fill-rule="nonzero"/><path fill="#ffffff" d="M 665.351562 101.632812 C 666.9375 100.234375 666.941406 97.757812 665.359375 96.355469 C 650.628906 83.269531 631.433594 75.636719 611.609375 75.632812 C 599.429688 75.632812 587.664062 79.457031 575.515625 79.65625 C 568.203125 79.773438 560.867188 78.316406 554.132812 75.46875 C 546.402344 72.195312 545.066406 66.082031 540.621094 59.34375 C 536.996094 46.113281 531.976562 33.335938 525.613281 21.109375 C 525.398438 20.691406 525.113281 20.402344 524.800781 20.203125 C 524.921875 19.15625 524.414062 18.136719 523.046875 17.941406 C 518.269531 17.265625 508.324219 15.144531 504.332031 18.800781 C 500.84375 21.992188 510.617188 24.085938 505.507812 51.671875 C 505.421875 52.144531 504.882812 52.386719 504.480469 52.132812 C 498.257812 48.199219 492.746094 43.292969 487.515625 38.136719 C 477.984375 28.734375 471.277344 29.4375 459.242188 36.046875 C 457.164062 36.117188 455.824219 39.28125 458.074219 40.644531 C 460.75 42.273438 463.265625 44.082031 465.621094 46.050781 C 465.71875 46.292969 465.835938 46.539062 466.027344 46.761719 C 478.761719 61.589844 479.398438 80.242188 481.03125 83.660156 C 482.410156 86.558594 485.207031 89.09375 487.65625 91.085938 C 491.273438 94.027344 495.328125 96.191406 499.625 97.734375 C 502.996094 108.054688 506.929688 118.183594 511.472656 128.054688 C 516.875 139.804688 522.75 152.226562 531.054688 162.25 C 538.992188 171.832031 549.417969 176.003906 561.53125 177.710938 C 574.769531 179.570312 587.628906 181.109375 600.445312 184.617188 C 600.761719 185.820312 607.914062 186.035156 608.398438 185.191406 C 613.652344 182.75 617.835938 178.019531 621.503906 173.636719 C 628.820312 164.90625 632.871094 152.117188 638.097656 142.097656 C 641.746094 135.097656 644.828125 123.621094 649.226562 117.046875 C 650.929688 114.503906 660.449219 105.964844 665.351562 101.632812 " fill-opacity="1" fill-rule="nonzero"/><path fill="#2b0303" d="M 504.652344 58.621094 C 504.300781 70.507812 505.710938 82.277344 508.847656 93.75 C 509.023438 94.398438 510.035156 94.121094 509.855469 93.472656 C 506.746094 82.09375 505.355469 70.410156 505.699219 58.621094 C 505.71875 57.949219 504.671875 57.949219 504.652344 58.621094 " fill-opacity="1" fill-rule="nonzero"/><path fill="#2b0303" d="M 540.808594 72.285156 C 532.539062 83.03125 522.855469 94.945312 508.152344 95.605469 C 507.480469 95.636719 507.476562 96.683594 508.152344 96.652344 C 523.257812 95.976562 533.191406 83.890625 541.714844 72.8125 C 542.125 72.277344 541.214844 71.753906 540.808594 72.285156 " fill-opacity="1" fill-rule="nonzero"/><path fill="#2b0303" d="M 546.640625 76.550781 C 541.316406 91.925781 527.253906 103.300781 511.089844 105.265625 C 510.429688 105.347656 510.421875 106.398438 511.089844 106.316406 C 527.75 104.289062 542.15625 92.6875 547.648438 76.828125 C 547.871094 76.1875 546.859375 75.914062 546.640625 76.550781 " fill-opacity="1" fill-rule="nonzero"/><path fill="#2b0303" d="M 563.21875 116.242188 C 571.460938 120.542969 580.1875 125.050781 589.6875 125.320312 C 599.554688 125.601562 609.5 119.382812 619.15625 123.34375 C 619.777344 123.601562 620.046875 122.585938 619.429688 122.332031 C 610.777344 118.785156 602.070312 123.328125 593.355469 124.152344 C 582.726562 125.152344 572.878906 120.105469 563.75 115.335938 C 563.152344 115.023438 562.621094 115.925781 563.21875 116.242188 " fill-opacity="1" fill-rule="nonzero"/><path fill="#ffffff" d="M 410.835938 186.800781 C 401.648438 168.644531 377.65625 181.253906 365.84375 189.085938 C 355.972656 195.632812 346.132812 201.648438 335.523438 206.933594 C 327.292969 211.039062 319.976562 216.050781 314.371094 223.449219 C 308.410156 231.3125 304.804688 240.617188 303.214844 250.308594 C 300.78125 265.132812 292.402344 277.222656 280.402344 287.753906 C 277.515625 290.289062 280.949219 302.304688 285.421875 296.269531 C 291.066406 288.644531 303.636719 279.386719 306.152344 270.171875 C 309.464844 258.023438 308.65625 245.691406 314.640625 234.210938 C 320.875 222.246094 330.441406 216.203125 342.152344 210.375 C 353.375 204.792969 363.328125 197.492188 373.976562 190.964844 C 380.285156 187.09375 387.625 183.222656 395.269531 183.707031 C 405.664062 184.363281 408.605469 193.445312 405.878906 202.34375 C 402.066406 214.785156 391.78125 225.011719 381.652344 232.617188 C 373.535156 238.714844 364.664062 244.363281 358.777344 252.847656 C 352.652344 261.679688 350.621094 272.261719 348.90625 282.671875 C 348.277344 286.492188 354.21875 287.390625 354.847656 283.578125 C 356.71875 272.207031 359.019531 260.886719 367.054688 252.121094 C 373.921875 244.636719 383.03125 239.636719 390.726562 233.105469 C 402.507812 223.109375 419.222656 203.363281 410.835938 186.800781 " fill-opacity="1" fill-rule="nonzero"/><path fill="#ffffff" d="M 361.648438 276.59375 C 360.203125 272.550781 358.382812 268.429688 355.226562 266.6875 C 350.800781 264.246094 345.535156 267.164062 341.242188 268.589844 C 333.542969 271.144531 325.863281 273.761719 318.203125 276.441406 C 312.183594 278.542969 306.152344 280.613281 300.1875 282.875 C 283.414062 289.226562 279.703125 288.371094 280.890625 299.640625 C 281.730469 307.613281 283.972656 315.730469 285.726562 323.542969 C 287.503906 331.472656 289.410156 339.382812 291.558594 347.21875 C 292.585938 350.964844 293.15625 354.363281 297.125 355.597656 C 301.277344 356.890625 307.589844 354.085938 311.414062 352.773438 C 317.972656 350.523438 324.371094 347.777344 330.8125 345.21875 L 353.675781 336.136719 C 358.863281 334.074219 376.328125 329.621094 379.375 324.664062 C 382.351562 319.824219 375.703125 307.574219 373.90625 303.175781 C 371.214844 296.578125 362.503906 278.988281 361.648438 276.59375 " fill-opacity="1" fill-rule="nonzero"/><path fill="#2b0303" d="M 293.78125 318.84375 C 297.125 329.558594 300.042969 340.394531 302.527344 351.339844 C 302.675781 351.996094 303.6875 351.71875 303.535156 351.058594 C 301.054688 340.113281 298.136719 329.28125 294.792969 318.566406 C 294.589844 317.925781 293.578125 318.199219 293.78125 318.84375 " fill-opacity="1" fill-rule="nonzero"/><path fill="#2b0303" d="M 295.550781 285.105469 C 292.253906 287.066406 287.757812 288.667969 285.441406 291.878906 C 284.09375 293.753906 284.496094 295.078125 285.203125 297.160156 C 286.164062 299.980469 287.179688 302.765625 288.039062 305.617188 C 288.722656 307.898438 289.351562 310.195312 289.972656 312.496094 C 290.335938 313.847656 290.519531 315.910156 291.308594 317.101562 C 292.738281 319.257812 295.566406 317.820312 297.691406 317.273438 C 321.011719 311.261719 344.445312 304.398438 365.496094 292.433594 C 366.085938 292.101562 365.554688 291.195312 364.96875 291.527344 C 347.398438 301.515625 328.113281 307.921875 308.699219 313.265625 C 304.160156 314.515625 299.148438 316.53125 294.464844 317.019531 C 292.109375 317.265625 292.109375 316.320312 291.578125 314.425781 C 291.125 312.796875 290.703125 311.160156 290.253906 309.53125 C 289.652344 307.355469 289.023438 305.1875 288.339844 303.039062 C 287.636719 300.828125 286.425781 298.5 285.96875 296.242188 C 284.871094 290.8125 292.285156 288.265625 296.078125 286.007812 C 296.660156 285.664062 296.132812 284.757812 295.550781 285.105469 " fill-opacity="1" fill-rule="nonzero"/><path fill="#2b0303" d="M 354.246094 266.851562 C 355.640625 267.128906 356.753906 268.101562 357.164062 269.46875 C 357.355469 270.113281 358.367188 269.835938 358.171875 269.1875 C 357.664062 267.492188 356.273438 266.1875 354.527344 265.84375 C 353.867188 265.710938 353.585938 266.722656 354.246094 266.851562 " fill-opacity="1" fill-rule="nonzero"/><path fill="#bcc4e0" d="M 341.257812 300.085938 C 341.003906 299.351562 340.246094 298.910156 339.480469 299.070312 C 335.273438 299.964844 323.429688 303.652344 322.945312 305.589844 C 322.933594 305.636719 322.941406 305.683594 322.933594 305.730469 C 322.730469 306.023438 322.65625 306.402344 322.8125 306.859375 C 323.398438 308.566406 323.953125 312.707031 325.757812 313.75 C 327.53125 314.769531 335.957031 310.9375 337.839844 310.195312 C 339.015625 309.734375 341.230469 308.800781 342.703125 307.902344 C 343.316406 307.527344 343.578125 306.773438 343.339844 306.089844 L 341.257812 300.085938 " fill-opacity="1" fill-rule="nonzero"/><path fill="#de9f87" d="M 487.621094 51.554688 C 480.144531 50.101562 469.660156 54.730469 464.863281 57.136719 C 464.359375 57.386719 456.570312 53.414062 455.011719 53.09375 C 447.140625 51.464844 442.261719 52.53125 435.289062 56.324219 C 429.46875 59.488281 424.011719 63.734375 421 69.78125 C 419.167969 73.46875 419.890625 87.074219 421.617188 92.84375 C 418.695312 97.214844 416.425781 101.855469 415.320312 106.699219 C 411.523438 123.28125 430.386719 118.378906 439.5 114.84375 C 454.738281 108.925781 468.066406 98.800781 479.105469 86.863281 C 484.003906 81.570312 486.335938 77.292969 489.71875 70.917969 C 491.46875 67.617188 493.292969 63.804688 493.382812 59.992188 C 493.507812 54.648438 491.136719 52.242188 487.621094 51.554688 " fill-opacity="1" fill-rule="nonzero"/><path fill="#2b0303" d="M 462.960938 58.304688 C 447.546875 66.550781 433.890625 77.617188 422.636719 90.992188 C 422.207031 91.503906 422.945312 92.25 423.378906 91.730469 C 434.578125 78.421875 448.148438 67.414062 463.488281 59.207031 C 464.085938 58.886719 463.554688 57.984375 462.960938 58.304688 " fill-opacity="1" fill-rule="nonzero"/><path fill="#2b0303" d="M 484.609375 56.601562 C 475.648438 57.039062 468.074219 61.75 460.988281 66.875 C 453.65625 72.171875 446.359375 77.601562 439.605469 83.636719 C 432.945312 89.582031 426.746094 96.261719 422.152344 103.964844 C 420.773438 106.28125 419.035156 109.277344 420.714844 111.914062 C 422.230469 114.289062 425.597656 114.515625 428.113281 114.511719 C 428.789062 114.511719 428.789062 113.464844 428.113281 113.464844 C 426.351562 113.464844 424.433594 113.4375 422.933594 112.398438 C 421.558594 111.945312 421.226562 110.878906 421.941406 109.203125 C 421.476562 107.8125 421.652344 106.574219 422.464844 105.496094 C 422.789062 104.804688 423.265625 104.140625 423.667969 103.496094 C 425.699219 100.257812 428.003906 97.1875 430.5 94.292969 C 435.085938 88.984375 440.285156 84.242188 445.707031 79.804688 C 451.285156 75.242188 457.085938 70.894531 462.96875 66.738281 C 469.46875 62.140625 476.472656 58.050781 484.609375 57.652344 C 485.28125 57.617188 485.285156 56.570312 484.609375 56.601562 " fill-opacity="1" fill-rule="nonzero"/><path fill="#bcc4e0" d="M 740.199219 143.007812 C 739.714844 142.003906 739.890625 140.800781 740.679688 140.011719 C 744.578125 136.125 747.941406 131.515625 749.828125 126.261719 C 752.105469 119.902344 746.53125 116.785156 742.222656 113.15625 C 736.332031 108.203125 728.515625 102.578125 721.246094 100.128906 C 717.527344 98.875 702.25 100.710938 700.378906 104.414062 C 698.542969 108.023438 698.21875 111.539062 694.441406 113.792969 C 688.148438 117.546875 679.867188 113.820312 674.210938 110.429688 C 673.601562 110.070312 660.609375 114.382812 657.066406 122.257812 C 653.496094 130.191406 650.792969 138.5625 649.0625 147.128906 C 648.179688 151.507812 645.546875 158.914062 651.296875 160.734375 C 654.4375 161.730469 658.171875 160.796875 661.386719 160.863281 C 666.414062 160.96875 671.335938 161.738281 676.199219 162.964844 C 677.3125 163.242188 678.191406 164.09375 678.546875 165.183594 C 681.253906 173.5625 683.964844 181.941406 686.671875 190.320312 C 687.910156 194.148438 688.792969 201.476562 692.03125 204.097656 C 694.429688 206.042969 698.105469 204.808594 700.757812 204.164062 C 711.109375 201.648438 720.449219 196.164062 730.621094 193.105469 C 740.03125 190.273438 748.214844 190.273438 753.90625 180.949219 C 754.253906 180.386719 754.210938 179.855469 753.960938 179.445312 C 754.421875 179.050781 754.675781 178.414062 754.414062 177.652344 C 750.359375 165.792969 745.609375 154.234375 740.199219 143.007812 " fill-opacity="1" fill-rule="nonzero"/><path fill="#2b0303" d="M 672.839844 138.734375 C 675.265625 146.441406 676.394531 154.359375 676.199219 162.4375 C 676.1875 163.113281 677.234375 163.113281 677.25 162.4375 C 677.441406 154.265625 676.308594 146.253906 673.847656 138.453125 C 673.648438 137.816406 672.632812 138.085938 672.839844 138.734375 " fill-opacity="1" fill-rule="nonzero"/><path fill="#2b0303" d="M 725.453125 124.363281 C 729.34375 128.617188 732.5 133.367188 734.914062 138.597656 C 735.195312 139.210938 736.097656 138.679688 735.816406 138.070312 C 733.363281 132.757812 730.144531 127.9375 726.191406 123.625 C 725.738281 123.128906 725 123.871094 725.453125 124.363281 " fill-opacity="1" fill-rule="nonzero"/><path fill="#de9f87" d="M 720.972656 222.507812 C 721.507812 218.023438 717.882812 211.949219 716.476562 208.117188 C 711.113281 193.503906 704.796875 179.246094 697.59375 165.449219 C 696.839844 162.394531 695.878906 159.40625 694.695312 156.476562 C 694.273438 155.425781 693.222656 155.289062 692.433594 155.683594 C 692.257812 155.644531 692.070312 155.625 691.859375 155.644531 C 673.371094 157.554688 655.484375 162.441406 638.597656 170.203125 C 637.796875 170.570312 637.546875 171.308594 637.664062 171.984375 C 637.539062 172.242188 637.480469 172.546875 637.527344 172.902344 C 637.996094 176.425781 638.726562 179.882812 639.660156 183.308594 C 639.917969 202.703125 640.398438 222.152344 645.40625 241.03125 C 645.445312 241.746094 645.886719 242.40625 646.816406 242.484375 C 660.085938 243.628906 672.988281 240.035156 685.480469 235.988281 C 691.902344 233.90625 698.277344 231.679688 704.789062 229.898438 C 709.238281 228.683594 714.804688 229.183594 718.707031 226.394531 C 720.121094 225.390625 720.789062 224.042969 720.972656 222.507812 " fill-opacity="1" fill-rule="nonzero"/><path fill="#2b0303" d="M 695.097656 168.980469 C 677.75 172.351562 660.808594 177.394531 644.449219 184.0625 C 643.832031 184.316406 644.101562 185.332031 644.726562 185.074219 C 661.089844 178.40625 678.03125 173.359375 695.375 169.992188 C 696.039062 169.863281 695.753906 168.851562 695.097656 168.980469 " fill-opacity="1" fill-rule="nonzero"/><path fill="#2b0303" d="M 661.527344 181.605469 C 663.75 197.09375 666.375 212.519531 669.40625 227.867188 C 669.539062 228.527344 670.546875 228.246094 670.417969 227.589844 C 667.386719 212.238281 664.761719 196.816406 662.539062 181.328125 C 662.445312 180.664062 661.433594 180.945312 661.527344 181.605469 " fill-opacity="1" fill-rule="nonzero"/><path fill="#2b0303" d="M 679.171875 177.292969 C 687.800781 191.550781 695.050781 206.558594 700.839844 222.183594 C 701.070312 222.8125 702.085938 222.539062 701.851562 221.90625 C 696.027344 206.199219 688.75 191.097656 680.082031 176.765625 C 679.734375 176.1875 678.824219 176.714844 679.171875 177.292969 " fill-opacity="1" fill-rule="nonzero"/><path fill="#ffffff" d="M 748.617188 273.195312 C 742.511719 267.132812 734.535156 276.167969 728.761719 270.652344 C 726.003906 268.015625 725.441406 259.882812 724.699219 256.335938 C 723.699219 251.5625 722.550781 247.085938 720.585938 242.625 C 720.277344 241.925781 719.097656 241.480469 718.394531 241.773438 C 714.015625 243.585938 710.171875 245.789062 706.464844 248.765625 C 706.269531 248.921875 706.128906 249.101562 706.011719 249.285156 C 705.035156 249.519531 704.152344 250.414062 704.394531 251.675781 C 705.644531 258.132812 706.890625 264.59375 708.132812 271.046875 C 709.175781 276.457031 709.699219 282.359375 711.613281 287.542969 C 713.859375 293.613281 718.402344 295.027344 723.644531 294.300781 C 724.023438 294.511719 724.496094 294.589844 725.035156 294.4375 C 731.082031 292.71875 759.269531 283.761719 748.617188 273.195312 " fill-opacity="1" fill-rule="nonzero"/><path fill="#cf5f4c" d="M 748.617188 273.195312 C 743.597656 268.214844 737.316406 273.421875 732.03125 272.375 C 727.421875 278.019531 728.71875 285.570312 732.121094 292.117188 C 742.132812 288.445312 756.785156 281.296875 748.617188 273.195312 " fill-opacity="1" fill-rule="nonzero"/><path fill="#ffffff" d="M 719.433594 267.101562 C 715.238281 259.589844 705.074219 266.0625 701.054688 259.167969 C 699.132812 255.871094 700.84375 247.898438 701.113281 244.285156 C 701.46875 239.425781 701.609375 234.804688 700.953125 229.972656 C 700.851562 229.214844 699.839844 228.460938 699.085938 228.546875 C 694.378906 229.078125 690.070312 230.132812 685.683594 231.96875 C 685.453125 232.066406 685.265625 232.195312 685.101562 232.339844 C 684.101562 232.296875 683.007812 232.914062 682.890625 234.191406 C 682.300781 240.742188 681.710938 247.292969 681.125 253.84375 C 680.628906 259.328125 679.496094 265.144531 679.90625 270.652344 C 680.378906 277.109375 684.359375 279.726562 689.589844 280.480469 C 689.898438 280.785156 690.328125 280.992188 690.894531 280.992188 C 697.179688 281.015625 726.746094 280.203125 719.433594 267.101562 " fill-opacity="1" fill-rule="nonzero"/><path fill="#cf5f4c" d="M 719.433594 267.101562 C 715.535156 260.113281 706.46875 265.21875 701.984375 260.417969 C 694.652344 264.367188 689.101562 271.90625 687.8125 280.132812 C 688.386719 280.273438 688.980469 280.390625 689.589844 280.480469 C 689.898438 280.785156 690.328125 280.992188 690.894531 280.992188 C 697.179688 281.015625 726.746094 280.203125 719.433594 267.101562 " fill-opacity="1" fill-rule="nonzero"/><path fill="#2b0303" d="M 682.949219 244.902344 C 689.363281 243.710938 695.457031 241.597656 701.238281 238.578125 C 701.835938 238.265625 701.308594 237.363281 700.707031 237.675781 C 694.996094 240.660156 689 242.71875 682.667969 243.890625 C 682.007812 244.015625 682.285156 245.023438 682.949219 244.902344 " fill-opacity="1" fill-rule="nonzero"/><path fill="#2b0303" d="M 707.589844 259.726562 C 712.460938 258.296875 716.972656 256.128906 721.125 253.214844 C 721.671875 252.828125 721.152344 251.921875 720.597656 252.308594 C 716.515625 255.175781 712.105469 257.308594 707.3125 258.714844 C 706.664062 258.902344 706.9375 259.914062 707.589844 259.726562 " fill-opacity="1" fill-rule="nonzero"/><path fill="#2b0303" d="M 760.890625 307.347656 C 749.21875 308.0625 737.984375 312.738281 729.453125 320.789062 C 721.570312 328.222656 714.949219 339.777344 719.75 350.675781 C 724.113281 360.578125 735.894531 362.046875 745.359375 360.140625 C 756.113281 357.980469 766.164062 351.875 772.640625 342.972656 C 779.8125 333.109375 782.429688 319.199219 779.167969 307.445312 C 778.988281 306.796875 777.976562 307.074219 778.15625 307.722656 C 783.851562 328.246094 771.738281 349.617188 752.265625 357.054688 C 743.167969 360.527344 729.839844 362.25 722.875 353.757812 C 714.90625 344.039062 721.078125 330.878906 728.605469 323.089844 C 737.089844 314.316406 748.75 309.140625 760.890625 308.394531 C 761.5625 308.351562 761.566406 307.304688 760.890625 307.347656 " fill-opacity="1" fill-rule="nonzero"/><path fill="#ffffff" d="M 734.148438 313.90625 C 731.789062 313.320312 728.945312 313.859375 727.03125 315.480469 C 723.957031 318.070312 722.824219 323.628906 726.429688 326.289062 C 730.84375 329.546875 737.808594 324.546875 738.316406 319.773438 C 738.667969 316.472656 736.691406 314.539062 734.148438 313.90625 " fill-opacity="1" fill-rule="nonzero"/><path fill="#ffffff" d="M 776.667969 325.953125 C 774.625 326.558594 772.71875 328.234375 771.996094 330.316406 C 770.839844 333.652344 772.464844 338.371094 776.371094 338.78125 C 781.164062 339.285156 784.183594 332.390625 782.433594 328.542969 C 781.226562 325.886719 778.867188 325.300781 776.667969 325.953125 " fill-opacity="1" fill-rule="nonzero"/><path fill="#ffffff" d="M 778.191406 312.597656 C 776.695312 313.480469 775.519531 315.179688 775.359375 316.964844 C 775.101562 319.832031 777.320312 323.238281 780.488281 322.792969 C 784.371094 322.25 785.402344 316.203125 783.257812 313.507812 C 781.78125 311.648438 779.800781 311.648438 778.191406 312.597656 " fill-opacity="1" fill-rule="nonzero"/><path fill="#ffffff" d="M 750.578125 306.238281 C 748.757812 305.617188 746.476562 305.855469 744.851562 307.011719 C 742.253906 308.867188 740.984375 313.195312 743.652344 315.542969 C 746.917969 318.417969 752.753906 314.917969 753.476562 311.164062 C 753.972656 308.574219 752.542969 306.90625 750.578125 306.238281 " fill-opacity="1" fill-rule="nonzero"/><path fill="#ffffff" d="M 715.644531 346.859375 C 713.886719 348.476562 712.832031 351.128906 713.195312 353.621094 C 713.777344 357.613281 717.921875 361.671875 722.113281 360.1875 C 727.25 358.371094 726.683594 349.8125 722.875 346.710938 C 720.242188 344.566406 717.535156 345.113281 715.644531 346.859375 " fill-opacity="1" fill-rule="nonzero"/><path fill="#ffffff" d="M 720.523438 328.097656 C 718.007812 328.191406 715.335938 329.546875 713.894531 331.714844 C 711.589844 335.191406 712.066406 341.070312 716.417969 342.6875 C 721.746094 344.671875 727.230469 337.675781 726.359375 332.757812 C 725.761719 329.359375 723.230469 327.996094 720.523438 328.097656 " fill-opacity="1" fill-rule="nonzero"/><path fill="#ffffff" d="M 758.804688 350.257812 C 756.621094 349.015625 753.632812 348.765625 751.265625 349.851562 C 747.476562 351.59375 744.789062 356.839844 747.636719 360.507812 C 751.125 365 759.472656 361.933594 761.316406 357.292969 C 762.59375 354.085938 761.164062 351.597656 758.804688 350.257812 " fill-opacity="1" fill-rule="nonzero"/><path fill="#ffffff" d="M 772.046875 339.40625 C 769.71875 339.074219 767.035156 339.878906 765.355469 341.636719 C 762.660156 344.449219 762.125 349.933594 765.855469 352.144531 C 770.429688 354.847656 776.632812 349.320312 776.644531 344.65625 C 776.65625 341.433594 774.558594 339.761719 772.046875 339.40625 " fill-opacity="1" fill-rule="nonzero"/><path fill="#ffffff" d="M 741.820312 354.855469 C 739.839844 353.1875 736.847656 352.402344 734.226562 353.117188 C 730.019531 354.257812 726.242188 359.21875 728.414062 363.507812 C 731.074219 368.765625 740.179688 367.050781 742.984375 362.570312 C 744.917969 359.476562 743.953125 356.652344 741.820312 354.855469 " fill-opacity="1" fill-rule="nonzero"/><path fill="#ffffff" d="M 729.128906 362.730469 C 727.5625 359.402344 724.113281 357.246094 719.363281 359.015625 C 714.722656 360.097656 711.222656 365.574219 712.175781 370.265625 C 713.308594 375.851562 720.144531 377.527344 724.785156 375.453125 C 730.074219 373.082031 731.121094 366.960938 729.128906 362.730469 " fill-opacity="1" fill-rule="nonzero"/><path fill="#2b0303" d="M 727.929688 361.558594 C 728.683594 362.464844 729.152344 363.511719 729.367188 364.664062 C 729.492188 365.324219 730.503906 365.042969 730.378906 364.382812 C 730.128906 363.050781 729.539062 361.863281 728.671875 360.820312 C 728.242188 360.300781 727.503906 361.046875 727.929688 361.558594 " fill-opacity="1" fill-rule="nonzero"/><path fill="#2b0303" d="M 718.660156 359.269531 C 720.136719 358.40625 721.78125 358.195312 723.429688 358.652344 C 724.082031 358.835938 724.355469 357.824219 723.707031 357.644531 C 721.796875 357.113281 719.84375 357.363281 718.132812 358.363281 C 717.550781 358.703125 718.078125 359.609375 718.660156 359.269531 " fill-opacity="1" fill-rule="nonzero"/><path fill="#2b0303" d="M 699.117188 313.234375 C 699.449219 312.152344 699.832031 310.800781 700.554688 309.902344 C 701.527344 308.691406 703.371094 309.175781 704.167969 310.359375 C 704.542969 310.914062 705.453125 310.390625 705.074219 309.828125 C 704.28125 308.65625 702.195312 307.558594 700.78125 308.203125 C 699.25 308.898438 698.550781 311.496094 698.105469 312.957031 C 697.910156 313.605469 698.921875 313.882812 699.117188 313.234375 " fill-opacity="1" fill-rule="nonzero"/><path fill="#de9f87" d="M 697.371094 323.351562 C 697.101562 322.964844 696.769531 322.632812 696.367188 322.367188 C 696.109375 322.203125 695.796875 322.113281 695.421875 322.179688 C 691.914062 322.832031 689.050781 324.808594 687.222656 327.539062 C 686.4375 328.554688 685.8125 329.710938 685.410156 330.996094 C 684.695312 333.285156 683.742188 339.105469 687.269531 339.488281 C 690.597656 339.851562 694.070312 337.507812 695.921875 334.929688 C 697.789062 332.328125 699.414062 326.285156 697.371094 323.351562 " fill-opacity="1" fill-rule="nonzero"/><path fill="#ffffff" d="M 698.914062 310.785156 C 696.96875 310.257812 694.386719 313.105469 693.585938 314.230469 C 691.988281 316.492188 692.429688 319.132812 693.378906 321.507812 C 693.660156 322.214844 695.132812 323.433594 696.089844 322.914062 C 698.5625 321.5625 699.90625 319.507812 700.289062 317.101562 C 700.488281 315.835938 701.058594 311.363281 698.914062 310.785156 " fill-opacity="1" fill-rule="nonzero"/><path fill="#2b0303" d="M 695.335938 324.914062 C 697.007812 328.761719 695.683594 332.921875 692.152344 335.125 C 691.582031 335.484375 692.105469 336.390625 692.679688 336.03125 C 696.746094 333.496094 698.144531 328.761719 696.242188 324.386719 C 695.976562 323.769531 695.074219 324.300781 695.335938 324.914062 " fill-opacity="1" fill-rule="nonzero"/><path fill="#2b0303" d="M 683.839844 305.722656 C 683.867188 304.433594 684.140625 303.140625 684.785156 302.007812 C 685.023438 301.589844 685.351562 301.0625 685.851562 300.914062 C 686.597656 300.691406 687.382812 301.289062 687.957031 301.6875 C 688.507812 302.078125 689.035156 301.167969 688.484375 300.785156 C 687.191406 299.882812 685.644531 299.324219 684.4375 300.667969 C 683.25 301.988281 682.824219 304.003906 682.789062 305.722656 C 682.773438 306.398438 683.824219 306.398438 683.839844 305.722656 " fill-opacity="1" fill-rule="nonzero"/><path fill="#de9f87" d="M 685.734375 317.679688 C 685.5 317.269531 685.195312 316.910156 684.816406 316.613281 C 684.574219 316.425781 684.269531 316.3125 683.894531 316.347656 C 680.34375 316.695312 677.320312 318.417969 675.265625 320.984375 C 674.394531 321.925781 673.671875 323.027344 673.160156 324.273438 C 672.253906 326.492188 670.808594 332.207031 674.28125 332.890625 C 677.570312 333.539062 681.230469 331.5 683.296875 329.089844 C 685.382812 326.660156 687.523438 320.777344 685.734375 317.679688 " fill-opacity="1" fill-rule="nonzero"/><path fill="#ffffff" d="M 683.054688 303.15625 C 680.734375 303.328125 678.851562 307.160156 678.355469 308.597656 C 677.355469 311.476562 678.722656 314.003906 680.566406 316.078125 C 681.113281 316.695312 683.136719 317.402344 684.015625 316.523438 C 686.289062 314.253906 687.078125 311.675781 686.6875 309.085938 C 686.480469 307.722656 685.605469 302.96875 683.054688 303.15625 " fill-opacity="1" fill-rule="nonzero"/><path fill="#2b0303" d="M 683.589844 318.652344 C 684.972656 322.460938 684.320312 326.894531 680.257812 328.664062 C 679.640625 328.933594 680.171875 329.835938 680.785156 329.566406 C 685.238281 327.628906 686.128906 322.589844 684.601562 318.375 C 684.371094 317.746094 683.359375 318.015625 683.589844 318.652344 " fill-opacity="1" fill-rule="nonzero"/></svg>