<svg xmlns="http://www.w3.org/2000/svg" xmlns:xlink="http://www.w3.org/1999/xlink" width="1080" zoomAndPan="magnify" viewBox="0 0 810 809.999993" height="1080" preserveAspectRatio="xMidYMid meet" version="1.0"><defs><filter x="0%" y="0%" width="100%" height="100%" id="0d9326eca6"><feColorMatrix values="0 0 0 0 1 0 0 0 0 1 0 0 0 0 1 0 0 0 1 0" color-interpolation-filters="sRGB"/></filter><mask id="bc63a856bd"><g filter="url(#0d9326eca6)"><rect x="-81" width="972" fill="#000000" y="-80.999999" height="971.999992" fill-opacity="0.498"/></g></mask><clipPath id="9e806b97fb"><rect x="0" width="77" y="0" height="52"/></clipPath></defs><rect x="-81" width="972" fill="#ffffff" y="-80.999999" height="971.999992" fill-opacity="1"/><rect x="-81" width="972" fill="#ffffff" y="-80.999999" height="971.999992" fill-opacity="1"/><path fill="#fbb397" d="M 533.757812 224.871094 C 532.707031 228.65625 529.300781 253.753906 527.324219 272.003906 C 525.351562 290.238281 524.335938 311.996094 516.613281 337.945312 C 508.886719 363.890625 498.273438 327.242188 493.882812 303.714844 C 489.5 280.183594 496.871094 262.417969 500.441406 249.335938 C 504.023438 236.265625 508.332031 223.515625 508.835938 219.726562 C 509.355469 215.941406 510.28125 207.027344 516.410156 199.949219 C 522.539062 192.867188 532.289062 185.433594 532.289062 185.433594 L 556.199219 189.625 C 556.199219 189.625 557.84375 198.378906 552.78125 206.050781 C 546.96875 214.839844 534.316406 222.84375 533.757812 224.871094 Z M 533.757812 224.871094 " fill-opacity="1" fill-rule="evenodd"/><path fill="#000000" d="M 495.84375 183.34375 C 495.539062 183.726562 494.984375 183.789062 494.601562 183.472656 C 494.222656 183.167969 494.160156 182.609375 494.476562 182.230469 C 494.476562 182.230469 496.285156 179.964844 498.210938 175.785156 C 498.414062 175.34375 498.933594 175.152344 499.378906 175.355469 C 499.820312 175.558594 500.011719 176.078125 499.808594 176.519531 C 497.78125 180.953125 495.84375 183.34375 495.84375 183.34375 Z M 495.84375 183.34375 " fill-opacity="1" fill-rule="evenodd"/><path fill="#000000" d="M 478.621094 137.085938 L 478.785156 131.132812 L 474.175781 130.992188 C 472.605469 130.941406 471.378906 129.613281 471.429688 128.003906 L 471.972656 109.515625 C 472.023438 107.921875 473.328125 106.652344 474.898438 106.703125 L 488.195312 107.097656 C 489.765625 107.148438 490.992188 108.476562 490.941406 110.085938 L 490.398438 128.574219 C 490.347656 130.171875 489.042969 131.4375 487.472656 131.386719 L 483.914062 131.285156 L 483.75 137.210938 C 490.003906 137.414062 495.25 137.640625 495.769531 138.175781 C 497.273438 139.695312 497.035156 143.0625 497.035156 143.0625 L 603.636719 139.328125 C 611.183594 167.414062 602.445312 196.097656 601.699219 197.769531 C 600.953125 199.453125 553.464844 192.398438 540.015625 191.144531 C 526.566406 189.894531 495.882812 187.804688 492.777344 189.675781 C 489.675781 191.550781 461.171875 190.3125 459.902344 187.296875 C 458.652344 184.28125 462.183594 138.453125 463.324219 137.492188 C 463.878906 137.035156 471.097656 136.945312 478.621094 137.085938 Z M 478.621094 137.085938 " fill-opacity="1" fill-rule="evenodd"/><g mask="url(#bc63a856bd)"><g transform="matrix(1, 0, 0, 1, 493, 139)"><g clip-path="url(#9e806b97fb)"><path fill="#d33a4c" d="M 73.050781 2.554688 C 73.011719 2.074219 73.378906 1.644531 73.863281 1.617188 C 74.34375 1.582031 74.773438 1.949219 74.8125 2.429688 C 74.8125 2.429688 76.304688 22.652344 74.648438 42.636719 C 74.609375 43.117188 74.179688 43.484375 73.699219 43.445312 C 73.214844 43.410156 72.847656 42.976562 72.898438 42.496094 C 74.53125 22.640625 73.050781 2.554688 73.050781 2.554688 Z M 29.929688 4.769531 C 29.90625 4.289062 30.273438 3.871094 30.765625 3.847656 C 31.25 3.820312 31.667969 4.1875 31.691406 4.683594 C 31.691406 4.683594 33.035156 30.097656 31.160156 49.472656 C 31.109375 49.957031 30.679688 50.308594 30.199219 50.273438 C 29.714844 50.222656 29.363281 49.789062 29.398438 49.308594 C 31.273438 30.035156 29.929688 4.769531 29.929688 4.769531 Z M 25.207031 6.796875 C 25.195312 6.316406 25.574219 5.898438 26.054688 5.886719 C 26.539062 5.875 26.957031 6.253906 26.96875 6.734375 C 26.96875 6.734375 27.691406 28.578125 26.132812 48.539062 C 26.09375 49.019531 25.675781 49.386719 25.183594 49.347656 C 24.703125 49.308594 24.335938 48.890625 24.371094 48.398438 C 25.929688 28.542969 25.207031 6.796875 25.207031 6.796875 Z M 3.085938 5.707031 C 3.109375 5.226562 3.515625 4.847656 4.007812 4.871094 C 4.488281 4.898438 4.871094 5.304688 4.84375 5.796875 C 4.84375 5.796875 4.148438 20.941406 3.464844 29.796875 C 3.425781 30.277344 3.007812 30.644531 2.515625 30.605469 C 2.035156 30.566406 1.667969 30.148438 1.703125 29.65625 C 2.402344 20.816406 3.085938 5.707031 3.085938 5.707031 Z M 3.085938 5.707031 " fill-opacity="1" fill-rule="evenodd"/></g></g></g><path fill="#000000" d="M 200.539062 625.652344 C 202.386719 627.664062 209.746094 651.308594 200.082031 660.488281 C 190.40625 669.671875 177.71875 690.25 178.023438 692.769531 C 178.328125 695.289062 184.292969 697.199219 187.394531 706.152344 C 190.496094 715.109375 187.332031 721.78125 182.542969 723.441406 C 177.757812 725.085938 159.570312 725.113281 148.882812 721.527344 C 138.195312 717.957031 135.625 712.929688 134.21875 699.226562 C 132.8125 685.523438 136.890625 673.128906 139.09375 657.828125 C 141.296875 642.53125 144.148438 618.230469 147.527344 615.648438 C 150.910156 613.0625 163.207031 614.34375 176.832031 616.761719 C 190.445312 619.179688 198.691406 623.648438 200.539062 625.652344 Z M 603.765625 652.574219 C 606.929688 652.878906 612.402344 667.367188 629.761719 674.863281 C 648.402344 682.902344 662.714844 684.121094 669.234375 693.871094 C 677.199219 705.785156 669.640625 719.335938 655.925781 721.210938 C 639.246094 723.492188 565.480469 723.441406 561.9375 719.007812 C 558.390625 714.574219 560.847656 665.960938 563.558594 662.855469 C 565.152344 661.035156 570.546875 662.90625 582.234375 660.25 C 592.050781 658.007812 602.054688 652.410156 603.765625 652.574219 Z M 603.765625 652.574219 " fill-opacity="1" fill-rule="evenodd"/><path fill="#d33a4c" d="M 139.878906 699.59375 C 139.941406 699.113281 140.375 698.769531 140.867188 698.820312 C 141.347656 698.886719 141.691406 699.328125 141.640625 699.808594 C 141.640625 699.808594 141.082031 704.394531 144.160156 708.777344 C 146.25 711.765625 150.011719 714.640625 156.695312 715.992188 C 173.792969 719.488281 179.113281 717.792969 179.113281 717.792969 C 179.582031 717.640625 180.074219 717.894531 180.226562 718.347656 C 180.378906 718.804688 180.125 719.3125 179.667969 719.464844 C 179.667969 719.464844 174.136719 721.351562 156.355469 717.714844 C 149.074219 716.222656 145.007812 713.03125 142.730469 709.777344 C 139.207031 704.8125 139.878906 699.59375 139.878906 699.59375 Z M 150.035156 623.398438 C 150.125 622.914062 150.59375 622.613281 151.074219 622.699219 C 151.554688 622.789062 151.859375 623.257812 151.769531 623.738281 C 151.769531 623.738281 146.855469 648.558594 144.769531 664.3125 C 142.679688 680.015625 141.308594 688.210938 141.4375 692.414062 C 141.449219 692.894531 141.070312 693.300781 140.589844 693.3125 C 140.109375 693.324219 139.703125 692.945312 139.691406 692.464844 C 139.5625 688.222656 140.929688 679.941406 143.03125 664.085938 C 145.109375 648.292969 150.035156 623.398438 150.035156 623.398438 Z M 660.445312 715.714844 C 660.445312 715.714844 637.257812 721.402344 568.683594 714.765625 C 568.203125 714.714844 567.851562 714.285156 567.898438 713.804688 C 567.949219 713.320312 568.382812 712.96875 568.863281 713.019531 C 637.007812 719.617188 660.015625 714.019531 660.015625 714.019531 C 660.484375 713.890625 660.964844 714.183594 661.09375 714.652344 C 661.207031 715.121094 660.914062 715.589844 660.445312 715.714844 Z M 660.445312 715.714844 " fill-opacity="1" fill-rule="evenodd"/><path fill="#fbb397" d="M 220.875 628.613281 L 217.128906 668.921875 C 217.128906 668.921875 196.207031 662.324219 195.347656 661.085938 C 194.484375 659.84375 190.105469 654.320312 191.535156 643.886719 C 192.953125 633.464844 196.398438 625.585938 198.121094 624.777344 C 199.84375 623.953125 220.875 628.613281 220.875 628.613281 Z M 589.289062 622.636719 C 589.453125 621.878906 597.152344 640.554688 602.863281 653.953125 C 602.863281 653.953125 598.976562 660.464844 586.3125 662.324219 C 573.027344 664.273438 564.898438 663.957031 564.609375 662.539062 C 564.316406 661.109375 557.921875 644.367188 553.234375 633.160156 C 549.5 624.207031 589.289062 622.636719 589.289062 622.636719 Z M 589.289062 622.636719 " fill-opacity="1" fill-rule="evenodd"/><path fill="#fbb397" d="M 453.394531 253.871094 C 453.394531 253.871094 457.320312 224.046875 458.5 213.992188 C 459.675781 203.949219 462.449219 194.527344 464.628906 184.863281 C 466.804688 175.191406 471.363281 173.582031 473.644531 168.011719 C 475.9375 162.4375 476.886719 157.410156 480.546875 158.082031 C 484.21875 158.753906 486.15625 165.476562 484.242188 171.316406 C 482.332031 177.140625 481.292969 180.203125 481.089844 184.332031 C 480.886719 188.449219 489.839844 184.890625 492.539062 184.066406 C 495.234375 183.230469 495.488281 172.328125 495.589844 169.898438 C 495.589844 169.898438 501.164062 171.417969 504.898438 176.050781 C 508.648438 180.6875 506.582031 182.308594 507.925781 185.839844 C 509.265625 189.359375 509.34375 191.527344 508.394531 195.453125 C 507.292969 200.0625 509.039062 202.824219 508.34375 206.292969 C 507.648438 209.761719 504.835938 215.03125 498.882812 217.941406 C 492.929688 220.855469 485.980469 225.1875 484.976562 227.136719 C 483.976562 229.097656 485.015625 260.355469 485.015625 260.355469 Z M 453.394531 253.871094 " fill-opacity="1" fill-rule="evenodd"/><path fill="#004aad" d="M 218.851562 624.5 C 215.078125 623.902344 210.023438 654.839844 209.871094 667.695312 C 209.71875 680.546875 211.050781 689.652344 213.089844 689.742188 C 215.113281 689.832031 282.890625 706.421875 309.371094 710.042969 C 335.851562 713.664062 378.199219 724.25 398.410156 717.476562 C 418.621094 710.699219 433.640625 700.050781 428.625 671.53125 C 423.597656 643.011719 383.023438 556.582031 383.023438 556.582031 C 383.023438 556.582031 408.222656 543.347656 430.601562 531.433594 C 452.976562 519.515625 461.398438 512.980469 464.792969 515.136719 C 468.1875 517.289062 509.824219 596.726562 516.714844 613.089844 C 523.601562 629.449219 531.289062 649.726562 534.898438 651.117188 C 538.507812 652.523438 558.644531 647.535156 572.421875 639.554688 C 586.210938 631.578125 595.355469 626.640625 595.734375 622.839844 C 596.113281 619.027344 550.171875 521.617188 538.582031 497.886719 C 526.996094 474.140625 506.910156 437.214844 497.539062 432.328125 C 488.167969 427.4375 462.070312 422.828125 370.371094 460.378906 C 278.660156 497.914062 229.160156 469.304688 229.160156 469.304688 C 229.160156 469.304688 222.828125 499.632812 240.757812 536.308594 C 258.691406 572.96875 302.304688 621.761719 323.160156 637.820312 C 323.160156 637.820312 314.890625 636.527344 299.085938 633.882812 C 283.285156 631.234375 249.472656 629.375 218.851562 624.5 Z M 218.851562 624.5 " fill-opacity="1" fill-rule="evenodd"/><path fill="#d33a4c" d="M 496.058594 511.296875 C 495.832031 510.867188 495.996094 510.335938 496.425781 510.105469 C 496.855469 509.878906 497.390625 510.042969 497.617188 510.472656 C 497.617188 510.472656 528.515625 569.359375 537 587.292969 C 545.5 605.238281 556.742188 633.589844 556.742188 633.589844 C 556.921875 634.046875 556.707031 634.554688 556.25 634.730469 C 555.792969 634.910156 555.289062 634.691406 555.109375 634.238281 C 555.109375 634.238281 543.902344 605.945312 535.417969 588.050781 C 526.933594 570.132812 496.058594 511.296875 496.058594 511.296875 Z M 328.542969 693.679688 C 329.011719 693.792969 329.316406 694.261719 329.203125 694.730469 C 329.089844 695.199219 328.621094 695.503906 328.152344 695.390625 C 328.152344 695.390625 301.203125 689.132812 283.410156 684.941406 C 265.628906 680.761719 229.335938 673.417969 229.335938 673.417969 C 228.855469 673.328125 228.550781 672.859375 228.652344 672.378906 C 228.753906 671.898438 229.210938 671.59375 229.691406 671.695312 C 229.691406 671.695312 266.023438 679.042969 283.816406 683.234375 C 301.59375 687.425781 328.542969 693.679688 328.542969 693.679688 Z M 349.488281 623.296875 C 349.234375 622.878906 349.363281 622.332031 349.769531 622.078125 C 350.1875 621.828125 350.730469 621.953125 350.984375 622.359375 C 350.984375 622.359375 369.382812 651.964844 374.753906 665.300781 C 380.3125 679.105469 379.414062 688.363281 372.929688 693.402344 C 370.332031 695.429688 365.496094 696.363281 360.039062 696.695312 C 352.136719 697.164062 342.902344 696.390625 337.625 696.199219 C 337.140625 696.1875 336.75 695.769531 336.773438 695.289062 C 336.789062 694.808594 337.207031 694.425781 337.6875 694.441406 C 342.929688 694.628906 352.097656 695.402344 359.9375 694.945312 C 364.976562 694.65625 369.449219 693.882812 371.851562 692.023438 C 377.867188 687.347656 378.273438 678.761719 373.132812 665.972656 C 367.777344 652.699219 349.488281 623.296875 349.488281 623.296875 Z M 323.25 638.949219 C 322.808594 638.542969 322.769531 637.847656 323.175781 637.390625 C 323.578125 636.933594 324.277344 636.910156 324.730469 637.3125 C 324.730469 637.3125 338.699219 649.914062 344.082031 655.917969 C 344.488281 656.375 344.449219 657.070312 343.992188 657.476562 C 343.539062 657.878906 342.839844 657.84375 342.4375 657.386719 C 337.105469 651.433594 323.25 638.949219 323.25 638.949219 Z M 294.476562 524.757812 C 293.160156 525.074219 291.628906 524.910156 289.84375 524.265625 C 287.335938 523.367188 284.257812 521.480469 280.394531 518.757812 C 269.796875 511.296875 255.703125 487.957031 255.703125 487.957031 C 255.449219 487.539062 255.585938 486.996094 256.003906 486.753906 C 256.421875 486.503906 256.96875 486.640625 257.207031 487.058594 C 257.207031 487.058594 271 510.007812 281.410156 517.324219 C 285.003906 519.859375 287.894531 521.644531 290.25 522.542969 C 292.324219 523.328125 293.933594 523.417969 295.25 522.53125 C 296.441406 521.734375 297.367188 520.199219 298.203125 517.921875 C 301.253906 509.652344 304.066406 487.515625 304.066406 487.515625 C 304.128906 487.035156 304.570312 486.691406 305.050781 486.753906 C 305.535156 486.820312 305.875 487.261719 305.8125 487.742188 C 305.8125 487.742188 302.949219 510.144531 299.859375 518.527344 C 298.835938 521.316406 297.605469 523.113281 296.113281 524.0625 C 299.152344 529.507812 317.183594 561.914062 328.289062 581.847656 C 340.460938 603.691406 344.742188 612.253906 344.742188 612.253906 C 344.957031 612.683594 344.777344 613.214844 344.347656 613.429688 C 343.917969 613.644531 343.386719 613.46875 343.171875 613.039062 C 343.171875 613.039062 338.902344 604.488281 326.757812 582.695312 C 315.523438 562.558594 297.226562 529.683594 294.476562 524.757812 Z M 374.613281 535.929688 C 378.109375 543.285156 381.441406 550.226562 383.71875 554.824219 C 383.984375 555.367188 383.769531 556.027344 383.226562 556.304688 C 382.679688 556.570312 382.023438 556.355469 381.742188 555.8125 C 374.488281 541.160156 356.542969 502.738281 356.542969 502.738281 C 356.289062 502.191406 356.53125 501.535156 357.074219 501.269531 C 357.621094 501.015625 358.277344 501.242188 358.53125 501.800781 C 358.53125 501.800781 366.421875 518.691406 373.855469 534.34375 C 379.753906 531.207031 413.910156 513.019531 430.472656 503.738281 C 443.265625 496.570312 458.359375 488.769531 468.996094 486.136719 C 473.796875 484.945312 477.734375 484.832031 480.253906 486.121094 C 488.523438 490.351562 491.488281 499.722656 491.488281 499.722656 C 491.625 500.191406 491.375 500.683594 490.917969 500.824219 C 490.449219 500.976562 489.957031 500.710938 489.816406 500.253906 C 489.816406 500.253906 487.09375 491.59375 479.457031 487.691406 C 477.214844 486.539062 473.707031 486.792969 469.425781 487.84375 C 458.902344 490.453125 443.984375 498.191406 431.335938 505.269531 C 414.695312 514.578125 380.3125 532.890625 374.613281 535.929688 Z M 374.613281 535.929688 " fill-opacity="1" fill-rule="evenodd"/><path fill="#d33a4c" d="M 334.140625 240.777344 C 360.773438 237.152344 398.789062 248.121094 398.789062 248.121094 C 398.789062 248.121094 432.675781 269.472656 445.9375 280.78125 C 446.40625 281.171875 446.835938 281.566406 447.253906 281.933594 C 459.410156 292.863281 484.28125 300.269531 488.449219 284.441406 C 488.449219 284.441406 489.03125 281.78125 489.917969 277.828125 C 492.386719 266.785156 497.261719 245.664062 498.453125 244.664062 C 500.085938 243.308594 505.175781 246.449219 514.636719 249.5625 C 524.097656 252.679688 532.300781 249.296875 532.808594 251.5 C 533.316406 253.707031 526.996094 300.246094 523.566406 320.53125 C 520.132812 340.820312 516.777344 345.503906 510.46875 351.949219 C 504.164062 358.410156 488.738281 357.675781 488.738281 357.675781 C 461.957031 356.457031 403.375 322.179688 403.375 322.179688 C 403.375 322.179688 336.875 241.054688 334.140625 240.777344 Z M 334.140625 240.777344 " fill-opacity="1" fill-rule="evenodd"/><path fill="#0c1f20" d="M 408.90625 223.234375 C 408.90625 223.234375 401.5 240.875 402.589844 264.011719 C 403.675781 287.148438 407.933594 339.132812 412.707031 357.828125 C 417.480469 376.503906 414.339844 385.332031 407.273438 395.324219 C 400.207031 405.316406 407.070312 388.714844 404.285156 375.757812 C 404.285156 375.757812 399.183594 404.148438 367.523438 416.585938 C 335.863281 429.023438 372.753906 224.871094 372.753906 224.871094 C 372.753906 224.871094 375.09375 197.527344 408.90625 223.234375 Z M 408.90625 223.234375 " fill-opacity="1" fill-rule="evenodd"/><path fill="#fbb397" d="M 377.199219 268.191406 C 377.199219 268.191406 385.53125 245.335938 388.773438 236.699219 C 392 228.0625 399.117188 224.007812 401.574219 224.414062 C 404.019531 224.832031 418.480469 230.683594 425.410156 225.707031 C 432.335938 220.730469 433.640625 202.503906 435.007812 196.910156 C 435.007812 196.910156 443.734375 194.730469 444.378906 191.121094 C 445.023438 187.511719 441.136719 185.398438 439.210938 174.480469 C 437.285156 163.578125 440.453125 149.265625 440.453125 149.265625 C 440.453125 149.265625 401.257812 118.40625 400.117188 118.0625 C 398.980469 117.722656 345.640625 166.984375 345.640625 166.984375 C 345.640625 166.984375 336.902344 244.839844 336.851562 246.003906 C 336.800781 247.183594 377.199219 268.191406 377.199219 268.191406 Z M 377.199219 268.191406 " fill-opacity="1" fill-rule="evenodd"/><path fill="#000000" d="M 428.003906 159.15625 C 429.867188 159.308594 431.171875 161.753906 430.941406 164.601562 C 430.703125 167.453125 429.003906 169.644531 427.15625 169.492188 C 425.292969 169.339844 423.988281 166.894531 424.21875 164.046875 C 424.445312 161.195312 426.15625 159.007812 428.003906 159.15625 Z M 415.582031 202.203125 C 415.203125 201.898438 415.125 201.351562 415.429688 200.960938 C 415.734375 200.582031 416.277344 200.503906 416.671875 200.808594 C 416.671875 200.808594 422.761719 205.558594 431.839844 204.671875 C 432.324219 204.621094 432.753906 204.976562 432.804688 205.457031 C 432.855469 205.9375 432.5 206.367188 432.019531 206.417969 C 422.167969 207.382812 415.582031 202.203125 415.582031 202.203125 Z M 415.582031 202.203125 " fill-opacity="1" fill-rule="evenodd"/><path fill="#d33a4c" d="M 376.097656 173.277344 C 376.363281 173.683594 376.261719 174.226562 375.855469 174.507812 C 375.449219 174.773438 374.90625 174.671875 374.625 174.265625 C 374.625 174.265625 373.878906 173.113281 372.675781 173.089844 C 372.144531 173.074219 371.535156 173.316406 370.851562 173.898438 C 369.320312 175.226562 368.941406 177.847656 369.613281 179.710938 C 370.003906 180.800781 370.800781 181.636719 372.03125 181.609375 C 372.511719 181.597656 372.917969 181.992188 372.929688 182.472656 C 372.941406 182.953125 372.550781 183.359375 372.070312 183.371094 C 370.003906 183.410156 368.613281 182.128906 367.953125 180.320312 C 367.054688 177.835938 367.636719 174.355469 369.6875 172.570312 C 370.800781 171.605469 371.828125 171.316406 372.703125 171.328125 C 374.792969 171.367188 376.097656 173.277344 376.097656 173.277344 Z M 385.707031 216.953125 C 385.316406 216.675781 385.226562 216.121094 385.503906 215.726562 C 385.785156 215.335938 386.339844 215.246094 386.734375 215.523438 C 386.734375 215.523438 394.128906 220.867188 400.472656 222.933594 C 400.941406 223.085938 401.195312 223.578125 401.042969 224.046875 C 400.890625 224.515625 400.398438 224.769531 399.929688 224.617188 C 393.367188 222.476562 385.707031 216.953125 385.707031 216.953125 Z M 385.707031 216.953125 " fill-opacity="1" fill-rule="evenodd"/><path fill="#d33a4c" d="M 445.9375 280.765625 C 447.609375 266.152344 449.355469 252.019531 449.976562 251.019531 C 451.292969 248.917969 458.5625 253.832031 469.464844 254.691406 C 480.367188 255.542969 487.03125 254.578125 488.4375 255.882812 C 489.257812 256.644531 489.589844 266.078125 489.90625 277.816406 C 490.132812 286.441406 490.359375 296.304688 490.742188 304.890625 C 491.652344 325.191406 491.992188 347.203125 488.726562 357.675781 C 488.726562 357.675781 485.421875 366.03125 477.695312 372.578125 C 469.972656 379.140625 461.246094 377.074219 445.972656 372.59375 C 430.703125 368.109375 385.707031 347.238281 385.707031 347.238281 C 385.707031 347.238281 386.683594 360.6875 377.414062 381.417969 C 368.128906 402.136719 369.433594 416.394531 374.042969 432.65625 C 378.652344 448.917969 385.402344 453.628906 384.53125 455.199219 C 383.65625 456.769531 369.625 472.519531 351.136719 482.550781 C 332.648438 492.582031 322.1875 497.710938 305.570312 497.457031 C 288.96875 497.203125 267.59375 492.871094 252.496094 489.277344 C 237.414062 485.679688 225.941406 482.007812 223.789062 480.09375 C 221.636719 478.183594 222.105469 424.042969 232.894531 380.824219 C 243.683594 337.601562 296.910156 254.667969 321.957031 243.917969 C 325.542969 242.371094 329.683594 241.359375 334.140625 240.75 C 334.140625 240.75 349.019531 239.191406 369.042969 256.199219 C 389.0625 273.207031 398.015625 284.25 407.769531 291.277344 C 417.519531 298.292969 420.027344 297.054688 423.824219 302.789062 C 427.636719 308.539062 433.511719 309.121094 442.300781 313.945312 C 442.3125 313.945312 444.074219 297.054688 445.9375 280.765625 Z M 445.9375 280.765625 " fill-opacity="1" fill-rule="evenodd"/><path fill="#0c1f20" d="M 407.261719 292 C 406.867188 291.722656 406.78125 291.164062 407.058594 290.773438 C 407.335938 290.378906 407.894531 290.289062 408.285156 290.570312 C 413.125 294.050781 416.152344 295.46875 418.457031 296.75 C 420.898438 298.105469 422.558594 299.28125 424.558594 302.308594 C 426.371094 305.042969 428.6875 306.527344 431.574219 307.917969 C 434.363281 309.261719 437.667969 310.515625 441.554688 312.554688 C 441.960938 308.664062 443.238281 296.648438 444.632812 284.238281 C 444.683594 283.757812 445.125 283.402344 445.605469 283.464844 C 446.089844 283.515625 446.441406 283.957031 446.378906 284.441406 C 444.667969 299.535156 443.164062 314.046875 443.164062 314.046875 C 443.136719 314.339844 442.960938 314.605469 442.695312 314.730469 C 442.429688 314.871094 442.125 314.859375 441.859375 314.71875 C 437.488281 312.3125 433.828125 310.96875 430.804688 309.515625 C 427.613281 307.96875 425.078125 306.296875 423.078125 303.285156 C 421.28125 300.5625 419.785156 299.511719 417.582031 298.292969 C 415.265625 297.003906 412.175781 295.546875 407.261719 292 Z M 489.121094 281.148438 C 489.105469 280.667969 489.488281 280.261719 489.980469 280.25 C 490.460938 280.234375 490.867188 280.617188 490.878906 281.109375 C 491.082031 288.871094 491.296875 297.355469 491.625 304.867188 C 492.425781 322.746094 492.777344 341.933594 490.640625 353.46875 C 490.550781 353.949219 490.09375 354.269531 489.613281 354.179688 C 489.132812 354.089844 488.816406 353.632812 488.902344 353.152344 C 491.03125 341.707031 490.652344 322.671875 489.855469 304.941406 C 489.523438 297.421875 489.320312 288.9375 489.121094 281.148438 Z M 489.121094 281.148438 " fill-opacity="1" fill-rule="evenodd"/><path fill="#fbb397" d="M 533.113281 228.023438 C 533.113281 228.023438 533.554688 224.566406 540.371094 220.929688 C 547.183594 217.296875 560.0625 211.292969 565.429688 206.660156 C 570.800781 202.023438 571.941406 201.988281 569.710938 194.046875 C 567.484375 186.105469 567.164062 183.472656 563.519531 180.203125 C 559.859375 176.949219 554.488281 170.125 552.539062 170.707031 C 550.589844 171.277344 549.449219 175.507812 551.714844 179.648438 C 553.96875 183.789062 555.4375 182.800781 557.984375 189.257812 C 557.984375 189.257812 553.464844 185.699219 551.3125 185.6875 C 549.15625 185.675781 542.117188 186.941406 540.886719 188.222656 C 539.660156 189.5 540.117188 192.628906 543.207031 194.109375 C 546.296875 195.589844 549.222656 192.855469 550.359375 194.832031 C 551.5 196.808594 551.246094 200 551.246094 200 C 551.246094 200 541.484375 198.933594 535.722656 201.214844 C 529.960938 203.46875 531.617188 223.136719 533.113281 228.023438 Z M 533.113281 228.023438 " fill-opacity="1" fill-rule="evenodd"/><path fill="#d33a4c" d="M 559.351562 189.703125 C 559.125 189.273438 558.59375 189.109375 558.160156 189.324219 C 557.730469 189.550781 557.566406 190.082031 557.78125 190.511719 L 562.277344 199.214844 C 562.503906 199.644531 563.039062 199.808594 563.46875 199.59375 C 563.898438 199.363281 564.0625 198.847656 563.847656 198.402344 Z M 541.75 191.804688 C 540.988281 190.714844 538.976562 190.929688 540.304688 192.816406 C 540.863281 193.617188 541.6875 194.351562 542.8125 194.894531 C 544.5625 195.730469 546.257812 195.425781 547.675781 195.148438 C 548.121094 195.058594 548.539062 194.972656 548.90625 194.957031 C 549.183594 194.945312 549.425781 194.996094 549.574219 195.261719 C 550.246094 196.414062 550.375 198.035156 550.375 199.035156 C 547.738281 198.847656 540.191406 198.492188 535.378906 200.390625 C 534.925781 200.566406 534.707031 201.085938 534.886719 201.53125 C 535.0625 201.988281 535.570312 202.203125 536.027344 202.023438 C 541.625 199.820312 551.132812 200.871094 551.132812 200.871094 C 551.375 200.898438 551.601562 200.820312 551.792969 200.667969 C 551.96875 200.515625 552.082031 200.289062 552.109375 200.0625 C 552.109375 200.0625 552.347656 196.554688 551.09375 194.386719 C 550.4375 193.25 549.410156 193.070312 548.082031 193.285156 C 546.839844 193.488281 545.230469 194.121094 543.574219 193.324219 C 542.761719 192.90625 542.15625 192.375 541.75 191.804688 Z M 541.75 191.804688 " fill-opacity="1" fill-rule="evenodd"/><path fill="#0c1f20" d="M 255.867188 242.511719 C 265.3125 234.050781 283.371094 220.109375 290.78125 202.050781 C 298.1875 183.992188 306.457031 143.570312 329.390625 114.1875 C 352.324219 84.820312 392.800781 89.480469 404.894531 96.851562 C 404.894531 96.851562 425.839844 96.777344 438.855469 113.214844 C 451.875 129.652344 449.53125 146.847656 448.292969 149.570312 C 447.050781 152.292969 447.773438 142.769531 441.566406 131.578125 C 441.566406 131.578125 444.617188 151.953125 443.046875 153.34375 C 441.492188 154.738281 433.550781 153.789062 432.324219 153.230469 C 431.09375 152.660156 431.839844 144.304688 431.144531 141.820312 C 430.449219 139.339844 429.003906 152.140625 428.117188 153.648438 C 427.246094 155.167969 416.429688 154.648438 414.515625 154.433594 C 412.605469 154.21875 414.074219 137.464844 413.214844 133.640625 C 412.351562 129.816406 410.589844 145 406.90625 150.925781 C 403.222656 156.851562 405.007812 150.304688 403.398438 141.023438 C 401.789062 131.742188 400.347656 130.753906 399.28125 131.816406 C 398.21875 132.878906 383.011719 157.042969 380.1875 169.035156 C 380.1875 169.035156 376.511719 162.832031 369.636719 164.628906 C 365.203125 165.792969 360.417969 171.65625 361.734375 182.269531 C 363.015625 192.566406 370.992188 191.097656 370.992188 191.097656 C 370.992188 191.097656 366.117188 214.648438 350.605469 238.507812 C 335.089844 262.367188 317.058594 278.042969 311.648438 297.117188 C 306.242188 316.1875 309.851562 341.222656 307.722656 342.058594 C 305.585938 342.882812 288.398438 319.125 299.898438 285.339844 C 299.898438 285.339844 287.5 301.195312 287.132812 320.695312 C 286.765625 340.199219 285.691406 358.015625 270.265625 371.414062 C 254.828125 384.800781 272.582031 367.132812 269.871094 349.824219 C 269.871094 349.824219 269.113281 343.136719 269.667969 337.679688 C 269.667969 337.679688 267.351562 347.59375 259.183594 358.726562 C 251.015625 369.84375 243.214844 370.589844 241.695312 383.382812 C 240.175781 396.171875 240.898438 396.046875 239.441406 396.894531 C 237.996094 397.730469 214.0625 379.796875 215.46875 358.421875 C 215.46875 358.421875 212.316406 365.753906 212.441406 374.464844 C 212.570312 383.179688 211.316406 385.597656 204.855469 371.859375 C 198.398438 358.117188 198.691406 349.609375 208.617188 338.714844 C 218.546875 327.824219 228.5625 326.648438 229.285156 300.433594 C 229.996094 274.207031 234.109375 261.988281 255.867188 242.511719 Z M 255.867188 242.511719 " fill-opacity="1" fill-rule="evenodd"/><path fill="#004aad" d="M 367.496094 144.734375 C 366.371094 144.265625 365.851562 142.972656 366.320312 141.847656 C 366.789062 140.71875 368.078125 140.199219 369.207031 140.667969 L 388.390625 148.761719 C 389.507812 149.230469 390.039062 150.519531 389.570312 151.648438 C 389.101562 152.761719 387.808594 153.292969 386.683594 152.824219 Z M 370.574219 138.441406 C 369.449219 137.972656 368.929688 136.679688 369.398438 135.550781 C 369.863281 134.425781 371.15625 133.90625 372.285156 134.375 L 391.46875 142.46875 C 392.582031 142.9375 393.117188 144.226562 392.648438 145.355469 C 392.179688 146.46875 390.886719 147 389.761719 146.53125 Z M 370.574219 138.441406 " fill-opacity="1" fill-rule="evenodd"/></svg>